<?xml version="1.0" encoding="utf-8"?>
<!-- Generator: Adobe Illustrator 25.4.1, SVG Export Plug-In . SVG Version: 6.00 Build 0)  -->
<svg version="1.1" id="Layer_1" xmlns="http://www.w3.org/2000/svg" xmlns:xlink="http://www.w3.org/1999/xlink" x="0px" y="0px"
	 viewBox="0 0 1711.4 956.6" style="enable-background:new 0 0 1711.4 956.6;" xml:space="preserve">
<style type="text/css">
	.st0{fill-rule:evenodd;clip-rule:evenodd;fill:#E9E8F4;}
	.st1{fill-rule:evenodd;clip-rule:evenodd;fill:#D9D7EC;}
	.st2{fill-rule:evenodd;clip-rule:evenodd;fill:#EEEDF6;}
	
		.st3{clip-path:url(#SVGID_00000114779291602655834210000001935966073606637448_);fill-rule:evenodd;clip-rule:evenodd;fill:#BBB8DD;}
	.st4{fill-rule:evenodd;clip-rule:evenodd;fill:#F7FEFE;}
	.st5{fill-rule:evenodd;clip-rule:evenodd;fill:#D5D3EA;}
	.st6{fill-rule:evenodd;clip-rule:evenodd;fill:#C7C4E3;}
	.st7{fill-rule:evenodd;clip-rule:evenodd;fill:#2A6868;}
	.st8{fill-rule:evenodd;clip-rule:evenodd;fill:#3D9696;}
	.st9{fill-rule:evenodd;clip-rule:evenodd;fill:#3F3D56;}
	
		.st10{clip-path:url(#SVGID_00000031183970156518683040000004657373681059431320_);fill-rule:evenodd;clip-rule:evenodd;fill:#38374D;}
	.st11{fill-rule:evenodd;clip-rule:evenodd;fill:#ACABC3;}
	.st12{fill-rule:evenodd;clip-rule:evenodd;fill:#303D5C;}
	.st13{fill-rule:evenodd;clip-rule:evenodd;fill:#DBDBDB;}
	.st14{fill-rule:evenodd;clip-rule:evenodd;fill:#C7C3E3;}
	.st15{fill-rule:evenodd;clip-rule:evenodd;fill:#E2E2E2;}
	.st16{fill-rule:evenodd;clip-rule:evenodd;fill:#B0ADD8;}
	.st17{fill-rule:evenodd;clip-rule:evenodd;fill:#BAB6DC;}
	
		.st18{clip-path:url(#SVGID_00000042706114502076985180000018187953770061344695_);fill-rule:evenodd;clip-rule:evenodd;fill:#333333;}
	.st19{fill-rule:evenodd;clip-rule:evenodd;fill:#384556;}
	
		.st20{clip-path:url(#SVGID_00000108310252044751651230000014366692630385439136_);fill-rule:evenodd;clip-rule:evenodd;fill:#556982;}
	
		.st21{clip-path:url(#SVGID_00000108310252044751651230000014366692630385439136_);fill-rule:evenodd;clip-rule:evenodd;fill:#B5C0CF;}
	
		.st22{clip-path:url(#SVGID_00000108310252044751651230000014366692630385439136_);fill-rule:evenodd;clip-rule:evenodd;fill:#9BAABD;}
	
		.st23{clip-path:url(#SVGID_00000108310252044751651230000014366692630385439136_);fill-rule:evenodd;clip-rule:evenodd;fill:#B0B9EA;}
	
		.st24{clip-path:url(#SVGID_00000108310252044751651230000014366692630385439136_);fill-rule:evenodd;clip-rule:evenodd;fill:#7288A3;}
	
		.st25{clip-path:url(#SVGID_00000108310252044751651230000014366692630385439136_);fill-rule:evenodd;clip-rule:evenodd;fill:#429D9F;}
	
		.st26{clip-path:url(#SVGID_00000108310252044751651230000014366692630385439136_);fill-rule:evenodd;clip-rule:evenodd;fill:#EBB23C;}
	
		.st27{clip-path:url(#SVGID_00000108310252044751651230000014366692630385439136_);fill-rule:evenodd;clip-rule:evenodd;fill:#DE7C7B;}
	
		.st28{clip-path:url(#SVGID_00000108310252044751651230000014366692630385439136_);fill-rule:evenodd;clip-rule:evenodd;fill:#4C5E74;}
	.st29{fill-rule:evenodd;clip-rule:evenodd;fill:#A8A3D3;}
	.st30{fill-rule:evenodd;clip-rule:evenodd;fill:#292A2A;}
	.st31{fill-rule:evenodd;clip-rule:evenodd;fill:#F3F3F3;}
	
		.st32{clip-path:url(#SVGID_00000106130952706050002800000005514523079091701384_);fill-rule:evenodd;clip-rule:evenodd;fill:#292A2A;}
	.st33{fill-rule:evenodd;clip-rule:evenodd;fill:#FE9C6D;}
	.st34{fill-rule:evenodd;clip-rule:evenodd;fill:#8378C0;}
	.st35{fill-rule:evenodd;clip-rule:evenodd;fill:#27314A;}
	.st36{fill-rule:evenodd;clip-rule:evenodd;fill:#17203B;}
	.st37{fill-rule:evenodd;clip-rule:evenodd;fill:#6E62B5;}
	.st38{fill-rule:evenodd;clip-rule:evenodd;fill:#FEAB83;}
	
		.st39{clip-path:url(#SVGID_00000144320785003832857360000014212649938895147670_);fill-rule:evenodd;clip-rule:evenodd;fill:#7770BB;}
	.st40{fill-rule:evenodd;clip-rule:evenodd;fill:#372710;}
	
		.st41{clip-path:url(#SVGID_00000170252133759785198690000009475061384694873000_);fill-rule:evenodd;clip-rule:evenodd;fill:#FD8145;}
	.st42{fill-rule:evenodd;clip-rule:evenodd;}
	.st43{fill-rule:evenodd;clip-rule:evenodd;fill:#D44702;}
	.st44{fill-rule:evenodd;clip-rule:evenodd;fill:#D35218;}
	.st45{fill-rule:evenodd;clip-rule:evenodd;fill:#FEFEFE;}
	.st46{fill-rule:evenodd;clip-rule:evenodd;fill:#FFFFFF;}
	
		.st47{clip-path:url(#SVGID_00000150805075278263949580000015858017533488405183_);fill-rule:evenodd;clip-rule:evenodd;fill:#F7F6FB;}
	.st48{fill-rule:evenodd;clip-rule:evenodd;fill:#FDFDFE;}
	.st49{fill-rule:evenodd;clip-rule:evenodd;fill:#FD696C;}
	.st50{fill-rule:evenodd;clip-rule:evenodd;fill:#657BAE;}
	.st51{fill-rule:evenodd;clip-rule:evenodd;fill:#5E74AB;}
	.st52{fill-rule:evenodd;clip-rule:evenodd;fill:#3B4B71;}
	.st53{fill-rule:evenodd;clip-rule:evenodd;fill:#FCAA23;}
	.st54{fill-rule:evenodd;clip-rule:evenodd;fill:#9AA8CA;}
	.st55{fill-rule:evenodd;clip-rule:evenodd;fill:#9791BB;}
	.st56{fill-rule:evenodd;clip-rule:evenodd;fill:#BCB9D3;}
	
		.st57{clip-path:url(#SVGID_00000059307586079063688100000008886516606363898022_);fill-rule:evenodd;clip-rule:evenodd;fill:#9791BB;}
	.st58{fill-rule:evenodd;clip-rule:evenodd;fill:#7D76AA;}
	.st59{fill-rule:evenodd;clip-rule:evenodd;fill:#215252;}
	.st60{fill-rule:evenodd;clip-rule:evenodd;fill:#3D9595;}
	
		.st61{clip-path:url(#SVGID_00000084517518820928827110000014750996292158469049_);fill-rule:evenodd;clip-rule:evenodd;fill:#2A6868;}
	.st62{fill-rule:evenodd;clip-rule:evenodd;fill:#537979;}
	.st63{fill-rule:evenodd;clip-rule:evenodd;fill:#69AEAE;}
	
		.st64{clip-path:url(#SVGID_00000096032288373723309560000006065104836174514353_);fill-rule:evenodd;clip-rule:evenodd;fill:#3F9A9A;}
	
		.st65{clip-path:url(#SVGID_00000175315037400123435240000015306969992947095957_);fill-rule:evenodd;clip-rule:evenodd;fill:#5A8A8A;}
</style>
<g>
	<path class="st0" d="M1557.8,937.9c34.7-74.4,58.5-156.2,72.2-239.6c39.7-242.8-27.4-567.1-268.8-607.5
		c-243.9-40.7-384.1,271.7-612.4,257.6C562.8,337,441.3,43.1,241.8,128.9c-50,21.5-91.9,63.3-122.7,114.2
		C-12.3,460.8,173.7,681.7,98,937.9H1557.8L1557.8,937.9z"/>
	<polygon class="st1" points="1602.6,32.4 933.2,32.4 933.2,448.3 1602.6,448.3 1602.6,32.4 	"/>
	<polygon class="st2" points="1586.7,42.3 949.1,42.3 949.1,438.4 1586.7,438.4 1586.7,42.3 	"/>
	<g>
		<defs>
			<polygon id="SVGID_1_" points="1586.7,42.3 949.1,42.3 949.1,438.4 1586.7,438.4 1586.7,42.3 			"/>
		</defs>
		<clipPath id="SVGID_00000067939850208488673000000007184757534382617990_">
			<use xlink:href="#SVGID_1_"  style="overflow:visible;"/>
		</clipPath>
		
			<polygon style="clip-path:url(#SVGID_00000067939850208488673000000007184757534382617990_);fill-rule:evenodd;clip-rule:evenodd;fill:#BBB8DD;" points="
			966.2,191.5 927.2,191.5 927.2,526.6 966.2,526.6 966.2,191.5 		"/>
		
			<polygon style="clip-path:url(#SVGID_00000067939850208488673000000007184757534382617990_);fill-rule:evenodd;clip-rule:evenodd;fill:#BBB8DD;" points="
			1012.6,267.1 957.9,267.1 957.9,602.2 1012.6,602.2 1012.6,267.1 		"/>
		
			<polygon style="clip-path:url(#SVGID_00000067939850208488673000000007184757534382617990_);fill-rule:evenodd;clip-rule:evenodd;fill:#BBB8DD;" points="
			1044.4,228.9 1005.3,228.9 1005.3,564.1 1044.4,564.1 1044.4,228.9 		"/>
		
			<polygon style="clip-path:url(#SVGID_00000067939850208488673000000007184757534382617990_);fill-rule:evenodd;clip-rule:evenodd;fill:#BBB8DD;" points="
			1077.7,350.3 1034.9,350.3 1034.9,455.4 1077.7,455.4 1077.7,350.3 		"/>
		
			<polygon style="clip-path:url(#SVGID_00000067939850208488673000000007184757534382617990_);fill-rule:evenodd;clip-rule:evenodd;fill:#BBB8DD;" points="
			1133.5,267.1 1068.2,267.1 1068.2,602.2 1133.5,602.2 1133.5,267.1 		"/>
		
			<polygon style="clip-path:url(#SVGID_00000067939850208488673000000007184757534382617990_);fill-rule:evenodd;clip-rule:evenodd;fill:#BBB8DD;" points="
			1434.8,251.5 1363,251.5 1363,586.6 1434.8,586.6 1434.8,251.5 		"/>
		
			<polygon style="clip-path:url(#SVGID_00000067939850208488673000000007184757534382617990_);fill-rule:evenodd;clip-rule:evenodd;fill:#BBB8DD;" points="
			1237.8,310.4 1128.7,310.4 1128.7,645.5 1237.8,645.5 1237.8,310.4 		"/>
		
			<polygon style="clip-path:url(#SVGID_00000067939850208488673000000007184757534382617990_);fill-rule:evenodd;clip-rule:evenodd;fill:#BBB8DD;" points="
			1539.1,294.8 1420.5,294.8 1420.5,629.9 1539.1,629.9 1539.1,294.8 		"/>
		
			<polygon style="clip-path:url(#SVGID_00000067939850208488673000000007184757534382617990_);fill-rule:evenodd;clip-rule:evenodd;fill:#BBB8DD;" points="
			1276.9,294.8 1230.1,294.8 1230.1,629.9 1276.9,629.9 1276.9,294.8 		"/>
		
			<polygon style="clip-path:url(#SVGID_00000067939850208488673000000007184757534382617990_);fill-rule:evenodd;clip-rule:evenodd;fill:#BBB8DD;" points="
			1585.2,279.2 1530.5,279.2 1530.5,478 1585.2,478 1585.2,279.2 		"/>
		
			<polygon style="clip-path:url(#SVGID_00000067939850208488673000000007184757534382617990_);fill-rule:evenodd;clip-rule:evenodd;fill:#BBB8DD;" points="
			1323.9,267.1 1269.1,267.1 1269.1,602.2 1323.9,602.2 1323.9,267.1 		"/>
		
			<polygon style="clip-path:url(#SVGID_00000067939850208488673000000007184757534382617990_);fill-rule:evenodd;clip-rule:evenodd;fill:#BBB8DD;" points="
			1608.6,251.5 1569.6,251.5 1569.6,586.6 1608.6,586.6 1608.6,251.5 		"/>
		
			<polygon style="clip-path:url(#SVGID_00000067939850208488673000000007184757534382617990_);fill-rule:evenodd;clip-rule:evenodd;fill:#BBB8DD;" points="
			1368.7,207.1 1308.2,207.1 1308.2,542.2 1368.7,542.2 1368.7,207.1 		"/>
		
			<path style="clip-path:url(#SVGID_00000067939850208488673000000007184757534382617990_);fill-rule:evenodd;clip-rule:evenodd;fill:#BBB8DD;" d="
			M1586.7,42.3H949.1v396.1h637.7V42.3L1586.7,42.3z M1569,54.3H966.8V428H1569V54.3L1569,54.3z"/>
	</g>
	<polygon class="st4" points="1275.8,42.3 1260,42.3 1260,438.4 1275.8,438.4 1275.8,42.3 	"/>
	<polygon class="st5" points="1628,45.5 912.5,45.5 912.5,53.3 1628,53.3 1628,45.5 	"/>
	<polygon class="st6" points="1598.3,0 942.3,0 942.3,7.8 1598.3,7.8 1598.3,0 	"/>
	<polygon class="st6" points="1598.3,7.8 942.3,7.8 942.3,15.7 1598.3,15.7 1598.3,7.8 	"/>
	<polygon class="st6" points="1600,15.7 944.1,15.7 944.1,23.5 1600,23.5 1600,15.7 	"/>
	<polygon class="st6" points="1600,23.5 944.1,23.5 944.1,31.4 1600,31.4 1600,23.5 	"/>
	<polygon class="st5" points="944.1,0 912.5,0 912.5,31.9 944.1,31.9 944.1,0 	"/>
	<polygon class="st5" points="1628,0 1596.5,0 1596.5,31.9 1628,31.9 1628,0 	"/>
	<polygon class="st5" points="1628,152 912.5,152 912.5,159.9 1628,159.9 1628,152 	"/>
	<polygon class="st5" points="1628,258.6 912.5,258.6 912.5,266.4 1628,266.4 1628,258.6 	"/>
	<polygon class="st5" points="1628,365.2 912.5,365.2 912.5,373 1628,373 1628,365.2 	"/>
	<polygon class="st5" points="1628,63.2 912.5,63.2 912.5,71.1 1628,71.1 1628,63.2 	"/>
	<polygon class="st5" points="1628,169.8 912.5,169.8 912.5,177.6 1628,177.6 1628,169.8 	"/>
	<polygon class="st5" points="1628,276.4 912.5,276.4 912.5,284.2 1628,284.2 1628,276.4 	"/>
	<polygon class="st5" points="1628,382.9 912.5,382.9 912.5,390.8 1628,390.8 1628,382.9 	"/>
	<polygon class="st5" points="1628,81 912.5,81 912.5,88.8 1628,88.8 1628,81 	"/>
	<polygon class="st5" points="1628,187.6 912.5,187.6 912.5,195.4 1628,195.4 1628,187.6 	"/>
	<polygon class="st5" points="1628,294.1 912.5,294.1 912.5,302 1628,302 1628,294.1 	"/>
	<polygon class="st5" points="1628,400.7 912.5,400.7 912.5,408.6 1628,408.6 1628,400.7 	"/>
	<polygon class="st5" points="1628,98.7 912.5,98.7 912.5,106.6 1628,106.6 1628,98.7 	"/>
	<polygon class="st5" points="1628,205.3 912.5,205.3 912.5,213.2 1628,213.2 1628,205.3 	"/>
	<polygon class="st5" points="1628,311.9 912.5,311.9 912.5,319.7 1628,319.7 1628,311.9 	"/>
	<polygon class="st5" points="1628,418.5 912.5,418.5 912.5,426.3 1628,426.3 1628,418.5 	"/>
	<polygon class="st5" points="1628,116.5 912.5,116.5 912.5,124.3 1628,124.3 1628,116.5 	"/>
	<polygon class="st5" points="1628,223.1 912.5,223.1 912.5,230.9 1628,230.9 1628,223.1 	"/>
	<polygon class="st5" points="1628,329.7 912.5,329.7 912.5,337.5 1628,337.5 1628,329.7 	"/>
	<polygon class="st5" points="1628,436.2 912.5,436.2 912.5,444.1 1628,444.1 1628,436.2 	"/>
	<polygon class="st5" points="1628,134.3 912.5,134.3 912.5,142.1 1628,142.1 1628,134.3 	"/>
	<polygon class="st5" points="1628,240.8 912.5,240.8 912.5,248.7 1628,248.7 1628,240.8 	"/>
	<polygon class="st5" points="1628,347.4 912.5,347.4 912.5,355.3 1628,355.3 1628,347.4 	"/>
	<polygon class="st5" points="1628,454 912.5,454 912.5,461.8 1628,461.8 1628,454 	"/>
	<polygon class="st5" points="1005.2,31.4 1005.2,464.2 1009.6,464.2 1009.6,31.4 1005.2,31.4 	"/>
	<polygon class="st5" points="1530.9,31.9 1530.9,464.6 1535.4,464.6 1535.4,31.9 1530.9,31.9 	"/>
	<path class="st7" d="M427.6,472.7c-0.7-0.3-1.4-1.6-1.8-2.1c-1.7-2.1-3.1-4.4-4.4-6.6c-5.4-8.8-9.4-17.9-12.2-27.6
		c-1-3.5-2-7.1-2.3-10.8c-0.1-0.9,0-1.7,0-2.6c0-0.1,0.1-0.8-0.1-0.8c0,0-0.2,0.8-0.2,0.9c-0.2,1-0.3,2-0.5,3c-0.7,4.5-0.8,9-1,13.5
		c-0.3,10,0.3,20.6,5.1,29.8c1.1,2.2,2.5,4.2,4.3,6c0.5,0.5,1.4,1.4,2.2,1.6c0.2,0,1.1-0.8,1.3-0.9c1.4-0.6,2.8-1,4.3-1.5"/>
	<path class="st7" d="M422.9,466.7c0.5-0.6,0.9-2,1.2-2.7c0.9-2.2,1.7-4.5,2.4-6.8c2.8-8,5.1-16.1,6.7-24.5c0.5-2.7,0.8-5.4,1.2-8.1
		c0.1-0.6,0.2-1.2,0.3-1.9c0-0.1,0.1-0.5,0.1-0.6c-0.1,0,0,0.2,0,0.2c0,0.2,0,0.3,0,0.5c0.1,0.4,0.1,0.9,0.2,1.3
		c0.2,1.4,0.3,2.7,0.4,4.1c0.4,4.2,0.8,8.3,1,12.5c0.3,8.2-1,16.4-3.8,24.2c-0.7,1.9-1.4,3.8-2.3,5.5c-0.2,0.4-0.6,1.4-1.1,1.5
		c-0.5,0.1-1.2-1.1-1.5-1.5c-1.3-1.4-2.6-2.8-4.1-3.9"/>
	<path class="st7" d="M446.2,474.4c0.3,0.3,1.8-2.3,1.8-2.4c1.5-2.8,2.5-5.9,3.2-9c1.5-6.3,2.4-12.9,2.3-19.4c0-1.6-0.1-3.2-0.4-4.7
		c0-0.2-0.1-1.3-0.2-1.4c0,0-0.1,0.6-0.1,0.6c-0.1,0.5-0.2,0.9-0.3,1.3c-0.3,1.4-0.8,2.7-1.4,4c-1.7,3.9-3.9,7.8-6,11.5
		c-3.5,6.2-7.6,12.1-12.4,17.6c-1.3,1.5-2.6,2.9-3.8,4.4c-0.3,0.3-1.2,1.1-1,1.6c0.3,0.8,4-0.3,4.5-0.4c4.8-1.2,9.7-2.3,14.4-3.6"/>
	<path class="st8" d="M416.3,475c-0.5,0-1.2-0.9-1.5-1.1c-1.4-1.2-2.7-2.6-3.9-3.9c-5.4-6-9.5-12.9-12.7-20c-1-2.3-1.9-4.6-2.7-6.9
		c-0.3-0.9-0.6-1.8-1-2.6c0-0.1-0.3-0.8-0.4-0.7c-0.2,0.1-0.1,0.6-0.1,0.7c0,0.7,0,1.3,0,2c0,2.9,0.3,5.8,0.7,8.7
		c0.9,7.8,2.2,16.6,7.3,23.2c1.7,2.1,5.7,5.7,9,4.2c0.1,0,0.2-0.2,0.1-0.2c-0.2,0-0.6,0.1-0.5,0c0.2-0.2,0.8-0.4,1-0.6
		c0.7-0.5,1.5-1,2.2-1.5"/>
	<path class="st8" d="M438.2,475.7c-0.1,0.1,0.1-0.3,0.2-0.4c0.2-0.3,0.3-0.5,0.5-0.8c0.4-0.8,0.8-1.7,1.2-2.6
		c1-2.6,1.8-5.3,2.4-8.1c1.9-8.7,1.5-17.9,1.7-26.8c0-2.1,0-4.2,0.2-6.3c0-0.1,0.3-1.9,0.2-1.9c0,0-0.2,0.5-0.2,0.6
		c-0.2,0.6-0.4,1.3-0.5,1.9c-0.4,1.6-0.8,3.2-1.2,4.8c-1.2,4.8-2.7,9.6-4.5,14.3c-2.7,7.2-6.4,14.1-11,20.4c-1.5,2-3.1,3.9-4.6,5.8
		c-0.3,0.4-1.6,1.5-1.5,2.1c0,0.3,2.3-0.4,2.5-0.4c2.9-0.7,5.7-1.5,8.6-2.1c0.9-0.2,1.7-0.3,2.5-0.6c0.3-0.1,0.6-0.2,0.8-0.3
		c0.1,0,0.5-0.2,0.4-0.1"/>
	<path class="st8" d="M428.4,473.5c-0.6-0.9-0.7-2.6-0.9-3.6c-0.6-2.9-1.1-5.9-1.5-8.8c-1.7-10.4-2.6-20.8-2.4-31.3
		c0.1-3.4,0.4-6.7,0.6-10.1c0.1-0.8,0.1-1.6,0.1-2.3c0-0.1,0-0.7,0.1-0.7c0.1,0-0.1,0.2-0.1,0.3c-0.1,0.2-0.1,0.4-0.2,0.5
		c-0.2,0.5-0.4,1.1-0.7,1.6c-0.7,1.6-1.2,3.3-1.8,4.9c-1.8,5-3.8,10-5.3,15.1c-3,10-3.6,20.2-1.8,30.4c0.4,2.4,0.9,4.9,1.7,7.2
		c0.2,0.5,0.5,1.9,1.2,2c0.8,0.2,2.1-1.1,2.7-1.5c2.3-1.4,4.6-2.9,7.2-3.9"/>
	<path class="st9" d="M452.6,472.9c0.3-0.7-0.1-1.5-0.9-2.1c-0.9-0.6-3.7-0.9-3.7-0.9h-48.3c0,0-2.8,0.3-3.7,0.9
		c-0.9,0.6-1.2,1.4-1,2.1c3.5,8.9,9.2,34.5,9.2,34.5c2.3,6.6,35.5,7.3,38.9,0C443.2,507.4,449.1,481.8,452.6,472.9L452.6,472.9z"/>
	<g>
		<defs>
			<path id="SVGID_00000166675474134237427600000001910955047890327188_" d="M452.6,472.9c0.3-0.7-0.1-1.5-0.9-2.1
				c-0.9-0.6-3.7-0.9-3.7-0.9h-48.3c0,0-2.8,0.3-3.7,0.9c-0.9,0.6-1.2,1.4-1,2.1c3.5,8.9,9.2,34.5,9.2,34.5c2.3,6.6,35.5,7.3,38.9,0
				C443.2,507.4,449.1,481.8,452.6,472.9L452.6,472.9z"/>
		</defs>
		<clipPath id="SVGID_00000030467212630445922850000003330983341819871629_">
			<use xlink:href="#SVGID_00000166675474134237427600000001910955047890327188_"  style="overflow:visible;"/>
		</clipPath>
		
			<path style="clip-path:url(#SVGID_00000030467212630445922850000003330983341819871629_);fill-rule:evenodd;clip-rule:evenodd;fill:#38374D;" d="
			M415.4,469.3c2.3,7.9,0,18.6,3.2,27.4c2.9,7.8,20.8,28.7,20.6,29.9c-0.4,3.7-8.4,1.5-10.5,1.1c-11.1-1.9-22.3-5-31.3-11.4
			c-17.5-12.3-17.1-35.6-15.6-53.7c0.8-9.7,2.9-37,19.8-34.6"/>
	</g>
	<path class="st11" d="M855.7,919.4c472.3,0,855.7,8.3,855.7,18.6c0,10.3-383.4,18.6-855.7,18.6S0,948.3,0,938
		C0,927.7,383.4,919.4,855.7,919.4L855.7,919.4z"/>
	<polygon class="st12" points="440,545.5 398.9,937.8 413.3,938 469,545.5 440,545.5 	"/>
	<polygon class="st12" points="335.8,528.1 294.7,937.8 309.1,938 364.8,528.1 335.8,528.1 	"/>
	<polygon class="st12" points="766.3,540.4 815.4,937.8 798.2,938 731.7,540.4 766.3,540.4 	"/>
	<polygon class="st12" points="884.1,540.4 933.2,937.8 916,938 849.5,540.4 884.1,540.4 	"/>
	<path class="st12" d="M900.2,523H338.3c0,0,0,0,0,0c0,6.5,2.6,12.8,7.2,17.4c4.6,4.6,10.9,7.2,17.4,7.2c92.7,0,419.8,0,512.6,0
		c6.5,0,12.8-2.6,17.4-7.2C897.6,535.9,900.2,529.6,900.2,523C900.2,523,900.2,523,900.2,523L900.2,523z"/>
	<polygon class="st13" points="540.2,504.5 371.1,504.5 371.1,516.9 540.2,516.9 540.2,504.5 	"/>
	<path class="st14" d="M933.2,510.7h-628l0,0c0,6.5,2.6,12.8,7.2,17.4c4.6,4.6,10.9,7.2,17.4,7.2c100.5,0,478.2,0,578.6,0
		c6.5,0,12.8-2.6,17.4-7.2C930.6,523.5,933.2,517.3,933.2,510.7L933.2,510.7L933.2,510.7z"/>
	<path class="st15" d="M687.5,462.6l-80.8,1.6c0,0,15.7,32.2-2,38.9l80.9,2c0,0,17.8-21.1,2.7-38.8L687.5,462.6L687.5,462.6z"/>
	<path class="st16" d="M685.8,461.9l-80.8,1.6c0,0,15.7,32.2-2,38.9l80.9,2c0,0,17.8-21.1,2.7-38.8L685.8,461.9L685.8,461.9z"/>
	<path class="st15" d="M775.2,244c0,0,1.8,1.6,3.6,3.2c2.3,2,3.5,4.9,3.4,8c-1.1,27.8-6.8,168.2-8.3,205.2c-0.2,5-4.4,8.9-9.3,8.8
		c-31.3-0.8-133.4-3.2-133.4-3.2L775.2,244L775.2,244z"/>
	<path class="st17" d="M510.8,267.3c0.3-6.3,5.3-11.4,11.6-11.7c43.6-2.4,202.6-11.2,245.7-13.5c2.8-0.2,5.5,0.9,7.5,2.8
		c2,1.9,3.1,4.6,2.9,7.4c-1.4,37.9-6.3,164.2-7.8,204.3c-0.3,6.9-5.9,12.4-12.8,12.5c-43.3,0.6-188.3,2.8-239.2,3.5
		c-4.6,0.1-9.1-1.8-12.3-5.1c-3.2-3.3-4.9-7.9-4.7-12.5C503.8,411.7,509.1,302.4,510.8,267.3L510.8,267.3z"/>
	<g>
		<defs>
			<path id="SVGID_00000178909999556499908830000000070507397161153671_" d="M510.8,267.3c0.3-6.3,5.3-11.4,11.6-11.7
				c43.6-2.4,202.6-11.2,245.7-13.5c2.8-0.2,5.5,0.9,7.5,2.8c2,1.9,3.1,4.6,2.9,7.4c-1.4,37.9-6.3,164.2-7.8,204.3
				c-0.3,6.9-5.9,12.4-12.8,12.5c-43.3,0.6-188.3,2.8-239.2,3.5c-4.6,0.1-9.1-1.8-12.3-5.1c-3.2-3.3-4.9-7.9-4.7-12.5
				C503.8,411.7,509.1,302.4,510.8,267.3L510.8,267.3z"/>
		</defs>
		<clipPath id="SVGID_00000093861271263860153030000015628311648538338197_">
			<use xlink:href="#SVGID_00000178909999556499908830000000070507397161153671_"  style="overflow:visible;"/>
		</clipPath>
		
			<polygon style="clip-path:url(#SVGID_00000093861271263860153030000015628311648538338197_);fill-rule:evenodd;clip-rule:evenodd;fill:#333333;" points="
			785.2,228.2 502.6,225.6 501.6,454.3 785.2,452.5 785.2,228.2 		"/>
		
			<path style="clip-path:url(#SVGID_00000093861271263860153030000015628311648538338197_);fill-rule:evenodd;clip-rule:evenodd;fill:#333333;" d="
			M636.5,455.9c2.3,0,4.1,2.2,4.1,4.9c0,2.7-1.8,4.9-4.1,4.9c-2.3,0-4.1-2.2-4.1-4.9C632.4,458.1,634.2,455.9,636.5,455.9
			L636.5,455.9z"/>
	</g>
	<polygon class="st19" points="770.6,252.4 763,445 511,446.6 517.4,263.4 770.6,252.4 	"/>
	<g>
		<defs>
			<polygon id="SVGID_00000155144419541072825940000007771439325554696109_" points="770.6,252.4 763,445 511,446.6 517.4,263.4 
				770.6,252.4 			"/>
		</defs>
		<clipPath id="SVGID_00000140009456383854117920000001126118309137996218_">
			<use xlink:href="#SVGID_00000155144419541072825940000007771439325554696109_"  style="overflow:visible;"/>
		</clipPath>
		
			<polygon style="clip-path:url(#SVGID_00000140009456383854117920000001126118309137996218_);fill-rule:evenodd;clip-rule:evenodd;fill:#556982;" points="
			777.7,251.8 633.8,251.8 624.9,445 768.8,445 777.7,251.8 		"/>
		
			<polygon style="clip-path:url(#SVGID_00000140009456383854117920000001126118309137996218_);fill-rule:evenodd;clip-rule:evenodd;fill:#B5C0CF;" points="
			625.8,247 515.1,247 505.8,448.6 616.5,448.6 625.8,247 		"/>
		
			<polygon style="clip-path:url(#SVGID_00000140009456383854117920000001126118309137996218_);fill-rule:evenodd;clip-rule:evenodd;fill:#9BAABD;" points="
			598.8,267 535.8,267 532.7,334.6 595.7,334.6 598.8,267 		"/>
		
			<polygon style="clip-path:url(#SVGID_00000140009456383854117920000001126118309137996218_);fill-rule:evenodd;clip-rule:evenodd;fill:#9BAABD;" points="
			591.8,359.6 528.8,359.6 525.7,427.1 588.7,427.1 591.8,359.6 		"/>
		
			<polygon style="clip-path:url(#SVGID_00000140009456383854117920000001126118309137996218_);fill-rule:evenodd;clip-rule:evenodd;fill:#B0B9EA;" points="
			782.9,247 633.8,247 633.8,264.1 781.4,259.5 782.9,247 		"/>
		
			<polygon style="clip-path:url(#SVGID_00000140009456383854117920000001126118309137996218_);fill-rule:evenodd;clip-rule:evenodd;fill:#7288A3;" points="
			564.8,288.5 541.7,288.5 541.6,290.5 564.7,290.5 564.8,288.5 		"/>
		
			<polygon style="clip-path:url(#SVGID_00000140009456383854117920000001126118309137996218_);fill-rule:evenodd;clip-rule:evenodd;fill:#7288A3;" points="
			569.1,383.3 536,383.3 535.9,385.3 569,385.3 569.1,383.3 		"/>
		
			<polygon style="clip-path:url(#SVGID_00000140009456383854117920000001126118309137996218_);fill-rule:evenodd;clip-rule:evenodd;fill:#7288A3;" points="
			582.4,293.8 541.7,293.8 541.6,295.8 582.3,295.8 582.4,293.8 		"/>
		
			<polygon style="clip-path:url(#SVGID_00000140009456383854117920000001126118309137996218_);fill-rule:evenodd;clip-rule:evenodd;fill:#7288A3;" points="
			562,388.6 536,388.6 535.9,390.6 561.9,390.6 562,388.6 		"/>
		
			<polygon style="clip-path:url(#SVGID_00000140009456383854117920000001126118309137996218_);fill-rule:evenodd;clip-rule:evenodd;fill:#7288A3;" points="
			576.7,299.6 541.7,299.6 541.6,301.5 576.6,301.5 576.7,299.6 		"/>
		
			<polygon style="clip-path:url(#SVGID_00000140009456383854117920000001126118309137996218_);fill-rule:evenodd;clip-rule:evenodd;fill:#7288A3;" points="
			578,394.4 536,394.4 535.9,396.3 577.8,396.3 578,394.4 		"/>
		
			<polygon style="clip-path:url(#SVGID_00000140009456383854117920000001126118309137996218_);fill-rule:evenodd;clip-rule:evenodd;fill:#7288A3;" points="
			565.5,305.4 541.7,305.4 541.6,307.3 565.4,307.3 565.5,305.4 		"/>
		
			<polygon style="clip-path:url(#SVGID_00000140009456383854117920000001126118309137996218_);fill-rule:evenodd;clip-rule:evenodd;fill:#7288A3;" points="
			559.9,400.2 536,400.2 535.9,402.1 559.8,402.1 559.9,400.2 		"/>
		
			<polygon style="clip-path:url(#SVGID_00000140009456383854117920000001126118309137996218_);fill-rule:evenodd;clip-rule:evenodd;fill:#7288A3;" points="
			570.7,311.1 541.7,311.1 541.6,313.1 570.6,313.1 570.7,311.1 		"/>
		
			<polygon style="clip-path:url(#SVGID_00000140009456383854117920000001126118309137996218_);fill-rule:evenodd;clip-rule:evenodd;fill:#7288A3;" points="
			548,405.9 536,405.9 535.9,407.9 547.9,407.9 548,405.9 		"/>
		
			<polygon style="clip-path:url(#SVGID_00000140009456383854117920000001126118309137996218_);fill-rule:evenodd;clip-rule:evenodd;fill:#7288A3;" points="
			672.7,283.8 655.7,283.8 655.5,287.2 672.6,287.2 672.7,283.8 		"/>
		
			<polygon style="clip-path:url(#SVGID_00000140009456383854117920000001126118309137996218_);fill-rule:evenodd;clip-rule:evenodd;fill:#7288A3;" points="
			670.9,319.4 653.9,319.4 653.7,322.8 670.7,322.8 670.9,319.4 		"/>
		
			<polygon style="clip-path:url(#SVGID_00000140009456383854117920000001126118309137996218_);fill-rule:evenodd;clip-rule:evenodd;fill:#7288A3;" points="
			669.5,365.2 652.5,365.2 652.3,368.6 669.3,368.6 669.5,365.2 		"/>
		
			<polygon style="clip-path:url(#SVGID_00000140009456383854117920000001126118309137996218_);fill-rule:evenodd;clip-rule:evenodd;fill:#7288A3;" points="
			668.7,406.3 651.7,406.3 651.5,409.7 668.5,409.7 668.7,406.3 		"/>
		
			<polygon style="clip-path:url(#SVGID_00000140009456383854117920000001126118309137996218_);fill-rule:evenodd;clip-rule:evenodd;fill:#7288A3;" points="
			716.6,283.8 681.4,283.8 681.2,287.2 716.4,287.2 716.6,283.8 		"/>
		
			<polygon style="clip-path:url(#SVGID_00000140009456383854117920000001126118309137996218_);fill-rule:evenodd;clip-rule:evenodd;fill:#7288A3;" points="
			715.8,320.2 680.5,320.2 680.3,323.6 715.6,323.6 715.8,320.2 		"/>
		
			<polygon style="clip-path:url(#SVGID_00000140009456383854117920000001126118309137996218_);fill-rule:evenodd;clip-rule:evenodd;fill:#7288A3;" points="
			714,365.2 678.7,365.2 678.5,368.6 713.8,368.6 714,365.2 		"/>
		
			<polygon style="clip-path:url(#SVGID_00000140009456383854117920000001126118309137996218_);fill-rule:evenodd;clip-rule:evenodd;fill:#7288A3;" points="
			713.4,406.1 678.2,406.1 678,409.4 713.2,409.4 713.4,406.1 		"/>
		
			<polygon style="clip-path:url(#SVGID_00000140009456383854117920000001126118309137996218_);fill-rule:evenodd;clip-rule:evenodd;fill:#7288A3;" points="
			747.8,283.8 728.5,283.8 728.3,287.2 747.6,287.2 747.8,283.8 		"/>
		
			<polygon style="clip-path:url(#SVGID_00000140009456383854117920000001126118309137996218_);fill-rule:evenodd;clip-rule:evenodd;fill:#429D9F;" points="
			747,320.2 727.6,320.2 727.4,323.6 746.8,323.6 747,320.2 		"/>
		
			<polygon style="clip-path:url(#SVGID_00000140009456383854117920000001126118309137996218_);fill-rule:evenodd;clip-rule:evenodd;fill:#429D9F;" points="
			745.2,365.2 725.8,365.2 725.6,368.6 745,368.6 745.2,365.2 		"/>
		
			<polygon style="clip-path:url(#SVGID_00000140009456383854117920000001126118309137996218_);fill-rule:evenodd;clip-rule:evenodd;fill:#429D9F;" points="
			691.1,292.4 655.2,292.4 655,295.8 690.9,295.8 691.1,292.4 		"/>
		
			<polygon style="clip-path:url(#SVGID_00000140009456383854117920000001126118309137996218_);fill-rule:evenodd;clip-rule:evenodd;fill:#429D9F;" points="
			689.8,328.8 653.9,328.8 653.7,332.2 689.6,332.2 689.8,328.8 		"/>
		
			<polygon style="clip-path:url(#SVGID_00000140009456383854117920000001126118309137996218_);fill-rule:evenodd;clip-rule:evenodd;fill:#429D9F;" points="
			687.6,373.8 651.7,373.8 651.5,377.2 687.4,377.2 687.6,373.8 		"/>
		
			<polygon style="clip-path:url(#SVGID_00000140009456383854117920000001126118309137996218_);fill-rule:evenodd;clip-rule:evenodd;fill:#429D9F;" points="
			687.3,414.7 651.4,414.7 651.2,418.1 687.1,418.1 687.3,414.7 		"/>
		
			<polygon style="clip-path:url(#SVGID_00000140009456383854117920000001126118309137996218_);fill-rule:evenodd;clip-rule:evenodd;fill:#EBB23C;" points="
			748,293.2 724.4,293.2 724.2,296.6 747.8,296.6 748,293.2 		"/>
		
			<polygon style="clip-path:url(#SVGID_00000140009456383854117920000001126118309137996218_);fill-rule:evenodd;clip-rule:evenodd;fill:#EBB23C;" points="
			747.2,329.6 723.5,329.6 723.3,332.9 747,332.9 747.2,329.6 		"/>
		
			<polygon style="clip-path:url(#SVGID_00000140009456383854117920000001126118309137996218_);fill-rule:evenodd;clip-rule:evenodd;fill:#EBB23C;" points="
			745.4,374.6 721.7,374.6 721.5,378 745.2,378 745.4,374.6 		"/>
		
			<polygon style="clip-path:url(#SVGID_00000140009456383854117920000001126118309137996218_);fill-rule:evenodd;clip-rule:evenodd;fill:#EBB23C;" points="
			744.8,415.5 721.2,415.5 721,418.8 744.6,418.8 744.8,415.5 		"/>
		
			<polygon style="clip-path:url(#SVGID_00000140009456383854117920000001126118309137996218_);fill-rule:evenodd;clip-rule:evenodd;fill:#429D9F;" points="
			747.3,301.1 704.6,301.1 704.4,304.4 747.1,304.4 747.3,301.1 		"/>
		
			<polygon style="clip-path:url(#SVGID_00000140009456383854117920000001126118309137996218_);fill-rule:evenodd;clip-rule:evenodd;fill:#DE7C7B;" points="
			667.2,301.1 654.7,301.1 654.5,304.4 667,304.4 667.2,301.1 		"/>
		
			<polygon style="clip-path:url(#SVGID_00000140009456383854117920000001126118309137996218_);fill-rule:evenodd;clip-rule:evenodd;fill:#DE7C7B;" points="
			665.7,337.4 653.3,337.4 653.1,340.8 665.5,340.8 665.7,337.4 		"/>
		
			<polygon style="clip-path:url(#SVGID_00000140009456383854117920000001126118309137996218_);fill-rule:evenodd;clip-rule:evenodd;fill:#DE7C7B;" points="
			747.5,309.7 735.1,309.7 734.9,313.1 747.3,313.1 747.5,309.7 		"/>
		
			<polygon style="clip-path:url(#SVGID_00000140009456383854117920000001126118309137996218_);fill-rule:evenodd;clip-rule:evenodd;fill:#DE7C7B;" points="
			750.2,274.4 737.8,274.4 737.6,277.8 750,277.8 750.2,274.4 		"/>
		
			<polygon style="clip-path:url(#SVGID_00000140009456383854117920000001126118309137996218_);fill-rule:evenodd;clip-rule:evenodd;fill:#DE7C7B;" points="
			745.7,354.7 733.3,354.7 733.1,358.1 745.5,358.1 745.7,354.7 		"/>
		
			<polygon style="clip-path:url(#SVGID_00000140009456383854117920000001126118309137996218_);fill-rule:evenodd;clip-rule:evenodd;fill:#DE7C7B;" points="
			745.2,395.6 732.7,395.6 732.6,399 745,399 745.2,395.6 		"/>
		
			<polygon style="clip-path:url(#SVGID_00000140009456383854117920000001126118309137996218_);fill-rule:evenodd;clip-rule:evenodd;fill:#7288A3;" points="
			679.2,309.7 654.1,309.7 653.9,313.1 679,313.1 679.2,309.7 		"/>
		
			<polygon style="clip-path:url(#SVGID_00000140009456383854117920000001126118309137996218_);fill-rule:evenodd;clip-rule:evenodd;fill:#7288A3;" points="
			681.2,274.4 656.1,274.4 655.9,277.8 681,277.8 681.2,274.4 		"/>
		
			<polygon style="clip-path:url(#SVGID_00000140009456383854117920000001126118309137996218_);fill-rule:evenodd;clip-rule:evenodd;fill:#4C5E74;" points="
			640.7,274.4 635.8,274.4 635.6,277.8 640.5,277.8 640.7,274.4 		"/>
		
			<polygon style="clip-path:url(#SVGID_00000140009456383854117920000001126118309137996218_);fill-rule:evenodd;clip-rule:evenodd;fill:#4C5E74;" points="
			640.7,283.8 635.8,283.8 635.6,287.2 640.5,287.2 640.7,283.8 		"/>
		
			<polygon style="clip-path:url(#SVGID_00000140009456383854117920000001126118309137996218_);fill-rule:evenodd;clip-rule:evenodd;fill:#4C5E74;" points="
			640.4,292.4 635.5,292.4 635.3,295.8 640.2,295.8 640.4,292.4 		"/>
		
			<polygon style="clip-path:url(#SVGID_00000140009456383854117920000001126118309137996218_);fill-rule:evenodd;clip-rule:evenodd;fill:#4C5E74;" points="
			639.8,301.1 634.8,301.1 634.6,304.4 639.6,304.4 639.8,301.1 		"/>
		
			<polygon style="clip-path:url(#SVGID_00000140009456383854117920000001126118309137996218_);fill-rule:evenodd;clip-rule:evenodd;fill:#4C5E74;" points="
			639.2,309.7 634.3,309.7 634.1,313.1 639,313.1 639.2,309.7 		"/>
		
			<polygon style="clip-path:url(#SVGID_00000140009456383854117920000001126118309137996218_);fill-rule:evenodd;clip-rule:evenodd;fill:#4C5E74;" points="
			638.9,319.4 634,319.4 633.8,322.8 638.7,322.8 638.9,319.4 		"/>
		
			<polygon style="clip-path:url(#SVGID_00000140009456383854117920000001126118309137996218_);fill-rule:evenodd;clip-rule:evenodd;fill:#4C5E74;" points="
			638.6,328.6 633.7,328.6 633.5,332 638.4,332 638.6,328.6 		"/>
		
			<polygon style="clip-path:url(#SVGID_00000140009456383854117920000001126118309137996218_);fill-rule:evenodd;clip-rule:evenodd;fill:#4C5E74;" points="
			638.3,337.4 633.3,337.4 633.1,340.8 638.1,340.8 638.3,337.4 		"/>
		
			<polygon style="clip-path:url(#SVGID_00000140009456383854117920000001126118309137996218_);fill-rule:evenodd;clip-rule:evenodd;fill:#4C5E74;" points="
			638.1,346 633.2,346 633,349.3 637.9,349.3 638.1,346 		"/>
		
			<polygon style="clip-path:url(#SVGID_00000140009456383854117920000001126118309137996218_);fill-rule:evenodd;clip-rule:evenodd;fill:#4C5E74;" points="
			638,353.7 633.1,353.7 632.9,357.1 637.8,357.1 638,353.7 		"/>
		
			<polygon style="clip-path:url(#SVGID_00000140009456383854117920000001126118309137996218_);fill-rule:evenodd;clip-rule:evenodd;fill:#4C5E74;" points="
			637.6,364.9 632.7,364.9 632.5,368.3 637.4,368.3 637.6,364.9 		"/>
		
			<polygon style="clip-path:url(#SVGID_00000140009456383854117920000001126118309137996218_);fill-rule:evenodd;clip-rule:evenodd;fill:#4C5E74;" points="
			637.4,373.6 632.5,373.6 632.3,377 637.2,377 637.4,373.6 		"/>
		
			<polygon style="clip-path:url(#SVGID_00000140009456383854117920000001126118309137996218_);fill-rule:evenodd;clip-rule:evenodd;fill:#4C5E74;" points="
			637.3,387.5 632.4,387.5 632.2,390.9 637.1,390.9 637.3,387.5 		"/>
		
			<polygon style="clip-path:url(#SVGID_00000140009456383854117920000001126118309137996218_);fill-rule:evenodd;clip-rule:evenodd;fill:#4C5E74;" points="
			637,395.9 632.1,395.9 631.9,399.2 636.8,399.2 637,395.9 		"/>
		
			<polygon style="clip-path:url(#SVGID_00000140009456383854117920000001126118309137996218_);fill-rule:evenodd;clip-rule:evenodd;fill:#4C5E74;" points="
			636.6,406 631.7,406 631.5,409.4 636.4,409.4 636.6,406 		"/>
		
			<polygon style="clip-path:url(#SVGID_00000140009456383854117920000001126118309137996218_);fill-rule:evenodd;clip-rule:evenodd;fill:#4C5E74;" points="
			636.4,415.3 631.4,415.3 631.2,418.7 636.2,418.7 636.4,415.3 		"/>
		
			<polygon style="clip-path:url(#SVGID_00000140009456383854117920000001126118309137996218_);fill-rule:evenodd;clip-rule:evenodd;fill:#429D9F;" points="
			678.3,346.1 653.3,346.1 653.1,349.4 678.1,349.4 678.3,346.1 		"/>
		
			<polygon style="clip-path:url(#SVGID_00000140009456383854117920000001126118309137996218_);fill-rule:evenodd;clip-rule:evenodd;fill:#429D9F;" points="
			676.8,387.2 651.7,387.2 651.5,390.6 676.6,390.6 676.8,387.2 		"/>
		
			<polygon style="clip-path:url(#SVGID_00000140009456383854117920000001126118309137996218_);fill-rule:evenodd;clip-rule:evenodd;fill:#7288A3;" points="
			726.6,309.7 687.7,309.7 687.5,313.1 726.4,313.1 726.6,309.7 		"/>
		
			<polygon style="clip-path:url(#SVGID_00000140009456383854117920000001126118309137996218_);fill-rule:evenodd;clip-rule:evenodd;fill:#7288A3;" points="
			729.3,274.4 690.3,274.4 690.2,277.8 729.1,277.8 729.3,274.4 		"/>
		
			<polygon style="clip-path:url(#SVGID_00000140009456383854117920000001126118309137996218_);fill-rule:evenodd;clip-rule:evenodd;fill:#7288A3;" points="
			724.8,354.7 685.9,354.7 685.7,358.1 724.6,358.1 724.8,354.7 		"/>
		
			<polygon style="clip-path:url(#SVGID_00000140009456383854117920000001126118309137996218_);fill-rule:evenodd;clip-rule:evenodd;fill:#7288A3;" points="
			724.3,395.6 685.3,395.6 685.1,399 724.1,399 724.3,395.6 		"/>
		
			<polygon style="clip-path:url(#SVGID_00000140009456383854117920000001126118309137996218_);fill-rule:evenodd;clip-rule:evenodd;fill:#7288A3;" points="
			725.8,346.1 686.8,346.1 686.6,349.4 725.6,349.4 725.8,346.1 		"/>
		
			<polygon style="clip-path:url(#SVGID_00000140009456383854117920000001126118309137996218_);fill-rule:evenodd;clip-rule:evenodd;fill:#7288A3;" points="
			725.2,387 686.3,387 686.1,390.3 725,390.3 725.2,387 		"/>
	</g>
	<polygon class="st29" points="706.7,500.7 584.9,500.7 584.9,510.9 706.7,510.9 706.7,500.7 	"/>
	<path class="st30" d="M270.4,682.7c0,78.7,0,157.4,0,236.1c0,5.6,2.5,10.1,5.5,10.1c3.1,0,5.5-4.5,5.5-10.1c0-78.7,0-157.4,0-236.1
		c0-5.6-2.5-10.1-5.5-10.1C272.9,672.6,270.4,677.1,270.4,682.7L270.4,682.7z"/>
	<path class="st31" d="M423.3,655.5c12.8-25.8-224.6-160.6-263.5-158.7c-34.1,1.6-36.4,23.6-26.8,76.4c9.6,52.8,42,96.1,87,124.4
		c44.9,28.3,92.5,34.4,139.4,15.1C390.1,699.9,412.3,677.6,423.3,655.5L423.3,655.5z"/>
	<g>
		<defs>
			<path id="SVGID_00000010286888495793656120000017004090166635947652_" d="M423.3,655.5c12.8-25.8-224.6-160.6-263.5-158.7
				c-34.1,1.6-36.4,23.6-26.8,76.4c9.6,52.8,42,96.1,87,124.4c44.9,28.3,92.5,34.4,139.4,15.1C390.1,699.9,412.3,677.6,423.3,655.5
				L423.3,655.5z"/>
		</defs>
		<clipPath id="SVGID_00000100344555968571950530000002351937132201281948_">
			<use xlink:href="#SVGID_00000010286888495793656120000017004090166635947652_"  style="overflow:visible;"/>
		</clipPath>
		
			<path style="clip-path:url(#SVGID_00000100344555968571950530000002351937132201281948_);fill-rule:evenodd;clip-rule:evenodd;fill:#292A2A;" d="
			M131.4,511.8c0,0-6.1,95.6,89.2,154.3c55.6,34.2,112.2-10.7,168.8-23.2c23.8-5.2,34.8,2.5,34.1,11.4
			c0.6,72.2-211.3,136.2-260.2,37.7C114.9,638.7,117.3,539.8,131.4,511.8L131.4,511.8z"/>
	</g>
	<path class="st30" d="M366.1,938c0-19-15.4-34.4-34.4-34.4c-32.1,0-79.6,0-111.7,0c-19,0-34.4,15.4-34.4,34.4c0,0,0,0,0,0
		L366.1,938C366.1,938,366.1,938,366.1,938L366.1,938z"/>
	<path class="st33" d="M331.5,482.1c0,0,128.8,22.8,157.7,11.5l2.3,13.3c0,0-128.5,25.8-157.9,16
		C333.7,522.9,327.3,497.5,331.5,482.1L331.5,482.1z"/>
	<path class="st34" d="M338.1,530.8c-23.3-4.3-96.4-136-81.2-178.4c14.2-39.8,56.3-31.3,77.5,33c21.2,64.4,19.7,75.3,31.2,103.5
		C366.2,502.9,353.5,526.7,338.1,530.8L338.1,530.8z"/>
	<path class="st33" d="M487,494.5c0,0,29.5-12.7,40.7-9.3c0,0,8.3,2.9,4.6,6.5c0,0,4,6.4,1.3,10.5c-2.6,4-2.3,9-5.6,9.9
		c-2.4,0.7-10-3.9-15.1-4.1c-12.9-0.5-27.4,1.4-30.8-2.3L487,494.5L487,494.5z"/>
	<polygon class="st13" points="563.8,499.9 394.7,499.9 394.7,512.3 563.8,512.3 563.8,499.9 	"/>
	<path class="st35" d="M226.6,661.7l24.4-89.4c0,0,64.4,9.8,170.3,25.2c57.5,8.3,119.5,16.5,149.1,30.2c8.3,3.8-1.9,37.8-11,44
		C546.8,680.5,295.5,732.6,226.6,661.7L226.6,661.7z"/>
	<path class="st35" d="M558.5,672.7c-6,47.2-101.8,216.7-101.8,216.7c-13.4,9.6-23.2,16.7-27.1-3c0,0,41.4-190,78-247.6
		C507.6,638.9,559.9,661.7,558.5,672.7L558.5,672.7z"/>
	<path class="st36" d="M429.5,886.5c0,0-4.5,32.3,1.9,51.5l96.6-2.6c0,0-12.3-12.1-41.8-18.2c-29.5-6.1-29.6-29-29.6-29
		C449.4,894.5,436.9,893.3,429.5,886.5L429.5,886.5z"/>
	<path class="st12" d="M217.7,617.3l26.6-43.2c0,0,64.7,4.5,171.3,14.8c57.8,5.6,120.1,10.8,150.4,23c8.5,3.4-0.1,37.9-8.8,44.5
		c-4.9,3.7-63.8,17.4-134.1,26.7C317.9,697,209.9,709.3,217.7,617.3L217.7,617.3z"/>
	<path class="st12" d="M569.6,619.4c17.1,44.4,12.7,263.9,12.7,263.9c-7.3,14.8-14.8,17.3-27.5,1.9c0,0-51.4-179.3-46.5-247.3
		C508.3,637.9,565.6,609,569.6,619.4L569.6,619.4z"/>
	<path class="st37" d="M215.9,345.2c0,0,10.1-15.1,39.2-24.4c6.1-1.9,13.3-3.2,21-3.7c13.5-0.8,36.8,9.3,45.2,19.5
		c25.9,31.5,24,45.5,28.5,92.9c12.6,134.7,7,134.2,9.7,162c4.6,47-124.8,67.1-139.6,43.4c-14.4-23.1,3-72.6-0.1-130.2
		C214.3,403,199.6,372.7,215.9,345.2L215.9,345.2z"/>
	<path class="st38" d="M312.8,478.7c0,0,131.3,28.4,160.7,18.7l-2.2,14.4c0,0-129.7,19-158.5,7.8
		C312.9,519.6,307.8,493.9,312.8,478.7L312.8,478.7z"/>
	<path class="st34" d="M313.3,526.9c-23.6-1.1-112.4-121.3-103.2-165.2c8.7-41.3,49.7-29.8,75.8,22.6c30.2,60.7,33.7,71.2,49,97.5
		C337.4,495.5,328,520.8,313.3,526.9L313.3,526.9z"/>
	<g>
		<defs>
			<path id="SVGID_00000116196594378153820380000015258909331363822225_" d="M313.3,526.9c-23.6-1.1-112.4-121.3-103.2-165.2
				c8.7-41.3,49.7-29.8,75.8,22.6c30.2,60.7,33.7,71.2,49,97.5C337.4,495.5,328,520.8,313.3,526.9L313.3,526.9z"/>
		</defs>
		<clipPath id="SVGID_00000033330477009137507080000009852272407806015893_">
			<use xlink:href="#SVGID_00000116196594378153820380000015258909331363822225_"  style="overflow:visible;"/>
		</clipPath>
		
			<path style="clip-path:url(#SVGID_00000033330477009137507080000009852272407806015893_);fill-rule:evenodd;clip-rule:evenodd;fill:#7770BB;" d="
			M206.3,364.9c24.8,42.2,35.5,98.4,81,125.2c12.7,7.5,26.1,9.9,38.4,0.5c6.6-5,10.5-12.6,16.7-17.6c0.6-0.5,1.2-0.6,1.6,0.2
			c3.9,7.5,1.9,21.7,1.9,29.8c0,10.5,3.2,29.4-3.4,38.5c-11.7,16.1-58.5-10.7-69.3-18C223.5,490.1,223,419.6,206.3,364.9
			L206.3,364.9z"/>
	</g>
	<path class="st38" d="M465.8,500.9c0,0,28.4-19.1,39.9-17.5c0,0,8.7,1.6,5.6,5.8c0,0,4.1,1,1.5,4c0,0,7.3,2.2,3.7,5.3
		c-3.6,3.1-11.4,2-15.4,2.5c-6.3,0.8-20.6,9.3-29.9,10.9c-2.8,0.5-6.2-0.2-7.4-1.2L465.8,500.9L465.8,500.9z"/>
	<path class="st40" d="M319.1,234c0.7,1.6,1,3.4,1,5.2c-0.1,5.1,2.1,12.2-1.2,16c-0.7,0.8-1.7,1.9-1.9,1.8l-0.1,0l-53.7,39.5
		c0,0-1.7-1.1-1.8-1.2c-1.5-1.4-0.6-1-2.2-2.2c-4.2-3.2-11.4-15.5-12.5-35.5c-1-18.8,9.3-31.3,13.7-35.4c4.2-4,19-5.7,28.8-5.9
		C328.2,215.2,322.4,230.7,319.1,234L319.1,234z"/>
	<path class="st38" d="M277,303.1l-1.2,24.4c0,0-19.6,4-20.5-5.7l5-44.3L277,303.1L277,303.1z"/>
	<g>
		<defs>
			<path id="SVGID_00000004529300376844783690000005125347010282973332_" d="M277,303.1l-1.2,24.4c0,0-19.6,4-20.5-5.7l5-44.3
				L277,303.1L277,303.1z"/>
		</defs>
		<clipPath id="SVGID_00000163057322106935980670000001909328045954988218_">
			<use xlink:href="#SVGID_00000004529300376844783690000005125347010282973332_"  style="overflow:visible;"/>
		</clipPath>
		
			<path style="clip-path:url(#SVGID_00000163057322106935980670000001909328045954988218_);fill-rule:evenodd;clip-rule:evenodd;fill:#FD8145;" d="
			M255.5,285.7c0.4-0.3-0.3,0.8-0.3,1.2c0,0.9,0.1,1.8,0.2,2.7c0.4,2.6,1,5.2,1.8,7.7c2.3,7.3,6.7,15.2,13,20.8c1.5,1.3,6.2,5.4,9,4
			c1.8-0.9,1.5-3.8,1.5-5.2c0.2-6-0.1-12-0.5-18c-0.5-8.1-1.3-16.3-2.5-24.3c-0.4-2.6-0.6-7.3-4.1-8.5c-4.7-1.7-13.2,1-18.3,1.2"/>
	</g>
	<path class="st38" d="M315.2,240.6c0,0,2.7,76.1-19.9,75.9c-24.1-0.2-37.5-31.1-37.5-31.1l4.2-19c6.4-7.7,8.4-16.7,5.9-27.1
		l2.5-11.5L315.2,240.6L315.2,240.6z"/>
	<path d="M304.3,264.7c0,0,3-3.5,8.3,0.6c1.5,1.1-1.5-0.1-4.2-0.1C305.5,265.2,302.8,266.5,304.3,264.7"/>
	<path d="M295.6,263.4c0,0-2.9-3.6-8.3,0.3c-1.5,1.1,1.3,0.2,4,0.3C294.2,264.1,297.1,265.2,295.6,263.4"/>
	<path class="st42" d="M307.8,274.5c-1-0.2-2,0.5-2.3,1.5c-0.2,1,0.5,2,1.5,2.3c1,0.2,2-0.5,2.3-1.5
		C309.5,275.7,308.8,274.7,307.8,274.5L307.8,274.5z"/>
	<path class="st42" d="M290.7,273.4c-1-0.2-2,0.5-2.3,1.5c-0.2,1,0.5,2,1.5,2.3c1,0.2,2-0.5,2.3-1.5
		C292.4,274.7,291.8,273.6,290.7,273.4L290.7,273.4z"/>
	<path class="st42" d="M304.4,275.1c0,0,2.8-3.5,6.2-0.8c0,0-1.3-3.4-4.7-1.4C304.4,273.7,304.4,275.1,304.4,275.1L304.4,275.1z"/>
	<path class="st42" d="M293.5,274c0,0-2.9-3.5-6.2-0.8c0,0,1.3-3.4,4.7-1.5C293.5,272.7,293.5,274,293.5,274L293.5,274z"/>
	<path class="st43" d="M302.3,277.3c0,0,1,5.4,1.3,9.4c0.2,1.8,0.2,3.3,0,4c-0.2,0.7-0.9,1.1-1.9,1.1c-1.7,0-4.1-0.9-4.1-0.9
		c-0.3-0.1-0.4-0.4-0.3-0.7c0.1-0.3,0.4-0.4,0.7-0.3c0,0,2.2,0.9,3.7,0.8c0.2,0,0.4,0,0.6-0.1c0.1,0,0.3-0.1,0.3-0.3
		c0.2-0.6,0.1-2,0-3.6c-0.4-4-1.3-9.3-1.3-9.3c-0.1-0.3,0.1-0.6,0.4-0.6C302,276.8,302.3,277,302.3,277.3L302.3,277.3z"/>
	<path class="st44" d="M302.3,300.1c-4.4,10.3-12.1-1.4-12.1-1.4C290.1,295.7,297.4,301,302.3,300.1L302.3,300.1z"/>
	<path class="st38" d="M260.3,260.8c-0.9-2.8-9.1-7.2-7,4.1c1.9,10,7.2,11.4,7.2,11.4c1.5-1.6,2.1-4.3,1.5-8.4
		C261.8,265.8,261.2,263.5,260.3,260.8L260.3,260.8z"/>
	<path class="st40" d="M300.3,234l1-2c-10.4-3.8-25.3-15.1-36-11c-3.6,1.4-5.3,13.9-6.8,18c-0.5,1.4-0.9,4.3,0.7,5.1
		c2.5,1.2,5.4-2.6,7.3-3.8c3.3-2.1,9-3,12.7-2.8c13.4,0.6,19.4,6.5,20.5,5.8c1.8-1.2,6.3,1,8.2,0.4c4.1-1.3,10.4,2.7,12.8,7.8
		l-0.2-10.2l-6.5-5.9C312.7,235.1,301.6,234.3,300.3,234L300.3,234z"/>
	<path class="st36" d="M554.7,884.1c0,0,0.8,32.6,10.3,50.4l94.9-18.4c0,0-14.1-10-44.2-11.1c-30.1-1.2-33.9-23.8-33.9-23.8
		C575.6,888.7,563,889.6,554.7,884.1L554.7,884.1z"/>
	<path class="st45" d="M1112,575.8c0,0,5.9,0.3,11-2.5c3.2-1.8,6.1-4.6,7.3-9.3c0.8-3.3,0.2-7.8-1-12.6c-1.2-5.3-2.9-11-2-15.7
		c0.6-3.1,2.4-5.7,6.5-7.3l-1-2.9c-5.6,1.7-8.3,5.1-9.5,9.3c-1.5,5.2-0.4,11.7,0.5,17.7c0.5,3.7,1,7.2,0.1,9.7
		c-0.8,2.4-2.5,3.7-4.3,4.5c-3.3,1.5-7,0.9-7,0.9L1112,575.8L1112,575.8z"/>
	<path class="st46" d="M1066.5,531.2c0,0-2.1-5.3-6.4-9.2c-3.2-2.9-7.5-5-13-4.2c-5,0.7-9,4.2-11.5,9.6c-3,6.6-3.9,16.1-2.5,24.8
		c1,6.2,3,12,6,16.1c2.4,3.2,5.3,5.4,8.7,6.2c3.6,0.9,7.8,0.4,12.5-2.6c1.9-1.2,2.5-3.8,1.3-5.7c-1.2-1.9-3.8-2.5-5.7-1.3
		c-2.3,1.4-4.3,2-6.1,1.6c-1.8-0.4-3.2-1.8-4.4-3.5c-2.1-3.1-3.5-7.4-4.2-12c-1.1-7.1-0.6-14.8,1.8-20.1c1.2-2.5,2.7-4.5,5.1-4.8
		c3.5-0.5,6,1.5,7.6,3.5c2,2.3,2.9,4.7,2.9,4.7c0.8,2.1,3.2,3.2,5.4,2.4C1066.3,535.7,1067.3,533.3,1066.5,531.2L1066.5,531.2z"/>
	<path class="st46" d="M1159.4,555.6h-25.6c0,0,0,16.5,0,24.9c0,2.6,2.1,4.8,4.8,4.8c4.6,0,11.4,0,16,0c2.6,0,4.8-2.1,4.8-4.8
		C1159.4,572.2,1159.4,555.6,1159.4,555.6L1159.4,555.6z"/>
	<polygon class="st46" points="1117.8,585.3 1052.7,585.3 1061,507.2 1109.4,507.2 1117.8,585.3 	"/>
	<g>
		<defs>
			<polygon id="SVGID_00000143602755920871800540000008819272642386548102_" points="1117.8,585.3 1052.7,585.3 1061,507.2 
				1109.4,507.2 1117.8,585.3 			"/>
		</defs>
		<clipPath id="SVGID_00000065066208641959668630000009297082780613556652_">
			<use xlink:href="#SVGID_00000143602755920871800540000008819272642386548102_"  style="overflow:visible;"/>
		</clipPath>
		
			<path style="clip-path:url(#SVGID_00000065066208641959668630000009297082780613556652_);fill-rule:evenodd;clip-rule:evenodd;fill:#F7F6FB;" d="
			M1061.8,511.1c1.1-0.4,3.5,0.4,4.6,0.6c4,0.8,8,1.6,12,2.4c6.7,1.5,16.3,2.1,21.6,6.8c7.7,6.7,5,23.4,4.2,32.2
			c-0.3,3.5-0.9,7.2-2.6,10.3c-3.1,5.4-10,6.6-15.6,7.3c-13.9,1.6-27.4-1-40.8-4.5c-3.7-1-7.3-2.1-10.9-3.4c-1-0.4-3.3-1.8-4.4-1.3
			c-1.2,0.5,0.9,5,1.2,5.7c2.7,6.3,7.2,11.6,13,15.3c9.2,5.9,19.9,9,30.6,10.9c11.3,2,22.9,3.1,34.4,2.9c4.7-0.1,10.4-0.3,14.3-3.4
			c5.8-4.6,4-16.2,3.3-22.5c-2.4-20.3-8.9-40.1-14.9-59.5"/>
	</g>
	<path class="st48" d="M1113.1,510.8c0-1.2-1-2.2-2.2-2.2c-8.9,0-42.4,0-51.3,0c-1.2,0-2.2,1-2.2,2.2c0,0,0,0,0,0
		c0,1.2,1,2.2,2.2,2.2c8.9,0,42.4,0,51.3,0C1112.1,513,1113.1,512,1113.1,510.8C1113.1,510.8,1113.1,510.8,1113.1,510.8
		L1113.1,510.8z"/>
	<polygon class="st49" points="1021.4,579.1 1176.7,579.1 1137.9,596.8 1060.2,596.8 1021.4,579.1 	"/>
	<path class="st46" d="M1156.9,565.9c0,0,0.6-1.6,1.9-2.8c1-0.9,2.3-1.5,3.9-1.3c1.5,0.2,2.7,1.3,3.5,2.9c0.9,2,1.2,4.9,0.8,7.5
		c-0.3,1.9-0.9,3.6-1.8,4.8c-0.7,1-1.6,1.6-2.6,1.9c-1.1,0.3-2.4,0.1-3.8-0.8c-0.6-0.4-0.8-1.1-0.4-1.7c0.4-0.6,1.1-0.8,1.7-0.4
		c0.7,0.4,1.3,0.6,1.8,0.5c0.5-0.1,1-0.5,1.3-1.1c0.6-0.9,1.1-2.2,1.3-3.6c0.3-2.1,0.2-4.5-0.6-6.1c-0.3-0.8-0.8-1.4-1.5-1.5
		c-1-0.1-1.8,0.5-2.3,1c-0.6,0.7-0.9,1.4-0.9,1.4c-0.3,0.6-1,1-1.6,0.7C1156.9,567.3,1156.6,566.6,1156.9,565.9L1156.9,565.9z"/>
	<path class="st46" d="M1081.9,493.8c0-1.9,1.5-3.4,3.4-3.4c1.9,0,3.4,1.5,3.4,3.4h7.4c3.9,0,7.7,1.6,10.5,4.3
		c2.8,2.8,4.3,6.5,4.3,10.5c0,0,0,0,0,0h-51.1c0,0,0,0,0,0c0-3.9,1.6-7.7,4.3-10.5c2.8-2.8,6.5-4.3,10.5-4.3H1081.9L1081.9,493.8z"
		/>
	<polygon class="st50" points="804.2,270 897.5,325.8 892.7,333.8 799.4,278 804.2,270 	"/>
	<polygon class="st51" points="794,264.8 808.2,291.3 802.4,294.4 788.3,267.9 794,264.8 	"/>
	<polygon class="st12" points="759.5,283.3 759.5,283.3 721.3,273.2 761.7,346.8 773.7,309.6 773.7,309.6 804.2,293.3 790.2,266.9 
		759.5,283.3 	"/>
	<path class="st52" d="M720.5,273.3c3.3-1.8,15.1,13.4,26.3,33.9c11.2,20.5,17.6,38.7,14.3,40.5c-3.3,1.8-15.1-13.4-26.3-33.9
		C723.6,293.2,717.2,275.1,720.5,273.3L720.5,273.3z"/>
	<path class="st53" d="M739.4,294.6c2.4,3.9,4.9,8.1,7.4,12.6c3,5.5,5.7,10.9,7.9,15.8c-2.7,1.8-5.9,2.8-9.4,2.8
		c-9-0.2-16.1-7.6-16-16.5C729.5,302.7,733.6,297,739.4,294.6L739.4,294.6z"/>
	<path class="st12" d="M797.4,271.7c-2.4,3.6-1.4,8.4,2.2,10.7c3.6,2.4,8.4,1.4,10.7-2.2c2.4-3.6,1.4-8.4-2.2-10.7
		C804.5,267.1,799.7,268.1,797.4,271.7L797.4,271.7z"/>
	<path class="st54" d="M800,273c-1.6,2.1-1.2,5.2,0.9,6.8c2.1,1.6,5.2,1.2,6.8-0.9c1.6-2.1,1.2-5.2-0.9-6.8
		C804.6,270.4,801.6,270.9,800,273L800,273z"/>
	<path class="st12" d="M824,506.6c0-4.4,1.7-8.6,4.9-11.7c3.1-3.1,7.3-4.9,11.7-4.9c12.4,0,29.3,0,41.7,0c4.4,0,8.6,1.7,11.7,4.9
		c3.1,3.1,4.9,7.3,4.9,11.7c0,2.5,0,4.3,0,4.3H824C824,510.9,824,509.1,824,506.6L824,506.6z"/>
	<polygon class="st50" points="883.9,330.5 858.3,481.8 855.5,481.3 881.1,330 883.9,330.5 	"/>
	<polygon class="st50" points="892.1,331 866.4,482.3 863.6,481.8 889.2,330.5 892.1,331 	"/>
	<polygon class="st50" points="849.1,474.6 873.7,474.6 873.7,490.1 849.1,490.1 849.1,474.6 	"/>
	<path class="st12" d="M890.1,314.3c-8.7-2.3-17.6,2.9-19.8,11.6c-2.3,8.7,2.9,17.6,11.6,19.8c8.7,2.3,17.6-2.9,19.8-11.6
		C903.9,325.4,898.7,316.5,890.1,314.3L890.1,314.3z"/>
	<path class="st54" d="M888.9,318.9c-6.1-1.6-12.4,2.1-14,8.2c-1.6,6.1,2.1,12.4,8.2,14c6.1,1.6,12.4-2.1,14-8.2
		C898.7,326.8,895,320.5,888.9,318.9L888.9,318.9z"/>
	<polygon class="st12" points="1253.6,894.9 1219.5,894.9 1225.2,937.9 1248.3,937.9 1253.6,894.9 	"/>
	<polygon class="st12" points="1035.7,894.9 1069.8,894.9 1064.1,937.9 1040.9,937.9 1035.7,894.9 	"/>
	<polygon class="st55" points="1278.5,591.6 1010.1,591.6 1010.1,916.4 1278.5,916.4 1278.5,591.6 	"/>
	<polygon class="st56" points="1272.9,603.5 1016.4,603.5 1016.4,909.3 1272.9,909.3 1272.9,603.5 	"/>
	<g>
		<defs>
			<polygon id="SVGID_00000102517944530685791920000012289760502156371338_" points="1272.9,603.5 1016.4,603.5 1016.4,909.3 
				1272.9,909.3 1272.9,603.5 			"/>
		</defs>
		<clipPath id="SVGID_00000082356797555405179900000012655502985372955020_">
			<use xlink:href="#SVGID_00000102517944530685791920000012289760502156371338_"  style="overflow:visible;"/>
		</clipPath>
		
			<polygon style="clip-path:url(#SVGID_00000082356797555405179900000012655502985372955020_);fill-rule:evenodd;clip-rule:evenodd;fill:#9791BB;" points="
			1272.9,699.1 1016.4,699.1 1016.4,707.6 1272.9,707.6 1272.9,699.1 		"/>
		
			<polygon style="clip-path:url(#SVGID_00000082356797555405179900000012655502985372955020_);fill-rule:evenodd;clip-rule:evenodd;fill:#9791BB;" points="
			1234.5,623.1 1054.8,623.1 1054.8,669.9 1234.5,669.9 1234.5,623.1 		"/>
		
			<polygon style="clip-path:url(#SVGID_00000082356797555405179900000012655502985372955020_);fill-rule:evenodd;clip-rule:evenodd;fill:#9791BB;" points="
			1234.5,732.5 1054.8,732.5 1054.8,779.3 1234.5,779.3 1234.5,732.5 		"/>
		
			<polygon style="clip-path:url(#SVGID_00000082356797555405179900000012655502985372955020_);fill-rule:evenodd;clip-rule:evenodd;fill:#9791BB;" points="
			1234.5,837.6 1054.8,837.6 1054.8,884.4 1234.5,884.4 1234.5,837.6 		"/>
		
			<polygon style="clip-path:url(#SVGID_00000082356797555405179900000012655502985372955020_);fill-rule:evenodd;clip-rule:evenodd;fill:#9791BB;" points="
			1272.9,804.2 1016.4,804.2 1016.4,812.7 1272.9,812.7 1272.9,804.2 		"/>
	</g>
	<path class="st58" d="M1144.6,637.6c4.9,0,8.8,3.7,8.8,8.3c0,4.6-4,8.3-8.8,8.3c-4.9,0-8.8-3.7-8.8-8.3
		C1135.8,641.3,1139.8,637.6,1144.6,637.6L1144.6,637.6z"/>
	<path class="st58" d="M1144.6,748.1c4.9,0,8.8,3.7,8.8,8.3c0,4.6-4,8.3-8.8,8.3c-4.9,0-8.8-3.7-8.8-8.3
		C1135.8,751.8,1139.8,748.1,1144.6,748.1L1144.6,748.1z"/>
	<path class="st58" d="M1144.6,854.4c4.9,0,8.8,3.7,8.8,8.3s-4,8.3-8.8,8.3c-4.9,0-8.8-3.7-8.8-8.3S1139.8,854.4,1144.6,854.4
		L1144.6,854.4z"/>
	<path class="st7" d="M1230.1,554.4c-0.5-0.3-1.1-1.2-1.4-1.7c-1.3-1.6-2.4-3.4-3.4-5.1c-4.2-6.8-7.3-13.9-9.5-21.4
		c-0.8-2.7-1.6-5.6-1.8-8.4c0-0.7,0-1.3,0-2c0-0.1,0-0.6-0.1-0.6c0,0-0.2,0.6-0.2,0.7c-0.1,0.8-0.3,1.6-0.4,2.3
		c-0.6,3.5-0.7,7-0.8,10.5c-0.2,7.8,0.2,16,4,23.1c0.9,1.7,2,3.3,3.4,4.7c0.4,0.4,1.1,1.1,1.7,1.2c0.1,0,0.8-0.6,1-0.7
		c1.1-0.5,2.2-0.8,3.3-1.1"/>
	<path class="st7" d="M1226.5,549.7c0.4-0.5,0.7-1.5,0.9-2.1c0.7-1.7,1.3-3.5,1.9-5.3c2.2-6.3,3.9-12.5,5.2-19
		c0.4-2.1,0.6-4.2,1-6.3c0.1-0.5,0.2-1,0.2-1.4c0,0,0.1-0.4,0.1-0.4c0,0,0,0.1,0,0.2c0,0.1,0,0.2,0,0.4c0,0.3,0.1,0.7,0.1,1
		c0.1,1.1,0.2,2.1,0.3,3.2c0.3,3.2,0.7,6.5,0.8,9.7c0.3,6.4-0.7,12.7-3,18.8c-0.5,1.5-1.1,2.9-1.8,4.3c-0.2,0.3-0.5,1.1-0.9,1.1
		c-0.4,0-0.9-0.9-1.2-1.2c-1-1.1-2-2.2-3.2-3.1"/>
	<path class="st7" d="M1244.6,555.7c0.2,0.2,1.4-1.8,1.4-1.8c1.2-2.2,1.9-4.6,2.5-7c1.1-4.9,1.9-10,1.8-15c0-1.2-0.1-2.5-0.3-3.7
		c0-0.1,0-1-0.2-1.1c0,0-0.1,0.4-0.1,0.5c-0.1,0.4-0.1,0.7-0.2,1c-0.3,1.1-0.6,2.1-1.1,3.1c-1.3,3.1-3,6-4.7,8.9
		c-2.7,4.8-5.9,9.4-9.6,13.6c-1,1.1-2,2.2-3,3.4c-0.2,0.3-0.9,0.9-0.8,1.3c0.2,0.6,3.1-0.2,3.5-0.3c3.7-0.9,7.5-1.8,11.2-2.8"/>
	<path class="st8" d="M1221.4,556.2c-0.4,0-1-0.7-1.2-0.9c-1.1-0.9-2.1-2-3-3.1c-4.2-4.6-7.4-10-9.9-15.6c-0.8-1.8-1.5-3.6-2.1-5.4
		c-0.2-0.7-0.5-1.4-0.8-2c0,0-0.2-0.6-0.3-0.5c-0.1,0.1-0.1,0.4-0.1,0.5c0,0.5,0,1,0,1.6c0,2.3,0.2,4.5,0.5,6.8
		c0.7,6,1.7,12.9,5.7,18c1.3,1.7,4.4,4.4,7,3.3c0.1,0,0.2-0.1,0-0.2c-0.1,0-0.5,0.1-0.4,0c0.1-0.2,0.6-0.3,0.8-0.5
		c0.6-0.4,1.1-0.8,1.7-1.2"/>
	<path class="st8" d="M1238.4,556.7c-0.1,0.1,0.1-0.2,0.2-0.3c0.1-0.2,0.3-0.4,0.4-0.6c0.3-0.7,0.6-1.3,0.9-2c0.8-2,1.4-4.1,1.9-6.3
		c1.5-6.8,1.2-13.9,1.3-20.8c0-1.6,0-3.3,0.1-4.9c0-0.1,0.2-1.5,0.2-1.5c0,0-0.2,0.4-0.2,0.4c-0.2,0.5-0.3,1-0.4,1.5
		c-0.3,1.3-0.6,2.5-0.9,3.8c-1,3.7-2.1,7.5-3.5,11.1c-2.1,5.6-5,11-8.5,15.9c-1.1,1.6-2.4,3-3.6,4.5c-0.2,0.3-1.2,1.2-1.2,1.6
		c0,0.2,1.8-0.3,1.9-0.3c2.2-0.5,4.4-1.2,6.7-1.6c0.7-0.1,1.3-0.3,2-0.5c0.2-0.1,0.4-0.1,0.6-0.2c0.1,0,0.4-0.1,0.3-0.1"/>
	<path class="st8" d="M1230.8,555c-0.5-0.7-0.5-2-0.7-2.8c-0.5-2.3-0.8-4.5-1.2-6.8c-1.3-8.1-2-16.1-1.9-24.3c0-2.6,0.3-5.2,0.5-7.9
		c0-0.6,0-1.2,0.1-1.8c0-0.1,0-0.5,0.1-0.6c0.1,0,0,0.2-0.1,0.2c-0.1,0.1-0.1,0.3-0.2,0.4c-0.2,0.4-0.3,0.8-0.5,1.2
		c-0.5,1.3-1,2.5-1.4,3.8c-1.4,3.9-3,7.8-4.2,11.7c-2.4,7.8-2.8,15.7-1.4,23.6c0.3,1.9,0.7,3.8,1.4,5.6c0.1,0.4,0.4,1.4,0.9,1.6
		c0.6,0.1,1.7-0.9,2.1-1.2c1.8-1.1,3.6-2.3,5.6-3.1"/>
	<path class="st9" d="M1203.7,591.6h46.5c0.9-4,7.2-30.7,11-40.5c0.3-0.9-0.1-1.8-1.1-2.5c-1.1-0.7-4.3-1.1-4.3-1.1h-57.4
		c0,0-3.3,0.4-4.3,1.1c-1.1,0.7-1.5,1.6-1.1,2.5C1196.7,560.9,1202.8,587.6,1203.7,591.6L1203.7,591.6z"/>
	<path class="st59" d="M1440.8,834.3c7,4.9-12.2-186.9-32.4-212.3l-5.4,3.3c7.1-9.4,43.3,172.1,31.5,209.1L1440.8,834.3
		L1440.8,834.3z"/>
	<path class="st60" d="M1356.6,548.4c1.5-1.7,14.8-15.2,46.4-1.3c33.7,14.7,24.8,44,24.8,44c46.3-7,43.5,22,43.5,22
		c-2,7.1-5.1,13.5-9,19.3c-14-35.4-22.7-23-22.7-23c13.4,9.8,16.3,22.5,16.6,30.7c-5.7,6.3-12.4,11.7-19.8,16.3
		c3.1-12.3,6.6-33.3-2.5-42.7c-11.8-12.1-2.8,27.8-4.6,46.8c-6.9,3.8-14.2,7-21.5,9.7c0.9-4.2,1.6-8.6,1.7-12.8
		c0.2-7.3-0.3-14.7-0.3-22.1c0-2.8,0.3-6.6-1.2-9.1c-1-1.7-2.7-2.7-4.5-1.6c-4.4,2.7-3.6,9.6-3,13.8c1.2,7.4,2,14.9,1.7,22.5
		c-0.2,4-0.9,7.8-1.5,11.7c-7,2.3-14,4.2-20.7,5.7c0.9-3.1,1.6-6.3,1.9-9.4c0.6-5.6,0.6-11.2,1-16.8c0.2-2.1,0.6-5.1-0.4-6.9
		c-0.7-1.2-2-1.9-3.4-1c-3.6,2.3-3.4,7.5-3.1,10.7c0.5,5.6,0.7,11.3,0,17.1c-0.3,2.5-0.9,5-1.5,7.5c-6,1.3-11.6,2.2-16.8,3
		c0.2-0.5,0.5-1,0.7-1.4c2.4-5.2,4.2-10.5,6.5-15.7c0.8-2,2.2-4.6,1.9-6.7c-0.2-1.4-1.2-2.4-3-1.9c-4.1,1.2-5.7,6.2-6.4,9.3
		c-1.4,5.5-3,11-5.5,16.2c-0.2,0.4-0.4,0.8-0.6,1.2c-11.3,1.4-18.6,1.7-18.6,1.7c-3.2-9.9-5.3-19.3-6.6-28.2
		c13-1.6,28.7-4.4,28.7-7.9c0-4.3-15.3,0.5-29.4,2.1c-0.4-4.1-0.7-8.1-0.8-11.9c12.6-1.3,39.5-4.5,39.5-9.1c0-5.4-24,3.5-39.5,2.5
		c0.1-5.8,0.6-11.4,1.3-16.6c14.2-0.5,50.2-2.1,50.5-6.8c0.3-5.6-8.6-8.2-48.7-3.2c1.3-6.1,3-11.7,4.8-16.9
		c15.3,1.5,54.2,4.9,54.9-0.9c0.8-6.7-24.7-10.1-51.5-7.7c4.8-11,10.3-19.3,14.4-24.7c12.8,5.3,41,16.2,42.3,11
		C1393.8,561,1371.4,551.6,1356.6,548.4L1356.6,548.4z"/>
	<g>
		<defs>
			<path id="SVGID_00000095322616469547994340000007562752924021562529_" d="M1356.6,548.4c1.5-1.7,14.8-15.2,46.4-1.3
				c33.7,14.7,24.8,44,24.8,44c46.3-7,43.5,22,43.5,22c-2,7.1-5.1,13.5-9,19.3c-14-35.4-22.7-23-22.7-23
				c13.4,9.8,16.3,22.5,16.6,30.7c-5.7,6.3-12.4,11.7-19.8,16.3c3.1-12.3,6.6-33.3-2.5-42.7c-11.8-12.1-2.8,27.8-4.6,46.8
				c-6.9,3.8-14.2,7-21.5,9.7c0.9-4.2,1.6-8.6,1.7-12.8c0.2-7.3-0.3-14.7-0.3-22.1c0-2.8,0.3-6.6-1.2-9.1c-1-1.7-2.7-2.7-4.5-1.6
				c-4.4,2.7-3.6,9.6-3,13.8c1.2,7.4,2,14.9,1.7,22.5c-0.2,4-0.9,7.8-1.5,11.7c-7,2.3-14,4.2-20.7,5.7c0.9-3.1,1.6-6.3,1.9-9.4
				c0.6-5.6,0.6-11.2,1-16.8c0.2-2.1,0.6-5.1-0.4-6.9c-0.7-1.2-2-1.9-3.4-1c-3.6,2.3-3.4,7.5-3.1,10.7c0.5,5.6,0.7,11.3,0,17.1
				c-0.3,2.5-0.9,5-1.5,7.5c-6,1.3-11.6,2.2-16.8,3c0.2-0.5,0.5-1,0.7-1.4c2.4-5.2,4.2-10.5,6.5-15.7c0.8-2,2.2-4.6,1.9-6.7
				c-0.2-1.4-1.2-2.4-3-1.9c-4.1,1.2-5.7,6.2-6.4,9.3c-1.4,5.5-3,11-5.5,16.2c-0.2,0.4-0.4,0.8-0.6,1.2c-11.3,1.4-18.6,1.7-18.6,1.7
				c-3.2-9.9-5.3-19.3-6.6-28.2c13-1.6,28.7-4.4,28.7-7.9c0-4.3-15.3,0.5-29.4,2.1c-0.4-4.1-0.7-8.1-0.8-11.9
				c12.6-1.3,39.5-4.5,39.5-9.1c0-5.4-24,3.5-39.5,2.5c0.1-5.8,0.6-11.4,1.3-16.6c14.2-0.5,50.2-2.1,50.5-6.8
				c0.3-5.6-8.6-8.2-48.7-3.2c1.3-6.1,3-11.7,4.8-16.9c15.3,1.5,54.2,4.9,54.9-0.9c0.8-6.7-24.7-10.1-51.5-7.7
				c4.8-11,10.3-19.3,14.4-24.7c12.8,5.3,41,16.2,42.3,11C1393.8,561,1371.4,551.6,1356.6,548.4L1356.6,548.4z"/>
		</defs>
		<clipPath id="SVGID_00000089562002888813061750000000511266905283110571_">
			<use xlink:href="#SVGID_00000095322616469547994340000007562752924021562529_"  style="overflow:visible;"/>
		</clipPath>
		
			<polygon style="clip-path:url(#SVGID_00000089562002888813061750000000511266905283110571_);fill-rule:evenodd;clip-rule:evenodd;fill:#2A6868;" points="
			1488.1,615.8 1442.7,575.8 1331.2,688.7 1376.6,728.6 1488.1,615.8 		"/>
	</g>
	<path class="st62" d="M1441.9,833.9c4.9,1.6-19.1-81.6-34-91.2l-3.4,1.9c4.1-4.7,38.9,72.6,33.2,89.9L1441.9,833.9L1441.9,833.9z"
		/>
	<path class="st63" d="M1380.1,694.4c1.2-1,11.3-8.8,30.9,3.2c20.9,12.7,12.1,31.3,12.1,31.3c31.3-0.6,26.7,18.4,26.7,18.4
		c-2,4.5-4.7,8.5-7.9,12c-5.8-24.7-12.8-17.2-12.8-17.2c7.9,7.7,8.6,16.4,8,21.8c-4.4,3.7-9.4,6.7-14.7,9.1
		c3.3-7.9,7.7-21.5,2.5-28.5c-6.7-9.1-4.6,18.2-7.6,30.6c-4.9,1.9-10.1,3.4-15.2,4.5c1-2.7,1.9-5.5,2.4-8.3c0.9-4.8,1.2-9.8,2-14.6
		c0.3-1.8,0.8-4.4,0.1-6.1c-0.5-1.2-1.5-2-2.8-1.4c-3.2,1.4-3.3,6-3.3,8.9c0,5-0.1,10.1-1.1,15c-0.5,2.6-1.4,5.1-2.2,7.6
		c-4.9,0.9-9.7,1.6-14.3,2c0.9-2,1.7-4,2.2-6c1-3.7,1.5-7.4,2.3-11.1c0.3-1.4,0.9-3.3,0.4-4.6c-0.3-0.9-1.1-1.5-2.2-0.9
		c-2.6,1.2-3,4.7-3.1,6.8c-0.2,3.8-0.6,7.5-1.7,11.3c-0.5,1.7-1.1,3.3-1.7,4.9c-4.1,0.3-7.9,0.5-11.4,0.5c0.2-0.3,0.4-0.6,0.6-0.9
		c2.1-3.2,3.8-6.6,5.8-9.8c0.8-1.2,1.9-2.9,1.9-4.3c0-0.9-0.6-1.7-1.8-1.5c-2.9,0.4-4.4,3.6-5.2,5.6c-1.5,3.5-3.1,7-5.3,10.3
		c-0.2,0.2-0.3,0.5-0.5,0.7c-7.6,0-12.5-0.5-12.5-0.5c-1.1-6.8-1.6-13.2-1.6-19.3c8.8,0,19.4-0.4,19.8-2.7c0.4-2.9-10.2-1-19.7-1.2
		c0.1-2.7,0.3-5.4,0.6-8c8.5,0.3,26.6,0.5,27-2.6c0.5-3.6-16.2,0.2-26.4-1.8c0.6-3.8,1.5-7.5,2.5-10.9c9.5,0.9,33.5,3,34.1-0.1
		c0.8-3.7-4.9-6.2-32-6.4c1.5-3.9,3.1-7.5,4.9-10.8c10,2.4,35.4,8,36.5,4.2c1.2-4.4-15.4-8.8-33.4-9.6c4.3-6.9,8.7-11.9,12-15.1
		c8,4.6,25.6,14.3,26.9,11C1403.5,706.1,1389.6,697.8,1380.1,694.4L1380.1,694.4z"/>
	<g>
		<defs>
			<path id="SVGID_00000077303099709283808900000012005951221579969163_" d="M1380.1,694.4c1.2-1,11.3-8.8,30.9,3.2
				c20.9,12.7,12.1,31.3,12.1,31.3c31.3-0.6,26.7,18.4,26.7,18.4c-2,4.5-4.7,8.5-7.9,12c-5.8-24.7-12.8-17.2-12.8-17.2
				c7.9,7.7,8.6,16.4,8,21.8c-4.4,3.7-9.4,6.7-14.7,9.1c3.3-7.9,7.7-21.5,2.5-28.5c-6.7-9.1-4.6,18.2-7.6,30.6
				c-4.9,1.9-10.1,3.4-15.2,4.5c1-2.7,1.9-5.5,2.4-8.3c0.9-4.8,1.2-9.8,2-14.6c0.3-1.8,0.8-4.4,0.1-6.1c-0.5-1.2-1.5-2-2.8-1.4
				c-3.2,1.4-3.3,6-3.3,8.9c0,5-0.1,10.1-1.1,15c-0.5,2.6-1.4,5.1-2.2,7.6c-4.9,0.9-9.7,1.6-14.3,2c0.9-2,1.7-4,2.2-6
				c1-3.7,1.5-7.4,2.3-11.1c0.3-1.4,0.9-3.3,0.4-4.6c-0.3-0.9-1.1-1.5-2.2-0.9c-2.6,1.2-3,4.7-3.1,6.8c-0.2,3.8-0.6,7.5-1.7,11.3
				c-0.5,1.7-1.1,3.3-1.7,4.9c-4.1,0.3-7.9,0.5-11.4,0.5c0.2-0.3,0.4-0.6,0.6-0.9c2.1-3.2,3.8-6.6,5.8-9.8c0.8-1.2,1.9-2.9,1.9-4.3
				c0-0.9-0.6-1.7-1.8-1.5c-2.9,0.4-4.4,3.6-5.2,5.6c-1.5,3.5-3.1,7-5.3,10.3c-0.2,0.2-0.3,0.5-0.5,0.7c-7.6,0-12.5-0.5-12.5-0.5
				c-1.1-6.8-1.6-13.2-1.6-19.3c8.8,0,19.4-0.4,19.8-2.7c0.4-2.9-10.2-1-19.7-1.2c0.1-2.7,0.3-5.4,0.6-8c8.5,0.3,26.6,0.5,27-2.6
				c0.5-3.6-16.2,0.2-26.4-1.8c0.6-3.8,1.5-7.5,2.5-10.9c9.5,0.9,33.5,3,34.1-0.1c0.8-3.7-4.9-6.2-32-6.4c1.5-3.9,3.1-7.5,4.9-10.8
				c10,2.4,35.4,8,36.5,4.2c1.2-4.4-15.4-8.8-33.4-9.6c4.3-6.9,8.7-11.9,12-15.1c8,4.6,25.6,14.3,26.9,11
				C1403.5,706.1,1389.6,697.8,1380.1,694.4L1380.1,694.4z"/>
		</defs>
		<clipPath id="SVGID_00000107553060685970916200000002146902907784322995_">
			<use xlink:href="#SVGID_00000077303099709283808900000012005951221579969163_"  style="overflow:visible;"/>
		</clipPath>
		
			<polygon style="clip-path:url(#SVGID_00000107553060685970916200000002146902907784322995_);fill-rule:evenodd;clip-rule:evenodd;fill:#3F9A9A;" points="
			1460.6,750.6 1434.4,720.2 1349.4,785.2 1375.6,815.6 1460.6,750.6 		"/>
	</g>
	<path class="st62" d="M1438.3,842.1c-6.6,3,11.5-116.4,30.5-132.3l5,2.1c-6.6-5.9-40.6,107.2-29.6,130.2L1438.3,842.1L1438.3,842.1
		z"/>
	<path class="st63" d="M1461.5,703.9c0,0-19.6-18.9-16.2-29.7c3.4-10.7,14.2-13.3,33.9-9.5c19.7,3.8,60.9,27.6,63,78.2
		c0,0-43.9,21.7-79.4,10.2C1427.2,741.6,1407.5,691.1,1461.5,703.9L1461.5,703.9z"/>
	<g>
		<defs>
			<path id="SVGID_00000030450354039098374800000015902664056020989576_" d="M1461.5,703.9c0,0-19.6-18.9-16.2-29.7
				c3.4-10.7,14.2-13.3,33.9-9.5c19.7,3.8,60.9,27.6,63,78.2c0,0-43.9,21.7-79.4,10.2C1427.2,741.6,1407.5,691.1,1461.5,703.9
				L1461.5,703.9z"/>
		</defs>
		<clipPath id="SVGID_00000000212527485753423360000011291662190635741345_">
			<use xlink:href="#SVGID_00000030450354039098374800000015902664056020989576_"  style="overflow:visible;"/>
		</clipPath>
		
			<path style="clip-path:url(#SVGID_00000000212527485753423360000011291662190635741345_);fill-rule:evenodd;clip-rule:evenodd;fill:#5A8A8A;" d="
			M1553.6,749.7c-16.2-9.8-33-17-50-25.1c-10.3-5-20.3-10.6-30.5-15.6c-7.3-3.6-14.5-7.4-21.8-11.1c-2.9-1.5-7.4-2.8-9.7-5.2
			c-3-3.2-4.3-8.9-5.8-12.8c-2.2-5.7-4.6-11.9-4.3-17.9c0.6-11.9,10.1-21.4,20.7-26.2c6.1-2.8,12.6-1.7,19,0.1
			c11.3,3.3,20.8,8.3,30.2,15.4c6.7,5,15.1,9.6,20.6,15.9c2.6,3,4.5,6.7,6.5,10.1c4.6,7.4,8.7,14.5,12.1,22.5
			c5.3,12.3,11.9,24.5,13.7,37.9c0.8,6-0.5,11.9-0.8,17.8"/>
	</g>
	<path class="st9" d="M1399.6,834.4V895c0,17.1,5.1,32.4,13.1,42.9h51.2c8-10.5,13.1-25.8,13.1-42.9v-60.6H1399.6L1399.6,834.4z"/>
</g>
</svg>
