<svg id="Layer_1" data-name="Layer 1" xmlns="http://www.w3.org/2000/svg" viewBox="0 0 353.51 48.14"><defs><style>.cls-1,.cls-2{fill:#fff;}.cls-2{font-size:48px;font-family:Birdman;letter-spacing:0em;}</style></defs><g id="scheduler"><path class="cls-1" d="M353.51,18.16H342.09a5.28,5.28,0,0,0-4.21,1.95,7.09,7.09,0,0,0-1.65,4.76V37.92h2.45V25.08a4.8,4.8,0,0,1,1-2.95,2.93,2.93,0,0,1,2.43-1.28h11.44Z"/><path class="cls-1" d="M332.67,25.24a6.76,6.76,0,0,1-1.69,4.7,5.52,5.52,0,0,1-4.3,1.89h-5.91l0-2.7h5.94a3.18,3.18,0,0,0,2.68-1.28,5.25,5.25,0,0,0,.87-3.11,4.32,4.32,0,0,0-1-2.9,3.07,3.07,0,0,0-2.56-1.11l-8.53.12A2.88,2.88,0,0,0,315.73,22a4.55,4.55,0,0,0-.91,2.84V31a4.85,4.85,0,0,0,.95,2.94,2.91,2.91,0,0,0,2.45,1.28H330.9v2.7H318.25A5.25,5.25,0,0,1,314,36a7.18,7.18,0,0,1-1.62-4.79V24.74A7,7,0,0,1,314,20a5.27,5.27,0,0,1,4.22-1.84h8.69a5.09,5.09,0,0,1,4.33,2.07,8,8,0,0,1,1.47,5"/><path class="cls-1" d="M309.88,35.22h-2.32a2.93,2.93,0,0,1-2.46-1.28,4.85,4.85,0,0,1-1-2.94V11.45H301.7V31.2A7.14,7.14,0,0,0,303.36,36a5.3,5.3,0,0,0,4.22,2h2.3Z"/><path class="cls-1" d="M298.07,31a7.29,7.29,0,0,1-1.71,4.86,5.36,5.36,0,0,1-4.27,2H284A5.52,5.52,0,0,1,279.72,36,6.72,6.72,0,0,1,278,31.32V18.45h2.45V31.32a4,4,0,0,0,1,2.76,3.25,3.25,0,0,0,2.5,1.14h8.1a3.27,3.27,0,0,0,2.5-1.14,4,4,0,0,0,1-2.76V18.45h2.45Z"/><path class="cls-1" d="M274.18,11.74h-2.44V31.32a4,4,0,0,1-1,2.76,3.27,3.27,0,0,1-2.51,1.14h-8.12a2.9,2.9,0,0,1-2.42-1.16,4.5,4.5,0,0,1-.9-2.83V25.34a4.85,4.85,0,0,1,.94-2.95,2.92,2.92,0,0,1,2.46-1.29h9.14l0-2.65-9.15,0a5.29,5.29,0,0,0-4.26,1.91,7.23,7.23,0,0,0-1.62,4.85v6.44a6.42,6.42,0,0,0,1.62,4.56,5.42,5.42,0,0,0,4.18,1.75h8.1a5.36,5.36,0,0,0,4.27-2A7.28,7.28,0,0,0,274.18,31Z"/><path class="cls-1" d="M250.82,25.24a6.76,6.76,0,0,1-1.69,4.7,5.52,5.52,0,0,1-4.3,1.89h-5.91l0-2.7h5.94a3.19,3.19,0,0,0,2.68-1.28,5.25,5.25,0,0,0,.86-3.11,4.32,4.32,0,0,0-1-2.9,3.08,3.08,0,0,0-2.57-1.11l-8.52.12A2.88,2.88,0,0,0,233.88,22a4.55,4.55,0,0,0-.91,2.84V31a4.85,4.85,0,0,0,.95,2.94,2.91,2.91,0,0,0,2.45,1.28h12.68v2.7H236.4A5.25,5.25,0,0,1,232.15,36a7.18,7.18,0,0,1-1.62-4.79V24.74A7,7,0,0,1,232.11,20a5.27,5.27,0,0,1,4.22-1.84H245a5.09,5.09,0,0,1,4.33,2.07,8,8,0,0,1,1.47,5"/><path class="cls-1" d="M225.84,25.17a7.19,7.19,0,0,0-1.6-4.82,5.26,5.26,0,0,0-4.24-1.9h-9.75V11.74H207.8V37.92h2.45V21.14H220a2.93,2.93,0,0,1,2.43,1.28,4.74,4.74,0,0,1,1,2.92V37.92h2.45Z"/><path class="cls-1" d="M203.64,37.92H191A5.3,5.3,0,0,1,186.74,36a7.19,7.19,0,0,1-1.62-4.78V24.77a6.72,6.72,0,0,1,1.64-4.67A5.43,5.43,0,0,1,191,18.28h12.65V21H191a2.93,2.93,0,0,0-2.45,1.28,4.85,4.85,0,0,0-.94,3V31a4.81,4.81,0,0,0,.94,2.93A2.92,2.92,0,0,0,191,35.22h12.68Z"/><path class="cls-1" d="M178.55,32q0,3.15-2.37,3.15H164.05v2.65h12.69A3.81,3.81,0,0,0,180.1,36a7.12,7.12,0,0,0,1.12-4.1A6.1,6.1,0,0,0,180,28.06a3.9,3.9,0,0,0-3.24-1.62h-8.66a1.74,1.74,0,0,1-1.58-.83,3.69,3.69,0,0,1-.52-2q0-2.73,2.37-2.73h12.12V18.16H167.78a3.87,3.87,0,0,0-3.24,1.64,6.24,6.24,0,0,0-1.24,3.89,6.13,6.13,0,0,0,1.24,3.86,3.87,3.87,0,0,0,3.24,1.62h8.62A1.79,1.79,0,0,1,178,30a3.74,3.74,0,0,1,.53,2"/></g><path id="Dime" class="cls-1" d="M145.89,19.18a6.45,6.45,0,0,0-5.25-2.24H130.08a6.79,6.79,0,0,0-5.13,2c-1.28,1.33-1.92,0-1.92,2.13v10a7.27,7.27,0,0,0,2,5.18,6.77,6.77,0,0,0,5.17,2.08h15.36V35.4h-15.4a3.71,3.71,0,0,1-3-1.39A4.89,4.89,0,0,1,126,30.83V24.19a4.49,4.49,0,0,1,1.1-3.06A3.64,3.64,0,0,1,130,19.85l10.36-.14a4,4,0,0,1,3.11,1.21,4.38,4.38,0,0,1,1.2,3.14,5.19,5.19,0,0,1-1.05,3.36,4.06,4.06,0,0,1-3.25,1.39h-7.23l0,2.91h7.18a7.09,7.09,0,0,0,5.21-2,6.87,6.87,0,0,0,2.06-5.08,8,8,0,0,0-1.79-5.42M118.08,38.31h-3V24.38a4,4,0,0,0-1.25-3,4.2,4.2,0,0,0-3-1.24h-7.17V38.31h-3V20.16H93.93a4.21,4.21,0,0,0-3,1.24,4,4,0,0,0-1.25,3V38.31h-3V24.39a6.88,6.88,0,0,1,2.08-5.1,7.13,7.13,0,0,1,5.19-2H110.8a6.82,6.82,0,0,1,5.19,2.2,7.38,7.38,0,0,1,2.09,5.25ZM80.65,17.52h-3V38.31h3Zm0-6.14h-3V14.2h3Zm-8,19.48a7.37,7.37,0,0,1-2.08,5.25,6.85,6.85,0,0,1-5.19,2.2H55.58a7,7,0,0,1-5.08-1.89,6.52,6.52,0,0,1-2-4.94v-7a7.32,7.32,0,0,1,2-5.25,6.81,6.81,0,0,1,5.17-2.07l11.11.05,0,2.87H55.64a3.67,3.67,0,0,0-3,1.39,4.85,4.85,0,0,0-1.15,3.19v6.38a4.51,4.51,0,0,0,1.1,3.06,3.7,3.7,0,0,0,2.94,1.26H65.4a4.18,4.18,0,0,0,3-1.24,4,4,0,0,0,1.26-3V14.34h3Z"/><path id="Hex" class="cls-1" d="M10,12h8.24c.88,0,1.18.34,1.18,1.34v3.15c0,1.19-.79,1.31-1.86.71l-.3-.18a2.24,2.24,0,0,0-2.35,0L8.65,20.52a2.14,2.14,0,0,0-1.18,2l0,7.05a2.15,2.15,0,0,0,1.17,2l6.22,3.55a2.24,2.24,0,0,0,2.35,0l6.26-3.49a2.11,2.11,0,0,0,1.18-2V14.15c0-1.13.49-.84,1,0l5.9,10a3.48,3.48,0,0,1,0,3.83l-6,10.21a3.63,3.63,0,0,1-3.39,1.92H10a3.67,3.67,0,0,1-3.4-1.91L.58,28a3.48,3.48,0,0,1,0-3.83l6-10.21A3.63,3.63,0,0,1,10,12"/><text class="cls-2" transform="translate(153.21 38.02)">.</text></svg>