<svg id="Layer_1" data-name="Layer 1" xmlns="http://www.w3.org/2000/svg" xmlns:xlink="http://www.w3.org/1999/xlink" viewBox="0 0 1422.16 942.97"><defs><style>.cls-1,.cls-8{fill:none;}.cls-1{clip-rule:evenodd;}.cls-2{fill:#e9e8f4;}.cls-10,.cls-11,.cls-12,.cls-13,.cls-14,.cls-15,.cls-16,.cls-17,.cls-18,.cls-19,.cls-2,.cls-20,.cls-21,.cls-23,.cls-24,.cls-26,.cls-27,.cls-28,.cls-30,.cls-31,.cls-4,.cls-5,.cls-6,.cls-7,.cls-9{fill-rule:evenodd;}.cls-3{clip-path:url(#clip-path);}.cls-4{fill:#fafafc;}.cls-5{fill:#f5f5fa;}.cls-6{fill:#c1bee0;}.cls-7{fill:#284352;}.cls-8{stroke:#9683c9;stroke-linecap:round;stroke-linejoin:round;stroke-width:8.23px;}.cls-9{fill:#9683c9;}.cls-10{fill:#b2afcb;}.cls-11{fill:#a4a0d2;}.cls-12{fill:#9893b9;}.cls-13{fill:#fd696c;}.cls-14{fill:#928db5;}.cls-15{fill:#232c43;}.cls-16{fill:#303d5c;}.cls-17{fill:#feab83;}.cls-18{fill:#523d8c;}.cls-19{fill:#826bbf;}.cls-20{fill:#6e62b5;}.cls-21{fill:#f2c059;}.cls-22{clip-path:url(#clip-path-2);}.cls-23{fill:#f8dfaa;}.cls-24{fill:#735122;}.cls-25{clip-path:url(#clip-path-3);}.cls-26{fill:#fe925e;}.cls-28{fill:#d44702;}.cls-29{clip-path:url(#clip-path-4);}.cls-30{fill:#eeaf2b;}.cls-31{fill:#523d8d;}</style><clipPath id="clip-path"><path class="cls-1" d="M113.89,943H1310.3l.41,0C1465.47,813.7,1518.43,144.2,1069.06,151.8,937.76,154,830.29,319.49,671.37,329.34c-175.13,10.86-425-128.73-576,26.17C-50,504.6-17.43,817.81,113.89,943Z"/></clipPath><clipPath id="clip-path-2"><path class="cls-1" d="M1106.54,448.77s-52.32-32.7-84.9.17-35.56,75.21-22,122.28C1035,694.41,1027.73,719.51,1062,778.88c0,0,154.2-3.36,142-33.17,0,0-44.63-95.09-52.5-144.64-1.27-63.76-13.52-124.5-44.92-152.3Z"/></clipPath><clipPath id="clip-path-3"><path class="cls-1" d="M1020.34,433.52s9.92,16.46,14.06,21.7c1.57,4.4,22.14-2.36,19.18-11.4l-28.11-39.88-5.13,29.58Z"/></clipPath><clipPath id="clip-path-4"><path class="cls-1" d="M1022.49,362.82s-13.26-43.11-44.6-31.48-45.38,32.39-27,64.12l71.57-32.64Z"/></clipPath></defs><path class="cls-2" d="M113.89,943H1310.3l.41,0C1465.47,813.7,1518.43,144.2,1069.06,151.8,937.76,154,830.29,319.49,671.37,329.34c-175.13,10.86-425-128.73-576,26.17C-50,504.6-17.43,817.81,113.89,943Z"/><g class="cls-3"><path class="cls-4" d="M1949.35,842.48,586.36,811S614,772.57,677,770.12s101.12-47,141.6-24.84,50.19-15.84,71.55-10.58,27.39,5.13,45,21.46c0,0,144.14-100.79,123.37-3.68,0,0,55.65-48.3,97.53-10.54,0,0,23.75-106.63,170.25-82,0,0,76.44-73.63,142.29-7.53s22.53,103.27,22.53,103.27,47.08,5.2,79.53,40.49c0,0,80,9.14,130.14,23.23s248.59,23,248.59,23Z"/><path class="cls-4" d="M1267.85,368.86l-404-9.31s8.21-11.41,26.86-12.13,30-13.93,42-7.37,14.88-4.69,21.21-3.13,8.11,1.52,13.33,6.36c0,0,42.72-29.87,36.56-1.09,0,0,16.5-14.32,28.91-3.12,0,0,7-31.61,50.46-24.3,0,0,22.65-21.82,42.17-2.23s6.68,30.61,6.68,30.61,14,1.54,23.57,12c0,0,23.71,2.71,38.57,6.88s73.67,6.83,73.67,6.83Z"/><path class="cls-5" d="M1890.49,336.62l-509.1-11.74s10.34-14.37,33.85-15.29,37.77-17.55,52.89-9.28,18.75-5.92,26.73-3.95,10.23,1.92,16.8,8c0,0,53.84-37.65,46.08-1.38,0,0,20.79-18,36.43-3.93,0,0,8.87-39.83,63.59-30.62,0,0,28.55-27.5,53.15-2.81s8.42,38.57,8.42,38.57,17.58,2,29.7,15.13c0,0,29.89,3.41,48.61,8.67s92.85,8.61,92.85,8.61Z"/><path class="cls-4" d="M-231,547.36l509.09-11.75s-10.33-14.37-33.85-15.28-37.77-17.56-52.89-9.28-18.74-5.92-26.72-3.95-10.23,1.91-16.81,8c0,0-53.83-37.64-46.07-1.37,0,0-20.79-18-36.43-3.94,0,0-8.88-39.83-63.6-30.61,0,0-28.54-27.5-53.14-2.82S-59.86,515-59.86,515s-17.58,1.94-29.71,15.12c0,0-29.88,3.42-48.6,8.68S-231,547.36-231,547.36Z"/><path class="cls-6" d="M840.29,967V695.23h5.63V674.57h5.75V642.86h5.7v31.71h6.31v20.66h5.22v-.67h7.62v-6h10.81V683.3h4.76V638.44h6.43v-12.5h6V614.76h27.08V624h7.87v14.41h6.19v43.1h18.11v26h3.08V657.78h8.35V627.13h26.35v30.65h3.32V647.16h7.24v-9.77h3.67v-8.65h10.72v8.65h17.69v9.77h12.48V653h-5.34v14.72H1055v6.69h-3.71v31h10.23V687.86h4.86V661h4.83v26.85h2.22v-4.31h4.23v-7.28l14.45-18.34,14.82,18.34v7.28h3.25V674.4l8.66,5V652.59l19.76,9.65v27.24l6.41,3.64V689.2h5.61V667h6.78V632.92h6.13V667h6.18v22.2h13V649.86H1178v-8.48h4.7V622.69h-6.78v-7.34h15.86V602.94h22.45V592h13.6v11h4.66v12.41h9.18v13.47h4.22v-38.9h11.88V530.21h10.73v59.71h10.83v38.9h10.61v63.09h3.9V659h23v-54.7h7.86V586h10V574.22H1369V588.4h7.57v15.88h8.17v56.94h6v6.71h13.71v7.58h9.69v.84h6.62V650.14h8V609.89h7.24v40.25h7.3v26.21h7.15V967Zm573.93-6.52V680h-4.14v11.41H1413v5.18h-2.87v24.46H1413V952h-2.87v8.42Z"/><path class="cls-6" d="M697.93,967V581.24H693v-18.1h-5V535.35h-5v27.79h-5.52v18.1h-4.58v-.58h-6.68v-5.24h-9.47v-4.63h-4.17V531.48H646.9v-11h-5.23v-9.79H617.94v8.11H611v12.64h-5.43v37.77H589.74V592h-2.69V548.42l-.89,129.27H556.64v26.86h-2.91v-9.3h-6.34v-8.57h-3.22V679.1h-9.39v7.58h-15.5v8.57H508.33v5.07H513v12.9h-3.24v5.86H513v27.16h-9V730.91h-4.26V707.38h-4.23v23.53h-1.94v-3.78h-3.71v-6.38l-12.66-16.07-13,16.07v6.38H461.4v-8l-7.58,4.4V700l-17.32,8.45v23.87l-5.62,3.19v-3.43H426V712.63H420V682.77h-5.37v29.86h-5.42v19.46H397.87V697.61H402v-7.43h-4.12V673.81h5.94v-6.44H389.92V656.49H370.25v-9.62H358.32v9.62h-4.08v10.88h-8.05v11.8H342.5V645.08H332.09V592.75h-9.41v52.33h-9.49v34.09H303.9v55.29h-3.42V705.61H280.34V657.67h-6.89v-16h-8.76v-10.3H234.57v12.43h-6.63v13.91h-7.16v49.9h-5.29v5.87h-12v6.65H195v.74h-5.8v-23h-7V662.58h-6.34v35.28h-6.39v23h-6.27V967ZM195,817.09V724h3.63v10h-2.52v4.54h2.52V760h-2.52v49.7h2.52v7.39Z"/><path class="cls-6" d="M951.13,900.57,767,721.75l12.95-159.33h10.61v63.1h3.9V592.59h23V537.88h7.86v-18.3h10V507.82h34.37V522h7.58v15.87h8.17v56.94h6v6.71h13.72v7.58h9.68V610h6.63V583.74h8V543.49h7.24v40.25H944V610h7.15V900.57ZM914.81,719.8V613.6h-4.14V625h2.87v5.18h-2.87v24.45h2.87v56.73h-2.87v8.42Z"/><path class="cls-6" d="M646,839.05l161.38-4L796.08,661.33v34.08h-9.3v55.3h-3.42V721.85H763.22V673.91h-6.88v-16h-8.76v-10.3H717.46V660h-6.64v13.91h-7.16v49.9h-5.29v5.88h-12v6.64h-8.48v.74h-5.81v-23h-7V678.83h-6.34V714.1h-6.4v23H646v102Zm31.83-5.72V740.26h3.62v10H679v4.54h2.51v21.43H679V826h2.51v7.38Z"/><path class="cls-6" d="M1124.05,340.44a2,2,0,0,1-1.28-1.84,2,2,0,0,1,4,0,2,2,0,0,1-1.29,1.84v34.47a3.68,3.68,0,0,1,3,3.57,3.63,3.63,0,0,1-1.7,3.06v49.24a5.39,5.39,0,0,1,3.46,5,5.28,5.28,0,0,1-1.78,4h7.61v5h3v11.54h1.08v7.21H1132l13.4,227.59h-41.23l13.4-227.59h-8.16v-7.21h1.08V444.78h3v-5h7.61a5.31,5.31,0,0,1-1.78-4,5.38,5.38,0,0,1,3.47-5V381.54a3.61,3.61,0,0,1-1.7-3.06,3.67,3.67,0,0,1,3-3.57V340.44Z"/></g><path class="cls-7" d="M459.56,519.29c1.67-.46-.87-3.37-1.88-3.23-13.8,1.88-24.54,16.31-24.54,33.82,0,18.78,12.37,34,27.6,34,13.72,0,25.11-12.35,27.25-28.51.24-1.8,0-3.88-.87-1.24-2.41,7.35-8.77,21.66-22.38,22.63-13,.93-23.6-13-23.6-29.1,0-13.87,7.88-25.48,18.42-28.4Z"/><polygon class="cls-7" points="449.07 485.78 460.61 485.78 460.61 522.6 449.07 522.6 449.07 485.78 449.07 485.78"/><polyline class="cls-8" points="1263.67 300.29 938.4 8.6 453.51 297.72"/><polygon class="cls-9" points="472.4 297.72 478.26 297.72 478.26 465.17 472.4 465.17 472.4 297.72 472.4 297.72"/><polygon class="cls-9" points="438.13 297.72 443.99 297.72 443.99 465.17 438.13 465.17 438.13 297.72 438.13 297.72"/><polygon class="cls-10" points="1260.74 302.31 1266.6 302.31 1266.6 383.75 1260.74 383.75 1260.74 302.31 1260.74 302.31"/><polygon class="cls-11" points="1203.78 345.33 1323.56 345.33 1323.56 398.34 1203.78 398.34 1203.78 345.33 1203.78 345.33"/><polygon class="cls-11" points="1163.38 383.75 1363.96 383.75 1363.96 460.57 1163.38 460.57 1163.38 383.75 1163.38 383.75"/><polygon class="cls-12" points="934.78 33.66 942.02 26.5 942.02 939.17 934.78 939.17 934.78 33.66 934.78 33.66"/><polygon class="cls-12" points="1261.62 291.77 1268.01 302.31 451.53 302.31 451.53 291.77 1261.62 291.77 1261.62 291.77"/><polygon class="cls-12" points="938.4 618.83 938.4 628.03 883.46 628.03 883.46 618.83 938.4 618.83 938.4 618.83"/><polygon class="cls-12" points="882.25 618.83 882.25 628.03 848.8 628.03 848.8 618.83 882.25 618.83 882.25 618.83"/><polygon class="cls-12" points="890.6 297.04 884.74 297.04 884.74 216.96 890.6 216.96 890.6 297.04 890.6 297.04"/><polygon class="cls-12" points="534.27 297.04 528.41 297.04 528.41 216.96 534.27 216.96 534.27 297.04 534.27 297.04"/><polygon class="cls-12" points="938.4 537.4 938.4 546.6 883.46 546.6 883.46 537.4 938.4 537.4 938.4 537.4"/><polygon class="cls-12" points="882.25 537.4 882.25 546.6 848.8 546.6 848.8 537.4 882.25 537.4 882.25 537.4"/><polygon class="cls-12" points="942.48 297.04 936.62 297.04 936.62 216.96 942.48 216.96 942.48 297.04 942.48 297.04"/><polygon class="cls-12" points="884.74 297.04 881.17 297.04 881.17 216.96 884.74 216.96 884.74 297.04 884.74 297.04"/><polygon class="cls-12" points="586.16 297.04 580.3 297.04 580.3 216.96 586.16 216.96 586.16 297.04 586.16 297.04"/><polygon class="cls-12" points="938.4 374.55 938.4 383.75 883.46 383.75 883.46 374.55 938.4 374.55 938.4 374.55"/><polygon class="cls-12" points="882.25 374.55 882.25 383.75 848.8 383.75 848.8 374.55 882.25 374.55 882.25 374.55"/><polygon class="cls-12" points="1046.25 297.04 1040.39 297.04 1040.39 216.96 1046.25 216.96 1046.25 297.04 1046.25 297.04"/><polygon class="cls-12" points="938.4 933.77 938.4 942.97 883.46 942.97 883.46 933.77 938.4 933.77 938.4 933.77"/><polygon class="cls-12" points="882.25 933.77 882.25 942.97 848.8 942.97 848.8 933.77 882.25 933.77 882.25 933.77"/><polygon class="cls-12" points="689.93 297.04 684.07 297.04 684.07 216.96 689.93 216.96 689.93 297.04 689.93 297.04"/><polygon class="cls-12" points="938.4 211.69 938.4 220.89 883.46 220.89 883.46 211.69 938.4 211.69 938.4 211.69"/><polygon class="cls-12" points="882.25 211.69 882.25 220.89 848.8 220.89 848.8 211.69 882.25 211.69 882.25 211.69"/><polygon class="cls-12" points="1150.02 297.04 1144.16 297.04 1144.16 216.96 1150.02 216.96 1150.02 297.04 1150.02 297.04"/><polygon class="cls-12" points="938.4 770.92 938.4 780.12 883.46 780.12 883.46 770.92 938.4 770.92 938.4 770.92"/><polygon class="cls-12" points="882.25 770.92 882.25 780.12 848.8 780.12 848.8 770.92 882.25 770.92 882.25 770.92"/><polygon class="cls-12" points="793.7 297.04 787.83 297.04 787.83 216.96 793.7 216.96 793.7 297.04 793.7 297.04"/><polygon class="cls-12" points="938.4 455.97 938.4 465.17 883.46 465.17 883.46 455.97 938.4 455.97 938.4 455.97"/><polygon class="cls-12" points="882.25 455.97 882.25 465.17 848.8 465.17 848.8 455.97 882.25 455.97 882.25 455.97"/><polygon class="cls-12" points="994.37 297.04 988.5 297.04 988.5 216.96 994.37 216.96 994.37 297.04 994.37 297.04"/><polygon class="cls-12" points="638.04 297.04 632.18 297.04 632.18 216.96 638.04 216.96 638.04 297.04 638.04 297.04"/><polygon class="cls-12" points="938.4 293.12 938.4 302.31 883.46 302.31 883.46 293.12 938.4 293.12 938.4 293.12"/><polygon class="cls-12" points="882.25 293.12 882.25 302.31 848.8 302.31 848.8 293.12 882.25 293.12 882.25 293.12"/><polygon class="cls-12" points="1098.14 297.04 1092.27 297.04 1092.27 216.96 1098.14 216.96 1098.14 297.04 1098.14 297.04"/><polygon class="cls-12" points="938.4 852.35 938.4 861.54 883.46 861.54 883.46 852.35 938.4 852.35 938.4 852.35"/><polygon class="cls-12" points="882.25 852.35 882.25 861.54 848.8 861.54 848.8 852.35 882.25 852.35 882.25 852.35"/><polygon class="cls-12" points="741.81 297.04 735.95 297.04 735.95 216.96 741.81 216.96 741.81 297.04 741.81 297.04"/><polygon class="cls-12" points="938.4 130.26 938.4 139.46 883.46 139.46 883.46 130.26 938.4 130.26 938.4 130.26"/><polygon class="cls-12" points="882.25 130.26 882.25 139.46 848.8 139.46 848.8 130.26 882.25 130.26 882.25 130.26"/><polygon class="cls-12" points="1201.9 297.04 1196.04 297.04 1196.04 216.96 1201.9 216.96 1201.9 297.04 1201.9 297.04"/><polygon class="cls-12" points="938.4 689.49 938.4 698.69 883.46 698.69 883.46 689.49 938.4 689.49 938.4 689.49"/><polygon class="cls-12" points="882.25 689.49 882.25 698.69 848.8 698.69 848.8 689.49 882.25 689.49 882.25 689.49"/><polygon class="cls-12" points="845.58 297.04 839.72 297.04 839.72 216.96 845.58 216.96 845.58 297.04 845.58 297.04"/><polygon class="cls-12" points="937.62 209.63 932.04 215.49 883.46 140.72 889.04 134.86 937.62 209.63 937.62 209.63"/><polygon class="cls-12" points="881.78 209.63 878.38 215.49 848.8 140.72 852.2 134.86 881.78 209.63 881.78 209.63"/><polygon class="cls-12" points="1151.33 295.91 1147.6 287.77 1195.24 216.96 1198.97 225.1 1151.33 295.91 1151.33 295.91"/><polygon class="cls-12" points="937.62 768.86 932.04 774.72 883.46 699.95 889.04 694.09 937.62 768.86 937.62 768.86"/><polygon class="cls-12" points="881.78 768.86 878.38 774.72 848.8 699.95 852.2 694.09 881.78 768.86 881.78 768.86"/><polygon class="cls-12" points="795 295.91 791.27 287.77 838.92 216.96 842.65 225.1 795 295.91 795 295.91"/><polygon class="cls-12" points="937.62 290.26 932.04 296.12 883.46 221.35 889.04 215.49 937.62 290.26 937.62 290.26"/><polygon class="cls-12" points="881.78 290.26 878.38 296.12 848.8 221.35 852.2 215.49 881.78 290.26 881.78 290.26"/><polygon class="cls-12" points="1099.95 295.91 1096.22 287.77 1143.86 216.96 1147.6 225.1 1099.95 295.91 1099.95 295.91"/><polygon class="cls-12" points="937.62 849.49 932.04 855.35 883.46 780.58 889.04 774.72 937.62 849.49 937.62 849.49"/><polygon class="cls-12" points="881.78 849.49 878.38 855.35 848.8 780.58 852.2 774.72 881.78 849.49 881.78 849.49"/><polygon class="cls-12" points="743.63 295.91 739.9 287.77 787.54 216.96 791.27 225.1 743.63 295.91 743.63 295.91"/><polygon class="cls-12" points="937.62 372.49 932.04 378.35 883.46 303.57 889.04 297.72 937.62 372.49 937.62 372.49"/><polygon class="cls-12" points="881.78 372.49 878.38 378.35 848.8 303.57 852.2 297.72 881.78 372.49 881.78 372.49"/><polygon class="cls-12" points="1047.56 295.91 1043.83 287.77 1091.47 216.96 1095.2 225.1 1047.56 295.91 1047.56 295.91"/><polygon class="cls-12" points="937.62 931.72 932.04 937.58 883.46 862.8 889.04 856.94 937.62 931.72 937.62 931.72"/><polygon class="cls-12" points="881.78 931.72 878.38 937.58 848.8 862.8 852.2 856.94 881.78 931.72 881.78 931.72"/><polygon class="cls-12" points="691.24 295.91 687.5 287.77 735.15 216.96 738.88 225.1 691.24 295.91 691.24 295.91"/><polygon class="cls-12" points="937.62 453.12 932.04 458.98 883.46 384.21 889.04 378.35 937.62 453.12 937.62 453.12"/><polygon class="cls-12" points="881.78 453.12 878.38 458.98 848.8 384.21 852.2 378.35 881.78 453.12 881.78 453.12"/><polygon class="cls-12" points="996.18 295.91 992.45 287.77 1040.1 216.96 1043.83 225.1 996.18 295.91 996.18 295.91"/><polygon class="cls-12" points="639.86 295.91 636.13 287.77 683.77 216.96 687.5 225.1 639.86 295.91 639.86 295.91"/><polygon class="cls-12" points="937.62 536.14 932.04 542 883.46 467.23 889.04 461.37 937.62 536.14 937.62 536.14"/><polygon class="cls-12" points="881.78 536.14 878.38 542 848.8 467.23 852.2 461.37 881.78 536.14 881.78 536.14"/><polygon class="cls-12" points="943.28 295.91 939.55 287.77 987.2 216.96 990.93 225.1 943.28 295.91 943.28 295.91"/><polygon class="cls-12" points="586.96 295.91 583.23 287.77 630.87 216.96 634.61 225.1 586.96 295.91 586.96 295.91"/><polygon class="cls-12" points="937.62 618.37 932.04 624.23 883.46 549.45 889.04 543.6 937.62 618.37 937.62 618.37"/><polygon class="cls-12" points="881.78 618.37 878.38 624.23 848.8 549.45 852.2 543.6 881.78 618.37 881.78 618.37"/><polygon class="cls-12" points="890.89 295.91 887.16 287.77 934.8 216.96 938.54 225.1 890.89 295.91 890.89 295.91"/><polygon class="cls-12" points="853.32 295.91 851.05 287.77 880.06 216.96 882.34 225.1 853.32 295.91 853.32 295.91"/><polygon class="cls-12" points="534.57 295.91 530.84 287.77 578.48 216.96 582.21 225.1 534.57 295.91 534.57 295.91"/><polygon class="cls-12" points="936.9 33.32 942.02 39.83 884.96 112.36 879.85 105.85 936.9 33.32 936.9 33.32"/><polygon class="cls-12" points="909.73 26.82 912.85 33.32 849.71 112.36 846.59 105.85 909.73 26.82 909.73 26.82"/><polygon class="cls-12" points="516.05 211.69 521.01 218.19 458.47 300.29 453.51 293.79 516.05 211.69 516.05 211.69"/><polygon class="cls-12" points="1263.67 294.86 1259.52 302.31 1213.31 219.15 1217.46 211.69 1263.67 294.86 1263.67 294.86"/><polygon class="cls-12" points="879.85 86.09 887.08 86.09 887.08 939.17 879.85 939.17 879.85 86.09 879.85 86.09"/><polygon class="cls-12" points="846.59 86.09 851 86.09 851 939.17 846.59 939.17 846.59 86.09 846.59 86.09"/><polygon class="cls-12" points="1218.93 211.69 1218.93 222.24 516.27 222.24 516.27 211.69 1218.93 211.69 1218.93 211.69"/><polygon class="cls-13" points="432.5 433.12 483.88 433.12 483.88 497.23 432.5 497.23 432.5 433.12 432.5 433.12"/><path class="cls-14" d="M926.1,0C911.16,0,899,11.88,899,26.51S911.16,53,926.1,53s27.08-11.88,27.08-26.5S941.05,0,926.1,0Z"/><path class="cls-14" d="M458.19,270.54c-11.5,0-20.85,11.87-20.85,26.5s9.35,26.51,20.85,26.51,20.86-11.88,20.86-26.51-9.35-26.5-20.86-26.5Z"/><path class="cls-14" d="M1263.67,273.79c-11.51,0-20.85,11.88-20.85,26.5s9.34,26.51,20.85,26.51,20.85-11.88,20.85-26.51-9.34-26.5-20.85-26.5Z"/><path class="cls-15" d="M1169.28,943H1056l6.3-185.54,139.2-12.75c-2.18.21,22.87,67.19,2.27,121.64-7.27,19.22-20.42,47.66-34.51,76.65Z"/><path class="cls-16" d="M1210,943c5.21-72.16,6.77-161-9.11-193.74L1062,759.77s16.24,94.06,39.29,183.2Z"/><path class="cls-17" d="M1041.87,617.66s-158.24-6-188.69-24.8l-5.95,15.86S991.29,675.9,1026.64,671c0,0,54.53-13.55,15.23-53.35Z"/><path class="cls-17" d="M847.28,608.79c-20.16-15.3-23.71-12-33-21.17,0,0-11.3-10.92-6.47-11.18,0,0-1.26-3.38,2.57-3.23,0,0-.21-6,4.55-5.12s8.21-1.37,14.46,1.9c0,0,30.46,26.43,33.35,33.93l-15.48,4.87Z"/><path class="cls-18" d="M946.64,568.24a2.55,2.55,0,0,0-1.37-3.32L857.05,528.3a2.54,2.54,0,0,0-3.31,1.37c-5.5,13.23-32.59,78.51-38.08,91.74a2.52,2.52,0,0,0,1.37,3.31l88.21,36.62a2.53,2.53,0,0,0,3.32-1.37c5.49-13.23,32.58-78.5,38.08-91.73Z"/><path class="cls-19" d="M981.22,630.66a2.53,2.53,0,0,0-1.37-3.31l-93.28-38.72a2.53,2.53,0,0,0-3.32,1.37l-22.38,53.91a2.54,2.54,0,0,0,1.37,3.31L955.53,686a2.53,2.53,0,0,0,3.31-1.37l22.38-53.92Z"/><path class="cls-19" d="M882.63,589.74a2.55,2.55,0,0,0-1.37-3.32L788,547.7a2.53,2.53,0,0,0-3.31,1.37L762.28,603a2.53,2.53,0,0,0,1.37,3.32L856.93,645a2.54,2.54,0,0,0,3.32-1.37l22.38-53.91Z"/><path class="cls-19" d="M956.59,551a2.53,2.53,0,0,0-1.37-3.32L861.94,509a2.52,2.52,0,0,0-3.31,1.37c-3.92,9.42-18.47,44.49-22.39,53.91a2.55,2.55,0,0,0,1.37,3.32L930.9,606.3a2.53,2.53,0,0,0,3.31-1.37L956.59,551Z"/><path class="cls-20" d="M1059.31,669.32s38.3-162.21,12.48-196.42-78.75,2.45-75,71.13,7.45,71.81,12.52,102.32c4.12,24.81,19,32.83,50,23Z"/><path class="cls-21" d="M1106.54,448.77s-52.32-32.7-84.9.17-35.56,75.21-22,122.28C1035,694.41,1027.73,719.51,1062,778.88c0,0,154.2-3.36,142-33.17,0,0-44.63-95.09-52.5-144.64-1.27-63.76-13.52-124.5-44.92-152.3Z"/><g class="cls-22"><path class="cls-23" d="M992.57,578.61c37.61,1.92,71.27,6,106.62-16.59a177.42,177.42,0,0,0,34.62-29.69c1.42-1.56,13.24-17,14.19-14.07,1.08,3.31,6.51,21.21,5.58,23.87-1.28,3.64-15.41,11.75-18.71,14.44-24,19.55-54.73,35.13-87.66,36.14a137.08,137.08,0,0,1-50.77-7.89c-.91-.33-14.53-4.13-13.06-5.83"/><path class="cls-23" d="M994.75,667.11c37.86,1.55,71.63,5.12,108.35-16a190.14,190.14,0,0,0,36.33-27.63c1.5-1.45,14.15-15.75,15-13.08.94,3.05,5.58,19.55,4.51,22-1.46,3.37-16.1,11-19.55,13.45-25.16,18.21-56.87,32.79-90.14,33.92a146.45,146.45,0,0,1-50.86-7c-.9-.3-14.47-3.73-12.9-5.31"/><path class="cls-20" d="M1053.18,446.44c-4.87,11.91-16.64,20.86-19.9,49.53-3.94,34.58-3.2,34.82-1.58,59.37,0,.58-9.33-26.37-9.31-26.93.27-8.95,1.77-26.86,2.83-35.75,1.6-13.45,5.29-26.71,6.35-40.22.22-2.76-.55-11.76,1.94-13.89,2.2-1.86,16.46,7.33,19.67,7.89Z"/><path class="cls-20" d="M1028.3,515.35s3.62,132.59,70,275.83l-23.78,6.87s-69.89-231.74-49.07-284.77l2.81,2.07Z"/></g><path class="cls-24" d="M952.94,384.67a13.51,13.51,0,0,0,1.17,5.28c2.14,4.74,3,12.23,7.61,14.51.95.47,2.33,1.1,2.55.89l.06-.06,66.21,15.07s1.18-1.72,1.22-1.82c.79-1.93.14-1.19,1.15-3,2.6-4.69,4.34-19.12-2.78-38.29A47.11,47.11,0,0,0,1003,349.69c-5.55-2-20.05,2.43-29.3,6.16-36.85,14.89-25.21,27-20.73,28.82Z"/><path class="cls-17" d="M1020.34,433.52s9.92,16.46,14.06,21.7c1.57,4.4,22.14-2.36,19.18-11.4l-28.11-39.88-5.13,29.58Z"/><g class="cls-25"><path class="cls-26" d="M1033.2,411.44c-.46-.13.63.69.84,1.09a19.35,19.35,0,0,1,1.1,2.76,61.25,61.25,0,0,1,2.13,8.46c1.48,8.35,1.48,18-1.42,26.41-.68,2-2.89,8-6,7.88-2-.11-3.18-3.18-3.87-4.51-3.11-5.88-5.71-12-8.27-18.17-3.46-8.32-6.71-16.78-9.55-25.34-.92-2.76-3-7.51-.49-10.29,3.33-3.74,12.06-4.77,16.66-6.78"/></g><path class="cls-17" d="M959.25,389.22s28.38,72.18,49.47,62.78c22.44-10,22.42-44.29,22.42-44.29l-11.61-16.07q-13.66-6.9-16.59-22.94l-7-9.69-36.69,30.21Z"/><path d="M973.72,394.32s-4.59-2.32-8.28,4.15c-1,1.79,1.48-.79,4.29-1.9,3-1.2,6.35-1.07,4-2.25"/><path d="M986.47,388.38s1.4-4.95,8.67-3.25c2,.46-1.28.75-4,2.06-2.95,1.4-5.41,3.73-4.67,1.19"/><path class="cls-27" d="M976.9,408.77a2.31,2.31,0,1,1-.62,3.21,2.31,2.31,0,0,1,.62-3.21Z"/><path class="cls-27" d="M995.42,399.75a2.3,2.3,0,1,1-.62,3.2,2.3,2.3,0,0,1,.62-3.2Z"/><path class="cls-27" d="M980.93,407.9s-4.78-2.66-7.27,1.89a3.69,3.69,0,0,1,4.55-3.75,3.26,3.26,0,0,1,2.72,1.86Z"/><path class="cls-27" d="M998.42,397.39s-5.41-.86-6.19,4.27a3.7,3.7,0,0,1,3-5.09,3.29,3.29,0,0,1,3.2.82Z"/><path class="cls-28" d="M984.25,409.37s1.38,6.48,2.81,11.1a16.24,16.24,0,0,0,1.86,4.44,2.15,2.15,0,0,0,2.58.35,16.85,16.85,0,0,0,4.21-2.92.63.63,0,0,0-.87-.91,15.13,15.13,0,0,1-3.79,2.66,2.39,2.39,0,0,1-.69.17.52.52,0,0,1-.47-.15,15.31,15.31,0,0,1-1.63-4c-1.41-4.57-2.78-11-2.78-11a.63.63,0,0,0-.74-.49.64.64,0,0,0-.49.75Z"/><path class="cls-28" d="M996.36,439.34a7.16,7.16,0,0,0,5.52-.5c1.89-1,4-2.94,5.67-7a.68.68,0,0,0-.36-.89.7.7,0,0,0-.9.37c-1.5,3.61-3.33,5.43-5,6.28a5.88,5.88,0,0,1-4.42.45.7.7,0,0,0-.89.39.68.68,0,0,0,.4.88Z"/><path class="cls-24" d="M1016.58,432.29a47.29,47.29,0,0,0,4.62-9.41c2.16-5.89-1.07-11.69,1.47-17.1.46-1-9.91-16.94-14.77-24.3,2-1.79,8.41,7.52,10.3,7.58l9.22,12.33c1.4,1.93,4.14-.22,5.68,5.14,1.18,4.07.55,12.12-.28,16.86-1.87,10.61-.86,11.56-8.2,20.75-3.86,4.82-15.93,11.14-22.52,9.66A21.37,21.37,0,0,1,989.55,445c-.64-.93-2-1.6-3.14-4.25,2.52,1.36,3.79,3.33,8.18,5-.81-2.29-.87-5.5-1.24-7.85s2.63-4,4-5.61c2.07-2.4,5.38-5.71,8.77-6,1.18-.11,6.29,3.18,10.45,6Zm-.67,1c-2.31-1.27-5.34-3.57-7.59-4.07-2.77-.62-4.26,1.26-5.5,2.27-1.85,1.51-7,4.58-7.71,6.94a11.27,11.27,0,0,0,.83,7.37,20.69,20.69,0,0,0,4.1-.56c.62-.2,1.22-.41,1.81-.64.12-1.23.35-2.69,1.22-3.26a5,5,0,0,1,2.13-.44c1.32-.14,2.66-.21,4-.44a32.08,32.08,0,0,0,6.73-7.17Z"/><path class="cls-17" d="M1018.75,385.82c-.28-3,5.56-10.47,8.19.94,2.33,10.07-2.11,13.6-2.11,13.6-2-.94-3.73-3.17-4.86-7.28a42.71,42.71,0,0,1-1.22-7.26Z"/><path class="cls-24" d="M970.49,377.07l-1.73-1.44c8.13-7.78,17.55-24.39,29.19-24.94,3.94-.19,10.63,10.82,13.66,14.05,1.07,1.14,2.59,3.65,1.39,5.06-1.81,2.12-6.09-.21-8.34-.59-3.93-.67-9.64.89-13,2.56-12.24,6-15.44,14-16.77,13.71-2.18-.41-5.46,3.47-7.49,3.66-4.41.43-8.65,6.78-8.77,12.49l-4-9.66,3.65-8.16c1.11-.72,11.09-6,12.2-6.74Z"/><path class="cls-17" d="M1113.09,627.77s-166.53,27.94-200.25,15.9l10.69,19.6s152.26,32,185.8,19.86c0,0,50.51-24.65,3.76-55.36Z"/><path class="cls-20" d="M1130,672.55s20.22-182.63-8.71-214.26-78.17,9.86-68,77.88,22.38,87.38,24.74,118.21c5.88,12.91,31,36,52,18.17Z"/><path class="cls-17" d="M921.71,648.25s-28.81-17.09-41.79-13.56c0,0-9.72,3.07-5.54,7.42,0,0-4.84,5.31-1.39,8.39,0,0-2.62,6.42,2,9.44s-2.26,7.28,4.61,9c0,0,46.72-3.29,52.32-9.08l-10.18-11.58Z"/><path class="cls-21" d="M1022.49,362.82s-13.26-43.11-44.6-31.48-45.38,32.39-27,64.12l71.57-32.64Z"/><g class="cls-29"><path class="cls-30" d="M987.49,327.18c-.32.63-2,.77-2.61,1a31.79,31.79,0,0,0-6.35,3.6c-5.18,4-8.38,10.76-10.12,16.91-2.44,8.68-3.36,17.9-1.5,26.78a63.73,63.73,0,0,0,3.18,10.4c.38.95,1.74,3,1.54,4.06,0,.12-12,7.28-13.78,2.29-.29-.79-.52-1.6-.73-2.4-.3-1.13-.55-2.29-.78-3.44-3.36-16.65,1.27-35.78,9.66-50.89,6.68-12,14-17.59,27.13-12.42"/></g><path class="cls-30" d="M1019.73,355.38s-55,39.35-72.89,32.73c0,0-22.18,22.44,3,14.77s94.59-42.64,69.87-47.5Z"/><polygon class="cls-31" points="953.36 942.97 181.31 938.82 180.4 838.12 181.31 805.45 181.31 723.7 227.74 713.76 227.74 672.98 258.53 656.28 564.17 656.28 604.19 681.03 603.88 725.3 651.95 729.47 651.95 771.24 937.74 771.24 937.74 905.05 953.36 942.97 953.36 942.97"/><path class="cls-19" d="M223.71,888.73a2.53,2.53,0,0,0-2.53-2.53H131.33a2.53,2.53,0,0,0-2.54,2.53v51.71a2.53,2.53,0,0,0,2.54,2.53h89.85a2.53,2.53,0,0,0,2.53-2.53V888.73Z"/><path class="cls-19" d="M272.08,716.29a2.53,2.53,0,0,0-2.54-2.53H179.7a2.53,2.53,0,0,0-1.8.74,2.56,2.56,0,0,0-.74,1.79V768a2.53,2.53,0,0,0,2.54,2.53h89.84a2.53,2.53,0,0,0,2.54-2.53V716.29Z"/><path class="cls-19" d="M223.11,773.77a2.54,2.54,0,0,0-2.54-2.53H130.72a2.54,2.54,0,0,0-2.54,2.53v51.71a2.53,2.53,0,0,0,.75,1.79,2.5,2.5,0,0,0,1.79.74h89.85a2.5,2.5,0,0,0,1.79-.74,2.53,2.53,0,0,0,.75-1.79V773.77Z"/><path class="cls-19" d="M414.76,888.73a2.53,2.53,0,0,0-2.54-2.53H322.38a2.53,2.53,0,0,0-2.54,2.53v51.71a2.53,2.53,0,0,0,2.54,2.53h89.84a2.53,2.53,0,0,0,2.54-2.53V888.73Z"/><path class="cls-19" d="M463.13,716.29a2.56,2.56,0,0,0-.74-1.79,2.53,2.53,0,0,0-1.8-.74H370.74a2.52,2.52,0,0,0-1.79.74,2.56,2.56,0,0,0-.74,1.79V768a2.53,2.53,0,0,0,2.53,2.53h89.85a2.53,2.53,0,0,0,2.54-2.53V716.29Z"/><path class="cls-19" d="M414.15,773.77a2.53,2.53,0,0,0-2.53-2.53H321.77a2.53,2.53,0,0,0-2.53,2.53v51.71a2.53,2.53,0,0,0,2.53,2.53h89.85a2.53,2.53,0,0,0,2.53-2.53V773.77Z"/><path class="cls-19" d="M366.7,831.25a2.54,2.54,0,0,0-2.54-2.53H274.31a2.53,2.53,0,0,0-2.53,2.53V883a2.53,2.53,0,0,0,2.53,2.53h89.85a2.5,2.5,0,0,0,1.79-.74,2.53,2.53,0,0,0,.75-1.79V831.25Z"/><path class="cls-19" d="M415.06,658.81a2.53,2.53,0,0,0-2.53-2.53H322.68a2.5,2.5,0,0,0-1.79.74,2.53,2.53,0,0,0-.75,1.79v51.71a2.54,2.54,0,0,0,2.54,2.53h89.85a2.53,2.53,0,0,0,2.53-2.53V658.81Z"/><path class="cls-19" d="M605.81,888.73a2.53,2.53,0,0,0-2.53-2.53H513.43a2.49,2.49,0,0,0-1.79.74,2.51,2.51,0,0,0-.75,1.79v51.71a2.51,2.51,0,0,0,.75,1.79,2.49,2.49,0,0,0,1.79.74h89.85a2.53,2.53,0,0,0,2.53-2.53V888.73Z"/><path class="cls-19" d="M654.18,716.29a2.56,2.56,0,0,0-.74-1.79,2.52,2.52,0,0,0-1.79-.74H561.8a2.53,2.53,0,0,0-1.8.74,2.56,2.56,0,0,0-.74,1.79V768a2.53,2.53,0,0,0,2.54,2.53h89.85a2.53,2.53,0,0,0,2.53-2.53V716.29Z"/><path class="cls-19" d="M605.21,773.77a2.54,2.54,0,0,0-2.54-2.53H512.82A2.56,2.56,0,0,0,511,772a2.52,2.52,0,0,0-.74,1.79v51.71a2.53,2.53,0,0,0,2.53,2.53h89.85a2.5,2.5,0,0,0,1.79-.74,2.53,2.53,0,0,0,.75-1.79V773.77Z"/><path class="cls-19" d="M557.75,831.25a2.54,2.54,0,0,0-2.54-2.53H465.36a2.53,2.53,0,0,0-2.53,2.53V883a2.53,2.53,0,0,0,2.53,2.53h89.85a2.5,2.5,0,0,0,1.79-.74,2.53,2.53,0,0,0,.75-1.79V831.25Z"/><path class="cls-19" d="M606.12,658.81a2.53,2.53,0,0,0-.75-1.79,2.5,2.5,0,0,0-1.79-.74H513.73a2.53,2.53,0,0,0-2.53,2.53v51.71a2.53,2.53,0,0,0,2.53,2.53h89.85a2.54,2.54,0,0,0,2.54-2.53V658.81Z"/><path class="cls-19" d="M892.39,888.73a2.53,2.53,0,0,0-2.54-2.53H800a2.53,2.53,0,0,0-2.54,2.53v51.71A2.53,2.53,0,0,0,800,943h89.84a2.53,2.53,0,0,0,2.54-2.53V888.73Z"/><path class="cls-19" d="M891.78,773.77a2.53,2.53,0,0,0-2.53-2.53H799.4a2.54,2.54,0,0,0-2.54,2.53v51.71a2.53,2.53,0,0,0,.75,1.79,2.5,2.5,0,0,0,1.79.74h89.85a2.53,2.53,0,0,0,2.53-2.53V773.77Z"/><path class="cls-19" d="M844.32,831.25a2.52,2.52,0,0,0-.74-1.79,2.56,2.56,0,0,0-1.79-.74H751.94a2.54,2.54,0,0,0-2.54,2.53V883a2.53,2.53,0,0,0,.75,1.79,2.5,2.5,0,0,0,1.79.74h89.85a2.53,2.53,0,0,0,2.53-2.53V831.25Z"/><path class="cls-19" d="M319.24,888.73a2.54,2.54,0,0,0-2.54-2.53H226.85a2.53,2.53,0,0,0-2.53,2.53v51.71a2.53,2.53,0,0,0,2.53,2.53H316.7a2.54,2.54,0,0,0,2.54-2.53V888.73Z"/><path class="cls-19" d="M367.6,716.29a2.53,2.53,0,0,0-2.53-2.53H275.22a2.5,2.5,0,0,0-1.79.74,2.53,2.53,0,0,0-.75,1.79V768a2.54,2.54,0,0,0,2.54,2.53h89.85A2.53,2.53,0,0,0,367.6,768V716.29Z"/><path class="cls-19" d="M318.63,773.77a2.53,2.53,0,0,0-2.54-2.53H226.25a2.53,2.53,0,0,0-2.54,2.53v51.71a2.56,2.56,0,0,0,.74,1.79,2.53,2.53,0,0,0,1.8.74h89.84a2.53,2.53,0,0,0,1.8-.74,2.56,2.56,0,0,0,.74-1.79V773.77Z"/><path class="cls-19" d="M271.17,831.25a2.53,2.53,0,0,0-2.54-2.53H178.79a2.53,2.53,0,0,0-2.54,2.53V883a2.56,2.56,0,0,0,.74,1.79,2.53,2.53,0,0,0,1.8.74h89.84a2.53,2.53,0,0,0,1.8-.74,2.56,2.56,0,0,0,.74-1.79V831.25Z"/><path class="cls-19" d="M319.54,658.81a2.53,2.53,0,0,0-2.54-2.53H227.15a2.52,2.52,0,0,0-1.79.74,2.56,2.56,0,0,0-.74,1.79v51.71a2.53,2.53,0,0,0,2.53,2.53H317a2.53,2.53,0,0,0,2.54-2.53V658.81Z"/><path class="cls-19" d="M510.29,888.73a2.54,2.54,0,0,0-2.54-2.53H417.9a2.53,2.53,0,0,0-2.53,2.53v51.71A2.53,2.53,0,0,0,417.9,943h89.85a2.54,2.54,0,0,0,2.54-2.53V888.73Z"/><path class="cls-19" d="M558.65,716.29a2.53,2.53,0,0,0-2.53-2.53H466.27a2.53,2.53,0,0,0-2.53,2.53V768a2.53,2.53,0,0,0,2.53,2.53h89.85a2.53,2.53,0,0,0,2.53-2.53V716.29Z"/><path class="cls-19" d="M509.68,773.77a2.53,2.53,0,0,0-2.53-2.53H417.3a2.53,2.53,0,0,0-2.54,2.53v51.71a2.56,2.56,0,0,0,.74,1.79,2.53,2.53,0,0,0,1.8.74h89.85a2.52,2.52,0,0,0,1.79-.74,2.56,2.56,0,0,0,.74-1.79V773.77Z"/><path class="cls-19" d="M462.22,831.25a2.53,2.53,0,0,0-2.53-2.53H369.84a2.53,2.53,0,0,0-2.54,2.53V883a2.56,2.56,0,0,0,.74,1.79,2.53,2.53,0,0,0,1.8.74h89.85a2.52,2.52,0,0,0,1.79-.74,2.56,2.56,0,0,0,.74-1.79V831.25Z"/><path class="cls-19" d="M510.59,658.81a2.56,2.56,0,0,0-.74-1.79,2.53,2.53,0,0,0-1.8-.74H418.21a2.53,2.53,0,0,0-1.8.74,2.56,2.56,0,0,0-.74,1.79v51.71a2.53,2.53,0,0,0,2.54,2.53h89.84a2.53,2.53,0,0,0,2.54-2.53V658.81Z"/><path class="cls-19" d="M796.86,888.73a2.53,2.53,0,0,0-2.53-2.53H704.48a2.54,2.54,0,0,0-2.54,2.53v51.71a2.54,2.54,0,0,0,2.54,2.53h89.85a2.53,2.53,0,0,0,2.53-2.53V888.73Z"/><path class="cls-19" d="M796.26,773.77a2.53,2.53,0,0,0-2.54-2.53H703.87a2.56,2.56,0,0,0-1.79.74,2.52,2.52,0,0,0-.74,1.79v51.71a2.53,2.53,0,0,0,2.53,2.53h89.85a2.53,2.53,0,0,0,2.54-2.53V773.77Z"/><path class="cls-19" d="M748.8,831.25a2.53,2.53,0,0,0-2.54-2.53H656.41a2.53,2.53,0,0,0-2.53,2.53V883a2.56,2.56,0,0,0,.74,1.79,2.52,2.52,0,0,0,1.79.74h89.85A2.53,2.53,0,0,0,748.8,883V831.25Z"/><path class="cls-19" d="M701.34,888.73a2.54,2.54,0,0,0-2.54-2.53H609a2.53,2.53,0,0,0-2.53,2.53v51.71A2.53,2.53,0,0,0,609,943H698.8a2.54,2.54,0,0,0,2.54-2.53V888.73Z"/><path class="cls-19" d="M700.73,773.77a2.53,2.53,0,0,0-2.53-2.53H608.35a2.53,2.53,0,0,0-2.54,2.53v51.71a2.53,2.53,0,0,0,2.54,2.53H698.2a2.52,2.52,0,0,0,1.79-.74,2.56,2.56,0,0,0,.74-1.79V773.77Z"/><path class="cls-19" d="M653.27,831.25a2.52,2.52,0,0,0-.74-1.79,2.56,2.56,0,0,0-1.79-.74H560.89a2.53,2.53,0,0,0-2.54,2.53V883a2.53,2.53,0,0,0,2.54,2.53h89.85a2.53,2.53,0,0,0,2.53-2.53V831.25Z"/><path class="cls-19" d="M987.91,888.73a2.53,2.53,0,0,0-2.53-2.53H895.53a2.54,2.54,0,0,0-2.54,2.53v51.71a2.54,2.54,0,0,0,2.54,2.53h89.85a2.53,2.53,0,0,0,2.53-2.53V888.73Z"/><path class="cls-19" d="M987.31,773.77a2.53,2.53,0,0,0-2.54-2.53H894.93a2.53,2.53,0,0,0-2.54,2.53v51.71a2.56,2.56,0,0,0,.74,1.79,2.53,2.53,0,0,0,1.8.74h89.84a2.53,2.53,0,0,0,1.8-.74,2.56,2.56,0,0,0,.74-1.79V773.77Z"/><path class="cls-19" d="M939.85,831.25a2.53,2.53,0,0,0-2.54-2.53H847.46a2.53,2.53,0,0,0-2.53,2.53V883a2.56,2.56,0,0,0,.74,1.79,2.52,2.52,0,0,0,1.79.74h89.85a2.53,2.53,0,0,0,1.8-.74,2.56,2.56,0,0,0,.74-1.79V831.25Z"/></svg>