<?xml version="1.0" encoding="utf-8"?>
<!-- Generator: Adobe Illustrator 25.4.1, SVG Export Plug-In . SVG Version: 6.00 Build 0)  -->
<svg version="1.1" id="Layer_1" xmlns="http://www.w3.org/2000/svg" xmlns:xlink="http://www.w3.org/1999/xlink" x="0px" y="0px"
	 viewBox="0 0 1836.5 956.7" style="enable-background:new 0 0 1836.5 956.7;" xml:space="preserve">
<style type="text/css">
	.st0{fill-rule:evenodd;clip-rule:evenodd;fill:#E9E8F4;}
	.st1{fill-rule:evenodd;clip-rule:evenodd;fill:#D7D5EB;}
	.st2{fill-rule:evenodd;clip-rule:evenodd;fill:#C9C6E4;}
	.st3{fill-rule:evenodd;clip-rule:evenodd;fill:#B9B3DB;}
	.st4{fill-rule:evenodd;clip-rule:evenodd;fill:#ACABC3;}
	.st5{fill-rule:evenodd;clip-rule:evenodd;fill:#E3E1F1;}
	.st6{fill-rule:evenodd;clip-rule:evenodd;fill:#83E6A1;}
	.st7{fill-rule:evenodd;clip-rule:evenodd;fill:#FFFFFF;}
	.st8{fill-rule:evenodd;clip-rule:evenodd;fill:#EAE9F5;}
	.st9{fill-rule:evenodd;clip-rule:evenodd;fill:#81B3E4;}
	.st10{fill-rule:evenodd;clip-rule:evenodd;fill:#FD696C;}
	.st11{fill-rule:evenodd;clip-rule:evenodd;fill:#C6C3E4;}
	.st12{fill-rule:evenodd;clip-rule:evenodd;fill:#6E62B5;}
	.st13{fill-rule:evenodd;clip-rule:evenodd;fill:#F5F4FA;}
	.st14{fill-rule:evenodd;clip-rule:evenodd;fill:#C4BEE0;}
	.st15{fill-rule:evenodd;clip-rule:evenodd;fill:#C4BFE0;}
	.st16{fill-rule:evenodd;clip-rule:evenodd;fill:#FFB409;}
	
		.st17{clip-path:url(#SVGID_00000067924369230883411530000010800376855020768948_);fill-rule:evenodd;clip-rule:evenodd;fill:#FCE5A2;}
	.st18{fill-rule:evenodd;clip-rule:evenodd;fill:#FBFBFB;}
	.st19{fill-rule:evenodd;clip-rule:evenodd;fill:#F5F5F5;}
	.st20{fill-rule:evenodd;clip-rule:evenodd;fill:#EBEBEB;}
	.st21{fill-rule:evenodd;clip-rule:evenodd;fill:#616161;}
	.st22{fill-rule:evenodd;clip-rule:evenodd;fill:#3F3D56;}
	.st23{fill-rule:evenodd;clip-rule:evenodd;fill:#4B4966;}
	.st24{fill-rule:evenodd;clip-rule:evenodd;fill:#B4ADD7;}
	.st25{fill-rule:evenodd;clip-rule:evenodd;fill:#555274;}
	.st26{fill-rule:evenodd;clip-rule:evenodd;fill:#232D44;}
	.st27{fill-rule:evenodd;clip-rule:evenodd;fill:#FBFBFD;}
</style>
<g>
	<path class="st0" d="M173,937.9h1453.9c1.7-2.4,3.4-4.9,5.1-7.2c15.6-20.9,36.8-46.3,50.2-68.4c45.3-74.8,73.3-154.2,86.1-237.9
		c7.9-51.8,4.1-106.1-6.9-157.3c-17.5-81.5-52.1-160.1-108.4-227.6c-78.9-94.6-200.6-162.5-336.2-173.3
		c-133.9-10.7-262.5,45.8-396.4,34.2C782.7,88.3,660.9,27.5,525.7,7C461.5-2.8,387.8-6,328.6,22.5c-28.2,13.6-54.8,28.1-77.1,48.4
		c-78.3,71.1-65.1,178.6-57,268c2,22.4,4.6,44.8,6.1,67.2c1.4,20.1,1,47.1-1.3,67.2c-7.2,62.6-56.7,111.2-90.1,164.4
		c-31.6,50.3-57,109.3-39.6,167c5.5,18.4,13,35.1,24.1,51.5c16.9,24.8,29.7,38.1,52.3,59.1C154.6,923.3,163.6,930.8,173,937.9
		L173,937.9z"/>
	<path class="st1" d="M1464.2,545.2c0-1.9-1.6-3.5-3.5-3.5c-2.4,0-5.5,0-7.9,0c-1.9,0-3.5,1.6-3.5,3.5c0,29.8,0,241.2,0,241.2h14.8
		C1464.2,786.4,1464.2,574.9,1464.2,545.2L1464.2,545.2z"/>
	<path class="st1" d="M1518,786.4c0-9.3-7.5-16.8-16.8-16.8c-23.2,0-64.9,0-88.1,0c-9.3,0-16.8,7.5-16.8,16.8l0,0H1518L1518,786.4
		L1518,786.4z"/>
	<path class="st1" d="M1518,590.2c0-0.8-0.3-1.6-0.9-2.1c-0.6-0.6-1.3-0.9-2.1-0.9c-14.9,0-79.4,0-79.4,0v6.1c0,0,64.6,0,79.4,0
		c0.8,0,1.6-0.3,2.1-0.9C1517.7,591.7,1518,591,1518,590.2L1518,590.2L1518,590.2z"/>
	<path class="st1" d="M1396.4,688.5c0-0.8,0.3-1.6,0.9-2.1c0.6-0.6,1.3-0.9,2.2-0.9c14.9,0,79.4,0,79.4,0v6.1c0,0-64.6,0-79.4,0
		c-0.8,0-1.6-0.3-2.2-0.9C1396.7,690.1,1396.4,689.4,1396.4,688.5L1396.4,688.5L1396.4,688.5z"/>
	<path class="st1" d="M1467.2,579.4c0-2.1-1.7-3.8-3.8-3.8c-3.7,0-9.4,0-13.1,0c-2.1,0-3.8,1.7-3.8,3.8c0,5.6,0,15.9,0,21.5
		c0,2.1,1.7,3.8,3.8,3.8c3.7,0,9.4,0,13.1,0c2.1,0,3.8-1.7,3.8-3.8C1467.2,595.3,1467.2,585,1467.2,579.4L1467.2,579.4z"/>
	<path class="st1" d="M1446.4,677.8c0-2.1,1.7-3.8,3.8-3.8c3.7,0,9.4,0,13.1,0c2.1,0,3.8,1.7,3.8,3.8c0,5.6,0,15.9,0,21.5
		c0,2.1-1.7,3.8-3.8,3.8c-3.7,0-9.4,0-13.1,0c-2.1,0-3.8-1.7-3.8-3.8C1446.4,693.7,1446.4,683.4,1446.4,677.8L1446.4,677.8z"/>
	<polygon class="st2" points="1600.2,786.4 1326.8,786.4 1326.8,933.9 1600.2,933.9 1600.2,786.4 	"/>
	<polygon class="st2" points="509.7,786.4 236.3,786.4 236.3,933.9 509.7,933.9 509.7,786.4 	"/>
	<path class="st1" d="M356.1,720.4h-84.2c0,0,0,30.5,0,50.1c0,8.8,7.2,16,16,16c15,0,37.2,0,52.1,0c8.8,0,16-7.2,16-16
		C356.1,751,356.1,720.4,356.1,720.4L356.1,720.4z"/>
	<polygon class="st3" points="1613.8,432.1 1266.6,432.1 1266.6,455.1 1613.8,455.1 1613.8,432.1 	"/>
	<polygon class="st3" points="1236.4,432.1 889.1,432.1 889.1,455.1 1236.4,455.1 1236.4,432.1 	"/>
	<polygon class="st3" points="1289.5,443.6 1289.5,482.3 1308.8,482.3 1308.8,443.6 1289.5,443.6 	"/>
	<polygon class="st3" points="912.1,443.6 912.1,482.3 931.4,482.3 931.4,443.6 912.1,443.6 	"/>
	<polygon class="st3" points="1571.6,443.6 1571.6,482.3 1590.9,482.3 1590.9,443.6 1571.6,443.6 	"/>
	<polygon class="st3" points="1194.1,443.6 1194.1,482.3 1213.5,482.3 1213.5,443.6 1194.1,443.6 	"/>
	<path class="st4" d="M918.2,911.1c506.8,0,918.2,10.2,918.2,22.8c0,12.6-411.5,22.8-918.2,22.8S0,946.5,0,933.9
		C0,921.3,411.5,911.1,918.2,911.1L918.2,911.1z"/>
	<path class="st5" d="M895.2,657.7L895.2,657.7c6.1,26.2,36.4,86.3,36.4,86.3c2.6,6.7,1.2,13.9-3.9,19.6c-5.1,5.6-13.2,9-21.8,9
		c-26,0-60.6,0-86.6,0c-8.6,0-16.7-3.3-21.8-9c-5.1-5.7-6.5-12.9-3.9-19.6c0,0,30.3-60.1,36.4-86.3c5.3-23.1,4-71,4-71h57.1
		C891.1,586.7,889.9,634.6,895.2,657.7L895.2,657.7z"/>
	<path class="st6" d="M817.3,692.9l90.9,0.7l23.4,50.3c2.6,6.7,1.2,13.9-3.9,19.6c-5.1,5.6-13.2,9-21.8,9c-26,0-60.6,0-86.6,0
		c-8.6,0-16.7-3.3-21.8-9c-5.1-5.7-6.5-12.9-3.9-19.6L817.3,692.9L817.3,692.9z"/>
	<path class="st5" d="M837.2,708.6c5.4,0,9.8,4.4,9.8,9.8c0,5.4-4.4,9.8-9.8,9.8s-9.8-4.4-9.8-9.8
		C827.3,713,831.7,708.6,837.2,708.6L837.2,708.6z"/>
	<path class="st7" d="M828.6,495.8c-19.6-0.8-35.3-17-35.3-36.9c0-20.4,16.5-36.9,36.9-36.9c11.5,0,21.8,5.3,28.6,13.6
		c2.5-1,5.2-1.5,8-1.5c6.3,0,12.1,2.7,16.1,7c2.5-0.9,5.2-1.4,8.1-1.4c13.3,0,24.1,10.8,24.1,24.1c0,10.3-6.4,19.1-15.5,22.5
		c-0.9,4.8-3.3,9-6.7,12.2c1.6,2.6,2.5,5.7,2.5,9c0,6.7-3.8,12.5-9.3,15.4c1.1,2.1,1.8,4.5,1.8,7.1c0,6.7-4.4,12.3-10.5,14.2
		c1,1.7,1.5,3.7,1.5,5.8c0,4.6-2.6,8.5-6.3,10.6c-0.2,3.2-1.9,6-4.4,7.7c0.9,1.2,1.4,2.6,1.4,4.2c0,3.8-3.1,7-7,7c-3.8,0-7-3.1-7-7
		c0-1.5,0.5-2.9,1.3-4.1c-2.8-1.8-4.6-4.9-4.6-8.5c0-2.3,0.8-4.5,2.1-6.2c-5.1-1.4-8.8-6-8.8-11.6c0-1.2,0.2-2.4,0.5-3.5
		c-7.8-3.1-13.3-10.6-13.3-19.5c0-5.3,2-10.2,5.3-13.9C834.1,503.1,830.8,499.8,828.6,495.8L828.6,495.8z"/>
	<path class="st7" d="M833.9,392.7c5.2,0,9.4,4.2,9.4,9.4c0,5.2-4.2,9.4-9.4,9.4c-5.2,0-9.4-4.2-9.4-9.4
		C824.5,396.9,828.7,392.7,833.9,392.7L833.9,392.7z"/>
	<path class="st7" d="M884.7,392c9.8,0,17.7,7.9,17.7,17.7s-7.9,17.7-17.7,17.7c-9.8,0-17.7-7.9-17.7-17.7S874.9,392,884.7,392
		L884.7,392z"/>
	<path class="st7" d="M857.4,367c3.3,0,6.1,2.7,6.1,6.1c0,3.3-2.7,6.1-6.1,6.1c-3.3,0-6.1-2.7-6.1-6.1
		C851.4,369.8,854.1,367,857.4,367L857.4,367z"/>
	<path class="st5" d="M846.7,728.6c2.2,0,4,1.8,4,4c0,2.2-1.8,4-4,4s-4-1.8-4-4C842.7,730.4,844.5,728.6,846.7,728.6L846.7,728.6z"
		/>
	<path class="st5" d="M821.6,744.5c3.3,0,5.9,2.6,5.9,5.9c0,3.3-2.6,5.9-5.9,5.9c-3.3,0-5.9-2.6-5.9-5.9
		C815.7,747.1,818.3,744.5,821.6,744.5L821.6,744.5z"/>
	<path class="st5" d="M905.7,750.8c2,0,3.6,1.6,3.6,3.6c0,2-1.6,3.6-3.6,3.6s-3.6-1.6-3.6-3.6C902.1,752.4,903.7,750.8,905.7,750.8
		L905.7,750.8z"/>
	<path class="st7" d="M899.2,656.8L899.2,656.8c-5.3-22.7-4.1-70-4.1-70c0-1.1-0.4-2.1-1.1-2.9c-0.8-0.8-1.8-1.2-2.9-1.2H834
		c-1.1,0-2.1,0.4-2.9,1.2c-0.8,0.8-1.2,1.8-1.1,2.9c0,0,1.4,47.3-3.9,70c-6,25.9-36.1,85.4-36.1,85.4c-0.1,0.1-0.1,0.2-0.1,0.3
		c-3.2,8.1-1.5,16.9,4.6,23.8c5.8,6.4,15,10.3,24.8,10.3c26,0,60.6,0,86.6,0c9.8,0,19-3.9,24.8-10.3c6.2-6.8,7.8-15.7,4.6-23.8
		c0-0.1-0.1-0.2-0.1-0.3C935.2,742.2,905.2,682.7,899.2,656.8L899.2,656.8z M891.3,658.6L891.3,658.6c5.9,25.7,34.9,83.4,36.6,87
		c2,5.2,0.8,10.9-3.2,15.3c-4.4,4.9-11.4,7.7-18.8,7.7c0,0-86.6,0-86.6,0c-7.4,0-14.5-2.8-18.8-7.7c-4-4.4-5.2-10.1-3.2-15.3
		c1.8-3.6,30.7-61.4,36.6-87c4.5-19.3,4.4-55.7,4.2-67.9H887C886.9,602.9,886.9,639.3,891.3,658.6L891.3,658.6z"/>
	<path class="st8" d="M902.5,586.7c0-2.5-2-4.5-4.5-4.5c-14,0-56.7,0-70.7,0c-2.5,0-4.5,2-4.5,4.5c0,0,0,0,0,0c0,2.5,2,4.5,4.5,4.5
		c14,0,56.7,0,70.7,0C900.5,591.2,902.5,589.2,902.5,586.7C902.5,586.7,902.5,586.7,902.5,586.7L902.5,586.7z"/>
	<path class="st1" d="M403.8,753L403.8,753c1.8,7.6,10.6,25.2,10.6,25.2c0.8,1.9,0.3,4.1-1.1,5.7c-1.5,1.6-3.8,2.6-6.4,2.6
		c-7.6,0-17.7,0-25.3,0c-2.5,0-4.9-1-6.4-2.6c-1.5-1.6-1.9-3.8-1.1-5.7c0,0,8.9-17.5,10.6-25.2c1.6-6.7,1.2-20.7,1.2-20.7h16.7
		C402.6,732.3,402.3,746.3,403.8,753L403.8,753z"/>
	<path class="st1" d="M405.9,731c0-0.7-0.6-1.3-1.3-1.3c-4.1,0-16.5,0-20.6,0c-0.7,0-1.3,0.6-1.3,1.3l0,0c0,0.7,0.6,1.3,1.3,1.3
		c4.1,0,16.5,0,20.6,0C405.4,732.3,405.9,731.7,405.9,731L405.9,731L405.9,731z"/>
	<path class="st1" d="M447.2,753.2L447.2,753.2c1.8,7.6,10.6,25.2,10.6,25.2c0.8,1.9,0.3,4.1-1.1,5.7c-1.5,1.6-3.8,2.6-6.4,2.6
		c-7.6,0-17.7,0-25.3,0c-2.5,0-4.9-1-6.4-2.6c-1.5-1.6-1.9-3.8-1.1-5.7c0,0,8.9-17.5,10.6-25.2c1.6-6.7,1.2-20.7,1.2-20.7H446
		C446,732.5,445.7,746.4,447.2,753.2L447.2,753.2z"/>
	<path class="st1" d="M449.3,731.1c0-0.7-0.6-1.3-1.3-1.3c-4.1,0-16.5,0-20.6,0c-0.7,0-1.3,0.6-1.3,1.3l0,0c0,0.7,0.6,1.3,1.3,1.3
		c4.1,0,16.5,0,20.6,0C448.7,732.5,449.3,731.9,449.3,731.1L449.3,731.1L449.3,731.1z"/>
	<path class="st5" d="M672.4,509.4c16.3,5.1,28.1,20.4,28.1,38.3c0,22.2-18,40.2-40.2,40.2c-22.2,0-40.2-18-40.2-40.2
		c0-17.9,11.8-33.2,28.1-38.3v-68.9h24.2V509.4L672.4,509.4z"/>
	<path class="st7" d="M653.1,401.7c2.9,0,5.2,2.3,5.2,5.2c0,2.9-2.3,5.2-5.2,5.2c-2.9,0-5.2-2.3-5.2-5.2
		C648,404.1,650.3,401.7,653.1,401.7L653.1,401.7z"/>
	<path class="st7" d="M665.9,421.8c1.7,0,3.2,1.4,3.2,3.2c0,1.7-1.4,3.2-3.2,3.2c-1.7,0-3.2-1.4-3.2-3.2
		C662.8,423.2,664.2,421.8,665.9,421.8L665.9,421.8z"/>
	<path class="st7" d="M664.1,374.4c4.8,0,8.7,3.9,8.7,8.7c0,4.8-3.9,8.7-8.7,8.7c-4.8,0-8.7-3.9-8.7-8.7
		C655.3,378.3,659.2,374.4,664.1,374.4L664.1,374.4z"/>
	<path class="st9" d="M696.1,529.5c2.8,5.4,4.3,11.6,4.3,18.1c0,22.2-18,40.2-40.2,40.2c-22.2,0-40.2-18-40.2-40.2
		c0-6.5,1.6-12.7,4.3-18.1H696.1L696.1,529.5z"/>
	<path class="st5" d="M653.2,558.7c3.9,0,7,3.2,7,7c0,3.9-3.2,7-7,7c-3.9,0-7-3.2-7-7C646.2,561.8,649.3,558.7,653.2,558.7
		L653.2,558.7z"/>
	<path class="st5" d="M646.3,548.1c1.8,0,3.3,1.5,3.3,3.3s-1.5,3.3-3.3,3.3c-1.8,0-3.3-1.5-3.3-3.3S644.4,548.1,646.3,548.1
		L646.3,548.1z"/>
	<path class="st5" d="M636.5,561.3c0.9,0,1.7,0.7,1.7,1.7c0,0.9-0.7,1.7-1.7,1.7c-0.9,0-1.7-0.7-1.7-1.7
		C634.9,562.1,635.6,561.3,636.5,561.3L636.5,561.3z"/>
	<path class="st5" d="M687.3,554.7c0.9,0,1.7,0.7,1.7,1.7c0,0.9-0.7,1.7-1.7,1.7c-0.9,0-1.7-0.7-1.7-1.7
		C685.6,555.5,686.4,554.7,687.3,554.7L687.3,554.7z"/>
	<path class="st5" d="M684,538.7c1.8,0,3.3,1.5,3.3,3.3s-1.5,3.3-3.3,3.3c-1.8,0-3.3-1.5-3.3-3.3S682.2,538.7,684,538.7L684,538.7z"
		/>
	<path class="st7" d="M674.7,507.7v-67.2c0-1.3-1.1-2.4-2.4-2.4h-24.2c-1.3,0-2.4,1.1-2.4,2.4v67.2c-16.4,5.9-28.1,21.6-28.1,40
		c0,23.5,19.1,42.5,42.5,42.5s42.5-19.1,42.5-42.5C702.8,529.3,691.1,513.6,674.7,507.7L674.7,507.7z M670,509.4c0,1,0.7,2,1.7,2.3
		c15.3,4.8,26.4,19.2,26.4,36c0,20.9-16.9,37.8-37.8,37.8c-20.9,0-37.8-16.9-37.8-37.8c0-16.9,11.1-31.2,26.4-36
		c1-0.3,1.7-1.2,1.7-2.3v-66.5H670V509.4L670,509.4z"/>
	<path class="st8" d="M682.3,440.4c0-1.8-1.5-3.3-3.3-3.3c-8.2,0-29.3,0-37.5,0c-1.8,0-3.3,1.5-3.3,3.3c0,0,0,0,0,0
		c0,1.8,1.5,3.3,3.3,3.3c8.2,0,29.3,0,37.5,0C680.8,443.7,682.3,442.3,682.3,440.4C682.3,440.4,682.3,440.4,682.3,440.4L682.3,440.4
		z"/>
	<path class="st5" d="M517.4,728.4c16.3,5.1,28.1,20.4,28.1,38.3c0,22.2-18,40.2-40.2,40.2c-22.2,0-40.2-18-40.2-40.2
		c0-17.9,11.8-33.2,28.1-38.3v-68.9h24.2V728.4L517.4,728.4z"/>
	<path class="st10" d="M541.2,748.6c2.8,5.5,4.3,11.6,4.3,18.1c0,22.2-18,40.2-40.2,40.2c-22.2,0-40.2-18-40.2-40.2
		c0-6.5,1.6-12.7,4.3-18.1H541.2L541.2,748.6z"/>
	<path class="st5" d="M498.3,777.7c3.9,0,7,3.2,7,7s-3.2,7-7,7c-3.9,0-7-3.2-7-7S494.4,777.7,498.3,777.7L498.3,777.7z"/>
	<path class="st5" d="M491.3,767.1c1.8,0,3.3,1.5,3.3,3.3c0,1.8-1.5,3.3-3.3,3.3s-3.3-1.5-3.3-3.3
		C488,768.6,489.5,767.1,491.3,767.1L491.3,767.1z"/>
	<path class="st5" d="M481.6,780.4c0.9,0,1.7,0.7,1.7,1.7c0,0.9-0.7,1.7-1.7,1.7c-0.9,0-1.7-0.7-1.7-1.7
		C479.9,781.1,480.7,780.4,481.6,780.4L481.6,780.4z"/>
	<path class="st5" d="M532.4,773.8c0.9,0,1.7,0.7,1.7,1.7c0,0.9-0.7,1.7-1.7,1.7s-1.7-0.7-1.7-1.7
		C530.7,774.5,531.5,773.8,532.4,773.8L532.4,773.8z"/>
	<path class="st5" d="M529.1,757.8c1.8,0,3.3,1.5,3.3,3.3c0,1.8-1.5,3.3-3.3,3.3c-1.8,0-3.3-1.5-3.3-3.3
		C525.7,759.3,527.2,757.8,529.1,757.8L529.1,757.8z"/>
	<path class="st7" d="M519.8,726.7v-67.2c0-1.3-1.1-2.4-2.4-2.4h-24.2c-1.3,0-2.4,1.1-2.4,2.4v67.2c-16.4,5.9-28.1,21.6-28.1,40
		c0,23.5,19.1,42.5,42.5,42.5c23.5,0,42.5-19.1,42.5-42.5C547.9,748.3,536.2,732.6,519.8,726.7L519.8,726.7z M515.1,728.4
		c0,1,0.7,2,1.7,2.3c15.3,4.8,26.4,19.2,26.4,36c0,20.9-16.9,37.8-37.8,37.8c-20.9,0-37.8-16.9-37.8-37.8c0-16.9,11.1-31.2,26.4-36
		c1-0.3,1.7-1.2,1.7-2.3v-66.5h19.5V728.4L515.1,728.4z"/>
	<path class="st8" d="M527.4,659.5c0-1.8-1.5-3.3-3.3-3.3c-8.2,0-29.3,0-37.5,0c-1.8,0-3.3,1.5-3.3,3.3v0c0,1.8,1.5,3.3,3.3,3.3
		c8.2,0,29.3,0,37.5,0C525.9,662.8,527.4,661.3,527.4,659.5L527.4,659.5L527.4,659.5z"/>
	<path class="st5" d="M1150.8,697.6H987.6c0,0,0,108.4,0,165.1c0,18.6,15,33.6,33.6,33.6c28.1,0,67.9,0,96,0
		c18.6,0,33.6-15,33.6-33.6C1150.8,806.1,1150.8,697.6,1150.8,697.6L1150.8,697.6z"/>
	<polygon class="st11" points="1146,617.7 1134.4,611.9 1036,807.9 1047.5,813.7 1146,617.7 	"/>
	<path class="st12" d="M1136.8,604.7c-8.6-10.6-8.6-31.2-2-44.3c7.9-15.7,24.2-18.9,38.6-11.6c14.4,7.3,21.6,22.2,13.7,37.9
		c-6.6,13.1-23.1,25.5-36.7,24.9l-8.1,16.1l-13.6-6.9L1136.8,604.7L1136.8,604.7z"/>
	<path class="st12" d="M1150.8,777.3H987.6c0,0,0,50.2,0,85.5c0,8.9,3.5,17.5,9.8,23.8c6.3,6.3,14.9,9.8,23.8,9.8
		c28.1,0,67.9,0,96,0c8.9,0,17.5-3.5,23.8-9.8c6.3-6.3,9.8-14.9,9.8-23.8C1150.8,827.5,1150.8,777.3,1150.8,777.3L1150.8,777.3z"/>
	<path class="st13" d="M1029.2,803.2c6.7,0,12.1,5.4,12.1,12.1c0,6.7-5.4,12.1-12.1,12.1c-6.7,0-12.1-5.4-12.1-12.1
		C1017.1,808.6,1022.5,803.2,1029.2,803.2L1029.2,803.2z"/>
	<path class="st13" d="M1048.7,842.3c2.5,0,4.6,2.1,4.6,4.6c0,2.5-2.1,4.6-4.6,4.6c-2.5,0-4.6-2.1-4.6-4.6
		C1044.1,844.4,1046.2,842.3,1048.7,842.3L1048.7,842.3z"/>
	<path class="st13" d="M1014.3,851.2c1.5,0,2.8,1.2,2.8,2.8c0,1.5-1.2,2.8-2.8,2.8c-1.5,0-2.8-1.2-2.8-2.8
		C1011.5,852.4,1012.8,851.2,1014.3,851.2L1014.3,851.2z"/>
	<path class="st13" d="M1113.1,823.1c1.5,0,2.8,1.2,2.8,2.8c0,1.5-1.2,2.8-2.8,2.8c-1.5,0-2.8-1.2-2.8-2.8
		C1110.3,824.4,1111.5,823.1,1113.1,823.1L1113.1,823.1z"/>
	<path class="st13" d="M1069.1,868.2c2.9,0,5.3,2.4,5.3,5.3c0,2.9-2.4,5.3-5.3,5.3c-2.9,0-5.3-2.4-5.3-5.3
		C1063.8,870.6,1066.2,868.2,1069.1,868.2L1069.1,868.2z"/>
	<path class="st13" d="M1127.3,805.7c2.9,0,5.3,2.4,5.3,5.3c0,2.9-2.4,5.3-5.3,5.3c-2.9,0-5.3-2.4-5.3-5.3
		C1122,808.1,1124.4,805.7,1127.3,805.7L1127.3,805.7z"/>
	<path class="st7" d="M1154.6,697.6c0-2.1-1.7-3.8-3.8-3.8H987.6c-2.1,0-3.8,1.7-3.8,3.8c0,0,0,111.1,0,167.2
		c0,9.4,3.7,18.3,10.3,25c6.6,6.6,15.6,10.3,25,10.3c28.8,0,71.3,0,100.1,0c9.4,0,18.3-3.7,25-10.3s10.3-15.6,10.3-25
		C1154.6,808.8,1154.6,697.6,1154.6,697.6L1154.6,697.6z M1147,701.4v163.4c0,7.4-2.9,14.4-8.1,19.6c-5.2,5.2-12.3,8.1-19.6,8.1
		c-28.8,0-71.3,0-100.1,0c-7.4,0-14.4-2.9-19.6-8.1c-5.2-5.2-8.1-12.3-8.1-19.6V701.4H1147L1147,701.4L1147,701.4z"/>
	<path class="st7" d="M1164.9,697.6c0-5.8-4.7-10.5-10.5-10.5c-33.4,0-137.1,0-170.5,0c-5.8,0-10.5,4.7-10.5,10.5c0,0,0,0,0,0
		c0,5.8,4.7,10.4,10.5,10.4c33.4,0,137.1,0,170.5,0C1160.2,708.1,1164.9,703.4,1164.9,697.6C1164.9,697.6,1164.9,697.6,1164.9,697.6
		L1164.9,697.6z"/>
	<path class="st5" d="M1475.2,343.1h71.8c0,0,0,47.7,0,72.6c0,8.2-6.6,14.8-14.8,14.8c-12.3,0-29.9,0-42.2,0
		c-8.2,0-14.8-6.6-14.8-14.8C1475.2,390.7,1475.2,343.1,1475.2,343.1L1475.2,343.1z"/>
	<path class="st14" d="M1475.2,378.1h71.8c0,0,0,22.1,0,37.6c0,3.9-1.6,7.7-4.3,10.4c-2.8,2.8-6.5,4.3-10.4,4.3
		c-12.3,0-29.9,0-42.2,0c-3.9,0-7.7-1.6-10.4-4.3c-2.8-2.8-4.3-6.5-4.3-10.4C1475.2,400.2,1475.2,378.1,1475.2,378.1L1475.2,378.1z"
		/>
	<path class="st13" d="M1497.1,400.7c-2.9,0-5.3,2.4-5.3,5.3c0,2.9,2.4,5.3,5.3,5.3c2.9,0,5.3-2.4,5.3-5.3
		C1502.4,403.1,1500,400.7,1497.1,400.7L1497.1,400.7z"/>
	<path class="st13" d="M1520.1,406.7c-1.1,0-2,0.9-2,2c0,1.1,0.9,2,2,2c1.1,0,2-0.9,2-2C1522.1,407.6,1521.2,406.7,1520.1,406.7
		L1520.1,406.7z"/>
	<path class="st13" d="M1535.2,410.6c-0.7,0-1.2,0.5-1.2,1.2c0,0.7,0.5,1.2,1.2,1.2c0.7,0,1.2-0.5,1.2-1.2
		C1536.4,411.1,1535.9,410.6,1535.2,410.6L1535.2,410.6z"/>
	<path class="st13" d="M1490.6,387.8c-0.7,0-1.2,0.5-1.2,1.2c0,0.7,0.5,1.2,1.2,1.2c0.7,0,1.2-0.5,1.2-1.2
		C1491.8,388.4,1491.3,387.8,1490.6,387.8L1490.6,387.8z"/>
	<path class="st13" d="M1511.1,418.1c-1.3,0-2.3,1-2.3,2.3c0,1.3,1,2.3,2.3,2.3c1.3,0,2.3-1,2.3-2.3
		C1513.4,419.1,1512.4,418.1,1511.1,418.1L1511.1,418.1z"/>
	<path class="st13" d="M1524.4,386.7c-1.3,0-2.3,1-2.3,2.3c0,1.3,1,2.3,2.3,2.3c1.3,0,2.3-1,2.3-2.3
		C1526.8,387.8,1525.7,386.7,1524.4,386.7L1524.4,386.7z"/>
	<path class="st3" d="M1473.6,343.1c0-0.9,0.7-1.7,1.7-1.7h71.8c0.9,0,1.7,0.7,1.7,1.7c0,0,0,48.9,0,73.5c0,4.1-1.6,8.1-4.5,11
		c-2.9,2.9-6.9,4.5-11,4.5c-12.7,0-31.3,0-44,0c-4.1,0-8.1-1.6-11-4.5c-2.9-2.9-4.5-6.9-4.5-11
		C1473.6,391.9,1473.6,343.1,1473.6,343.1L1473.6,343.1z M1476.9,344.7v71.9c0,3.2,1.3,6.3,3.6,8.6c2.3,2.3,5.4,3.6,8.6,3.6
		c12.7,0,31.3,0,44,0c3.2,0,6.3-1.3,8.6-3.6c2.3-2.3,3.6-5.4,3.6-8.6v-71.9H1476.9L1476.9,344.7L1476.9,344.7z"/>
	<path class="st3" d="M1469,343.1c0-2.5,2.1-4.6,4.6-4.6c14.7,0,60.3,0,75,0c2.5,0,4.6,2.1,4.6,4.6c0,0,0,0,0,0
		c0,2.5-2.1,4.6-4.6,4.6c-14.7,0-60.3,0-75,0C1471.1,347.7,1469,345.6,1469,343.1C1469,343.1,1469,343.1,1469,343.1L1469,343.1z"/>
	<path class="st5" d="M1342.6,343.1h71.8c0,0,0,47.7,0,72.6c0,8.2-6.6,14.8-14.8,14.8c-12.3,0-29.9,0-42.2,0
		c-8.2,0-14.8-6.6-14.8-14.8C1342.6,390.7,1342.6,343.1,1342.6,343.1L1342.6,343.1z"/>
	<path class="st14" d="M1342.6,378.1h71.8c0,0,0,22.1,0,37.6c0,3.9-1.6,7.7-4.3,10.4c-2.8,2.8-6.5,4.3-10.4,4.3
		c-12.3,0-29.9,0-42.2,0c-3.9,0-7.7-1.6-10.4-4.3c-2.8-2.8-4.3-6.5-4.3-10.4C1342.6,400.2,1342.6,378.1,1342.6,378.1L1342.6,378.1z"
		/>
	<path class="st13" d="M1376.2,387.8c-2.9,0-5.3,2.4-5.3,5.3c0,2.9,2.4,5.3,5.3,5.3c2.9,0,5.3-2.4,5.3-5.3
		C1381.5,390.2,1379.1,387.8,1376.2,387.8L1376.2,387.8z"/>
	<path class="st13" d="M1376.5,413c-1.1,0-2,0.9-2,2c0,1.1,0.9,2,2,2c1.1,0,2-0.9,2-2C1378.5,413.9,1377.6,413,1376.5,413
		L1376.5,413z"/>
	<path class="st13" d="M1402.6,410.6c-0.7,0-1.2,0.5-1.2,1.2c0,0.7,0.5,1.2,1.2,1.2s1.2-0.5,1.2-1.2
		C1403.9,411.1,1403.3,410.6,1402.6,410.6L1402.6,410.6z"/>
	<path class="st13" d="M1358,387.8c-0.7,0-1.2,0.5-1.2,1.2c0,0.7,0.5,1.2,1.2,1.2c0.7,0,1.2-0.5,1.2-1.2
		C1359.2,388.4,1358.7,387.8,1358,387.8L1358,387.8z"/>
	<path class="st13" d="M1361.5,404.3c-1.3,0-2.3,1-2.3,2.3c0,1.3,1,2.3,2.3,2.3c1.3,0,2.3-1,2.3-2.3
		C1363.9,405.4,1362.8,404.3,1361.5,404.3L1361.5,404.3z"/>
	<path class="st13" d="M1400.3,398.5c-1.3,0-2.3,1-2.3,2.3c0,1.3,1,2.3,2.3,2.3c1.3,0,2.3-1,2.3-2.3
		C1402.6,399.5,1401.6,398.5,1400.3,398.5L1400.3,398.5z"/>
	<path class="st3" d="M1341,343.1c0-0.9,0.7-1.7,1.7-1.7h71.8c0.9,0,1.7,0.7,1.7,1.7c0,0,0,48.9,0,73.5c0,4.1-1.6,8.1-4.5,11
		c-2.9,2.9-6.9,4.5-11,4.5c-12.7,0-31.3,0-44,0c-4.1,0-8.1-1.6-11-4.5c-2.9-2.9-4.5-6.9-4.5-11C1341,391.9,1341,343.1,1341,343.1
		L1341,343.1z M1344.3,344.7v71.9c0,3.2,1.3,6.3,3.6,8.6c2.3,2.3,5.4,3.6,8.6,3.6c12.7,0,31.3,0,44,0c3.2,0,6.3-1.3,8.6-3.6
		c2.3-2.3,3.6-5.4,3.6-8.6v-71.9H1344.3L1344.3,344.7L1344.3,344.7z"/>
	<path class="st3" d="M1336.4,343.1c0-2.5,2.1-4.6,4.6-4.6c14.7,0,60.3,0,75,0c2.5,0,4.6,2.1,4.6,4.6c0,0,0,0,0,0
		c0,2.5-2.1,4.6-4.6,4.6c-14.7,0-60.3,0-75,0C1338.5,347.7,1336.4,345.6,1336.4,343.1C1336.4,343.1,1336.4,343.1,1336.4,343.1
		L1336.4,343.1z"/>
	<path class="st5" d="M1291.9,707.8h-34.7c0,0,0,104.5,0,146.6c0,4.6,1.8,9,5.1,12.3c3.3,3.3,7.7,5.1,12.3,5.1l0,0
		c4.6,0,9-1.8,12.3-5.1c3.3-3.3,5.1-7.7,5.1-12.3C1291.9,812.3,1291.9,707.8,1291.9,707.8L1291.9,707.8z"/>
	<path class="st9" d="M1291.9,769.9h-34.7c0,0,0,55.4,0,84.5c0,4.6,1.8,9,5.1,12.3c3.3,3.3,7.7,5.1,12.3,5.1l0,0
		c4.6,0,9-1.8,12.3-5.1c3.3-3.3,5.1-7.7,5.1-12.3C1291.9,825.4,1291.9,769.9,1291.9,769.9L1291.9,769.9z"/>
	<path class="st5" d="M1269.3,784.7c2.8,0,5,2.2,5,5c0,2.8-2.2,5-5,5c-2.8,0-5-2.2-5-5C1264.3,787,1266.5,784.7,1269.3,784.7
		L1269.3,784.7z"/>
	<path class="st5" d="M1280.5,796.5c1.3,0,2.4,1.1,2.4,2.4c0,1.3-1.1,2.4-2.4,2.4s-2.4-1.1-2.4-2.4
		C1278.1,797.6,1279.2,796.5,1280.5,796.5L1280.5,796.5z"/>
	<path class="st5" d="M1268,811.4c1.8,0,3.3,1.5,3.3,3.3c0,1.8-1.5,3.3-3.3,3.3c-1.8,0-3.3-1.5-3.3-3.3
		C1264.7,812.8,1266.2,811.4,1268,811.4L1268,811.4z"/>
	<path class="st5" d="M1265.8,820.5c1.1,0,2,0.9,2,2c0,1.1-0.9,2-2,2s-2-0.9-2-2C1263.8,821.4,1264.7,820.5,1265.8,820.5
		L1265.8,820.5z"/>
	<path class="st5" d="M1279.8,835.2c1.1,0,2,0.9,2,2s-0.9,2-2,2c-1.1,0-2-0.9-2-2S1278.7,835.2,1279.8,835.2L1279.8,835.2z"/>
	<path class="st7" d="M1293.9,707.8c0-1.1-0.9-2-2-2h-34.7c-1.1,0-2,0.9-2,2c0,0,0,104.5,0,146.6c0,5.1,2,10.1,5.7,13.7
		c3.6,3.6,8.6,5.7,13.7,5.7l0,0c5.1,0,10.1-2,13.7-5.7c3.6-3.6,5.7-8.6,5.7-13.7C1293.9,812.3,1293.9,707.8,1293.9,707.8
		L1293.9,707.8z M1289.9,709.8c0,14.7,0,105.9,0,144.6c0,4.1-1.6,8-4.5,10.9c-2.9,2.9-6.8,4.5-10.9,4.5l0,0c-4.1,0-8-1.6-10.9-4.5
		c-2.9-2.9-4.5-6.8-4.5-10.9c0-38.7,0-130,0-144.6H1289.9L1289.9,709.8z"/>
	<path class="st8" d="M1297.6,707.8c0-0.7-0.3-1.4-0.8-2c-0.5-0.5-1.2-0.8-2-0.8c-8.2,0-32.4,0-40.6,0c-0.7,0-1.4,0.3-2,0.8
		c-0.5,0.5-0.8,1.2-0.8,2l0,0c0,0.7,0.3,1.4,0.8,2c0.5,0.5,1.2,0.8,2,0.8c8.2,0,32.4,0,40.6,0c0.7,0,1.4-0.3,2-0.8
		C1297.3,709.2,1297.6,708.5,1297.6,707.8L1297.6,707.8L1297.6,707.8z"/>
	<path class="st5" d="M1353,707.8h-34.7c0,0,0,104.5,0,146.6c0,4.6,1.8,9,5.1,12.3c3.3,3.3,7.7,5.1,12.3,5.1l0,0
		c4.6,0,9-1.8,12.3-5.1c3.3-3.3,5.1-7.7,5.1-12.3C1353,812.3,1353,707.8,1353,707.8L1353,707.8z"/>
	<path class="st6" d="M1353,769.9h-34.7c0,0,0,55.4,0,84.5c0,4.6,1.8,9,5.1,12.3c3.3,3.3,7.7,5.1,12.3,5.1l0,0c4.6,0,9-1.8,12.3-5.1
		c3.3-3.3,5.1-7.7,5.1-12.3C1353,825.4,1353,769.9,1353,769.9L1353,769.9z"/>
	<path class="st5" d="M1330.4,784.7c2.8,0,5,2.2,5,5c0,2.8-2.2,5-5,5c-2.8,0-5-2.2-5-5C1325.4,787,1327.6,784.7,1330.4,784.7
		L1330.4,784.7z"/>
	<path class="st5" d="M1341.5,796.5c1.3,0,2.4,1.1,2.4,2.4c0,1.3-1.1,2.4-2.4,2.4s-2.4-1.1-2.4-2.4
		C1339.2,797.6,1340.2,796.5,1341.5,796.5L1341.5,796.5z"/>
	<path class="st5" d="M1329.1,811.4c1.8,0,3.3,1.5,3.3,3.3c0,1.8-1.5,3.3-3.3,3.3c-1.8,0-3.3-1.5-3.3-3.3
		C1325.8,812.8,1327.3,811.4,1329.1,811.4L1329.1,811.4z"/>
	<path class="st5" d="M1326.9,820.5c1.1,0,2,0.9,2,2c0,1.1-0.9,2-2,2c-1.1,0-2-0.9-2-2C1324.9,821.4,1325.8,820.5,1326.9,820.5
		L1326.9,820.5z"/>
	<path class="st5" d="M1340.8,835.2c1.1,0,2,0.9,2,2s-0.9,2-2,2s-2-0.9-2-2S1339.7,835.2,1340.8,835.2L1340.8,835.2z"/>
	<path class="st7" d="M1355,707.8c0-1.1-0.9-2-2-2h-34.7c-1.1,0-2,0.9-2,2c0,0,0,104.5,0,146.6c0,5.1,2,10.1,5.7,13.7
		c3.6,3.6,8.6,5.7,13.7,5.7l0,0c5.1,0,10.1-2,13.7-5.7c3.6-3.6,5.7-8.6,5.7-13.7C1355,812.3,1355,707.8,1355,707.8L1355,707.8z
		 M1351,709.8c0,14.7,0,105.9,0,144.6c0,4.1-1.6,8-4.5,10.9c-2.9,2.9-6.8,4.5-10.9,4.5l0,0c-4.1,0-8-1.6-10.9-4.5
		c-2.9-2.9-4.5-6.8-4.5-10.9c0-38.7,0-130,0-144.6H1351L1351,709.8z"/>
	<path class="st8" d="M1358.7,707.8c0-0.7-0.3-1.4-0.8-2c-0.5-0.5-1.2-0.8-2-0.8c-8.2,0-32.4,0-40.6,0c-0.7,0-1.4,0.3-2,0.8
		c-0.5,0.5-0.8,1.2-0.8,2l0,0c0,0.7,0.3,1.4,0.8,2c0.5,0.5,1.2,0.8,2,0.8c8.2,0,32.4,0,40.6,0c0.7,0,1.4-0.3,2-0.8
		C1358.4,709.2,1358.7,708.5,1358.7,707.8L1358.7,707.8L1358.7,707.8z"/>
	<path class="st5" d="M1414.1,707.8h-34.7c0,0,0,104.5,0,146.6c0,4.6,1.8,9,5.1,12.3c3.3,3.3,7.7,5.1,12.3,5.1c0,0,0,0,0,0
		c4.6,0,9-1.8,12.3-5.1c3.3-3.3,5.1-7.7,5.1-12.3C1414.1,812.3,1414.1,707.8,1414.1,707.8L1414.1,707.8z"/>
	<path class="st10" d="M1414.1,769.9h-34.7c0,0,0,55.4,0,84.5c0,4.6,1.8,9,5.1,12.3c3.3,3.3,7.7,5.1,12.3,5.1l0,0
		c4.6,0,9-1.8,12.3-5.1c3.3-3.3,5.1-7.7,5.1-12.3C1414.1,825.4,1414.1,769.9,1414.1,769.9L1414.1,769.9z"/>
	<path class="st5" d="M1391.4,784.7c2.8,0,5,2.2,5,5c0,2.8-2.2,5-5,5c-2.8,0-5-2.2-5-5C1386.4,787,1388.7,784.7,1391.4,784.7
		L1391.4,784.7z"/>
	<path class="st5" d="M1402.6,796.5c1.3,0,2.4,1.1,2.4,2.4c0,1.3-1.1,2.4-2.4,2.4c-1.3,0-2.4-1.1-2.4-2.4
		C1400.3,797.6,1401.3,796.5,1402.6,796.5L1402.6,796.5z"/>
	<path class="st5" d="M1390.1,811.4c1.8,0,3.3,1.5,3.3,3.3c0,1.8-1.5,3.3-3.3,3.3c-1.8,0-3.3-1.5-3.3-3.3
		C1386.9,812.8,1388.3,811.4,1390.1,811.4L1390.1,811.4z"/>
	<path class="st5" d="M1388,820.5c1.1,0,2,0.9,2,2c0,1.1-0.9,2-2,2c-1.1,0-2-0.9-2-2C1386,821.4,1386.9,820.5,1388,820.5L1388,820.5
		z"/>
	<path class="st5" d="M1401.9,835.2c1.1,0,2,0.9,2,2s-0.9,2-2,2s-2-0.9-2-2S1400.8,835.2,1401.9,835.2L1401.9,835.2z"/>
	<path class="st7" d="M1416.1,707.8c0-1.1-0.9-2-2-2h-34.7c-1.1,0-2,0.9-2,2c0,0,0,104.5,0,146.6c0,5.1,2,10.1,5.7,13.7
		c3.6,3.6,8.6,5.7,13.7,5.7l0,0c5.1,0,10.1-2,13.7-5.7c3.6-3.6,5.7-8.6,5.7-13.7C1416.1,812.3,1416.1,707.8,1416.1,707.8
		L1416.1,707.8z M1412.1,709.8c0,14.7,0,105.9,0,144.6c0,4.1-1.6,8-4.5,10.9c-2.9,2.9-6.8,4.5-10.9,4.5l0,0c-4.1,0-8-1.6-10.9-4.5
		c-2.9-2.9-4.5-6.8-4.5-10.9c0-38.7,0-130,0-144.6H1412.1L1412.1,709.8z"/>
	<path class="st8" d="M1419.8,707.8c0-0.7-0.3-1.4-0.8-2c-0.5-0.5-1.2-0.8-2-0.8c-8.2,0-32.4,0-40.6,0c-0.7,0-1.4,0.3-2,0.8
		c-0.5,0.5-0.8,1.2-0.8,2l0,0c0,0.7,0.3,1.4,0.8,2c0.5,0.5,1.2,0.8,2,0.8c8.2,0,32.4,0,40.6,0c0.7,0,1.4-0.3,2-0.8
		C1419.5,709.2,1419.8,708.5,1419.8,707.8L1419.8,707.8L1419.8,707.8z"/>
	<path class="st5" d="M1114.9,319.8h-20.2c0,0,0,60.8,0,85.4c0,2.7,1.1,5.2,3,7.1c1.9,1.9,4.5,3,7.1,3l0,0c2.7,0,5.2-1.1,7.1-3
		c1.9-1.9,3-4.5,3-7.1C1114.9,380.6,1114.9,319.8,1114.9,319.8L1114.9,319.8z"/>
	<path class="st15" d="M1114.9,356h-20.2c0,0,0,32.3,0,49.2c0,2.7,1.1,5.2,3,7.1c1.9,1.9,4.5,3,7.1,3l0,0c2.7,0,5.2-1.1,7.1-3
		c1.9-1.9,3-4.5,3-7.1C1114.9,388.3,1114.9,356,1114.9,356L1114.9,356z"/>
	<path class="st5" d="M1101.7,364.6c1.6,0,2.9,1.3,2.9,2.9c0,1.6-1.3,2.9-2.9,2.9c-1.6,0-2.9-1.3-2.9-2.9
		C1098.8,365.9,1100.1,364.6,1101.7,364.6L1101.7,364.6z"/>
	<path class="st5" d="M1108.2,371.5c0.8,0,1.4,0.6,1.4,1.4c0,0.8-0.6,1.4-1.4,1.4c-0.8,0-1.4-0.6-1.4-1.4
		C1106.8,372.1,1107.4,371.5,1108.2,371.5L1108.2,371.5z"/>
	<path class="st5" d="M1100.9,380.1c1,0,1.9,0.8,1.9,1.9c0,1-0.8,1.9-1.9,1.9s-1.9-0.8-1.9-1.9C1099,381,1099.9,380.1,1100.9,380.1
		L1100.9,380.1z"/>
	<path class="st5" d="M1099.7,385.4c0.6,0,1.2,0.5,1.2,1.2c0,0.6-0.5,1.2-1.2,1.2c-0.6,0-1.2-0.5-1.2-1.2
		C1098.5,385.9,1099,385.4,1099.7,385.4L1099.7,385.4z"/>
	<path class="st5" d="M1107.8,394c0.6,0,1.2,0.5,1.2,1.2c0,0.6-0.5,1.2-1.2,1.2c-0.6,0-1.2-0.5-1.2-1.2
		C1106.6,394.5,1107.2,394,1107.8,394L1107.8,394z"/>
	<path class="st3" d="M1116,319.8c0-0.6-0.5-1.2-1.2-1.2h-20.2c-0.6,0-1.2,0.5-1.2,1.2c0,0,0,60.8,0,85.4c0,3,1.2,5.9,3.3,8
		c2.1,2.1,5,3.3,8,3.3l0,0c3,0,5.9-1.2,8-3.3c2.1-2.1,3.3-5,3.3-8C1116,380.6,1116,319.8,1116,319.8L1116,319.8z M1113.7,321
		c0,8.5,0,61.7,0,84.2c0,2.4-0.9,4.6-2.6,6.3c-1.7,1.7-3.9,2.6-6.3,2.6l0,0c-2.4,0-4.6-0.9-6.3-2.6c-1.7-1.7-2.6-3.9-2.6-6.3
		c0-22.5,0-75.7,0-84.2H1113.7L1113.7,321z"/>
	<path class="st8" d="M1118.2,319.8c0-0.4-0.2-0.8-0.5-1.1c-0.3-0.3-0.7-0.5-1.1-0.5c-4.8,0-18.9,0-23.6,0c-0.4,0-0.8,0.2-1.1,0.5
		c-0.3,0.3-0.5,0.7-0.5,1.1l0,0c0,0.4,0.2,0.8,0.5,1.1c0.3,0.3,0.7,0.5,1.1,0.5c4.8,0,18.9,0,23.6,0c0.4,0,0.8-0.2,1.1-0.5
		C1118,320.7,1118.2,320.3,1118.2,319.8L1118.2,319.8L1118.2,319.8z"/>
	<path class="st5" d="M1079.3,319.2h-20.2c0,0,0,60.8,0,85.4c0,2.7,1.1,5.3,3,7.1c1.9,1.9,4.5,3,7.1,3l0,0c2.7,0,5.3-1.1,7.1-3
		c1.9-1.9,3-4.5,3-7.1C1079.3,380.1,1079.3,319.2,1079.3,319.2L1079.3,319.2z"/>
	<path class="st15" d="M1079.3,355.4h-20.2c0,0,0,32.3,0,49.2c0,2.7,1.1,5.2,3,7.1c1.9,1.9,4.5,3,7.1,3l0,0c2.7,0,5.3-1.1,7.1-3
		c1.9-1.9,3-4.5,3-7.1C1079.3,387.7,1079.3,355.4,1079.3,355.4L1079.3,355.4z"/>
	<path class="st5" d="M1066.1,364c1.6,0,2.9,1.3,2.9,2.9c0,1.6-1.3,2.9-2.9,2.9c-1.6,0-2.9-1.3-2.9-2.9
		C1063.2,365.3,1064.5,364,1066.1,364L1066.1,364z"/>
	<path class="st5" d="M1072.6,370.9c0.8,0,1.4,0.6,1.4,1.4c0,0.8-0.6,1.4-1.4,1.4c-0.8,0-1.4-0.6-1.4-1.4
		C1071.3,371.5,1071.9,370.9,1072.6,370.9L1072.6,370.9z"/>
	<path class="st5" d="M1065.4,379.5c1,0,1.9,0.8,1.9,1.9c0,1-0.8,1.9-1.9,1.9s-1.9-0.8-1.9-1.9
		C1063.5,380.4,1064.3,379.5,1065.4,379.5L1065.4,379.5z"/>
	<path class="st5" d="M1064.1,384.8c0.6,0,1.2,0.5,1.2,1.2s-0.5,1.2-1.2,1.2c-0.6,0-1.2-0.5-1.2-1.2S1063.5,384.8,1064.1,384.8
		L1064.1,384.8z"/>
	<path class="st5" d="M1072.2,393.4c0.6,0,1.2,0.5,1.2,1.2c0,0.6-0.5,1.2-1.2,1.2s-1.2-0.5-1.2-1.2
		C1071.1,393.9,1071.6,393.4,1072.2,393.4L1072.2,393.4z"/>
	<path class="st3" d="M1080.5,319.2c0-0.6-0.5-1.2-1.2-1.2h-20.2c-0.6,0-1.2,0.5-1.2,1.2c0,0,0,60.8,0,85.4c0,3,1.2,5.9,3.3,8
		c2.1,2.1,5,3.3,8,3.3l0,0c3,0,5.9-1.2,8-3.3c2.1-2.1,3.3-5,3.3-8C1080.5,380.1,1080.5,319.2,1080.5,319.2L1080.5,319.2z
		 M1078.1,320.4c0,8.5,0,61.7,0,84.2c0,2.4-0.9,4.6-2.6,6.3c-1.7,1.7-3.9,2.6-6.3,2.6l0,0c-2.4,0-4.6-0.9-6.3-2.6
		c-1.7-1.7-2.6-3.9-2.6-6.3c0-22.5,0-75.7,0-84.2H1078.1L1078.1,320.4z"/>
	<path class="st8" d="M1082.6,319.2c0-0.4-0.2-0.8-0.5-1.1c-0.3-0.3-0.7-0.5-1.1-0.5c-4.8,0-18.9,0-23.6,0c-0.4,0-0.8,0.2-1.1,0.5
		c-0.3,0.3-0.5,0.7-0.5,1.1l0,0c0,0.4,0.2,0.8,0.5,1.1c0.3,0.3,0.7,0.5,1.1,0.5c4.8,0,18.9,0,23.6,0c0.4,0,0.8-0.2,1.1-0.5
		C1082.5,320.1,1082.6,319.7,1082.6,319.2L1082.6,319.2L1082.6,319.2z"/>
	<path class="st5" d="M1043.7,319.2h-20.2c0,0,0,60.8,0,85.4c0,2.7,1.1,5.3,3,7.1c1.9,1.9,4.5,3,7.1,3c0,0,0,0,0,0
		c2.7,0,5.2-1.1,7.1-3c1.9-1.9,3-4.5,3-7.1C1043.7,380.1,1043.7,319.2,1043.7,319.2L1043.7,319.2z"/>
	<path class="st15" d="M1043.7,355.4h-20.2c0,0,0,32.3,0,49.2c0,2.7,1.1,5.2,3,7.1c1.9,1.9,4.5,3,7.1,3l0,0c2.7,0,5.3-1.1,7.1-3
		c1.9-1.9,3-4.5,3-7.1C1043.7,387.7,1043.7,355.4,1043.7,355.4L1043.7,355.4z"/>
	<path class="st5" d="M1030.6,364c1.6,0,2.9,1.3,2.9,2.9c0,1.6-1.3,2.9-2.9,2.9c-1.6,0-2.9-1.3-2.9-2.9
		C1027.7,365.3,1029,364,1030.6,364L1030.6,364z"/>
	<path class="st5" d="M1037.1,370.9c0.8,0,1.4,0.6,1.4,1.4c0,0.8-0.6,1.4-1.4,1.4c-0.8,0-1.4-0.6-1.4-1.4
		C1035.7,371.5,1036.3,370.9,1037.1,370.9L1037.1,370.9z"/>
	<path class="st5" d="M1029.8,379.5c1,0,1.9,0.8,1.9,1.9c0,1-0.8,1.9-1.9,1.9c-1,0-1.9-0.8-1.9-1.9
		C1027.9,380.4,1028.8,379.5,1029.8,379.5L1029.8,379.5z"/>
	<path class="st5" d="M1028.6,384.8c0.6,0,1.2,0.5,1.2,1.2s-0.5,1.2-1.2,1.2s-1.2-0.5-1.2-1.2S1027.9,384.8,1028.6,384.8
		L1028.6,384.8z"/>
	<path class="st5" d="M1036.7,393.4c0.6,0,1.2,0.5,1.2,1.2c0,0.6-0.5,1.2-1.2,1.2c-0.6,0-1.2-0.5-1.2-1.2
		C1035.5,393.9,1036,393.4,1036.7,393.4L1036.7,393.4z"/>
	<path class="st3" d="M1044.9,319.2c0-0.6-0.5-1.2-1.2-1.2h-20.2c-0.6,0-1.2,0.5-1.2,1.2c0,0,0,60.8,0,85.4c0,3,1.2,5.9,3.3,8
		c2.1,2.1,5,3.3,8,3.3l0,0c3,0,5.9-1.2,8-3.3c2.1-2.1,3.3-5,3.3-8C1044.9,380.1,1044.9,319.2,1044.9,319.2L1044.9,319.2z
		 M1042.6,320.4c0,8.5,0,61.7,0,84.2c0,2.4-0.9,4.6-2.6,6.3c-1.7,1.7-3.9,2.6-6.3,2.6l0,0c-2.4,0-4.6-0.9-6.3-2.6
		c-1.7-1.7-2.6-3.9-2.6-6.3c0-22.5,0-75.7,0-84.2H1042.6L1042.6,320.4z"/>
	<path class="st8" d="M1047.1,319.2c0-0.4-0.2-0.8-0.5-1.1c-0.3-0.3-0.7-0.5-1.1-0.5c-4.8,0-18.9,0-23.6,0c-0.4,0-0.8,0.2-1.1,0.5
		c-0.3,0.3-0.5,0.7-0.5,1.1l0,0c0,0.4,0.2,0.8,0.5,1.1c0.3,0.3,0.7,0.5,1.1,0.5c4.8,0,18.9,0,23.6,0c0.4,0,0.8-0.2,1.1-0.5
		C1046.9,320.1,1047.1,319.7,1047.1,319.2L1047.1,319.2L1047.1,319.2z"/>
	<path class="st16" d="M866.4,834.1c0.5-0.6,1.2-1.6,1.4-2c1.4-2.3,2.6-4.6,3.5-7.1c1.7-4.6,2.2-9.9,0.3-14.5
		c-1.5-3.7-4.2-6.7-6.4-10.1c-2.2-3.3-3.4-7-2.6-10.9c0.2-0.8,0.4-2.3,1-2.9c0.2-0.2-0.3,0.3-0.5,0.5c-0.3,0.3-0.5,0.6-0.8,1
		c-0.8,1-1.6,2.1-2.3,3.3c-2,3.3-3.6,7.3-3.7,11.2c-0.1,3.9,1.9,7.7,1.2,11.6c-0.4,2.4-1.7,4.4-2.7,6.5c-1.3,3-1.9,6.3-0.9,9.4
		c0.7,2.2,2.1,4.4,4,5.7C860.9,837.5,864.3,836.3,866.4,834.1L866.4,834.1z"/>
	<g>
		<defs>
			<path id="SVGID_1_" d="M866.4,834.1c0.5-0.6,1.2-1.6,1.4-2c1.4-2.3,2.6-4.6,3.5-7.1c1.7-4.6,2.2-9.9,0.3-14.5
				c-1.5-3.7-4.2-6.7-6.4-10.1c-2.2-3.3-3.4-7-2.6-10.9c0.2-0.8,0.4-2.3,1-2.9c0.2-0.2-0.3,0.3-0.5,0.5c-0.3,0.3-0.5,0.6-0.8,1
				c-0.8,1-1.6,2.1-2.3,3.3c-2,3.3-3.6,7.3-3.7,11.2c-0.1,3.9,1.9,7.7,1.2,11.6c-0.4,2.4-1.7,4.4-2.7,6.5c-1.3,3-1.9,6.3-0.9,9.4
				c0.7,2.2,2.1,4.4,4,5.7C860.9,837.5,864.3,836.3,866.4,834.1L866.4,834.1z"/>
		</defs>
		<clipPath id="SVGID_00000059996636029113460460000009531698548888795271_">
			<use xlink:href="#SVGID_1_"  style="overflow:visible;"/>
		</clipPath>
		
			<path style="clip-path:url(#SVGID_00000059996636029113460460000009531698548888795271_);fill-rule:evenodd;clip-rule:evenodd;fill:#FCE5A2;" d="
			M863.8,837c0.9-0.7,1.4-1.9,2-2.9c1.7-2.9,2.8-6.2,2-9.6c-0.6-2.5-2.1-4.5-2.9-6.9c-0.5-1.6-0.6-3.3-0.6-5c0-0.3,0-1.5-0.4-1.6
			c-0.3,0-0.7,1.3-0.8,1.5c-0.9,1.7-2.1,3.2-3.2,4.9c-1,1.6-1.9,3.3-2.1,5.2c-0.4,2.7-0.8,6.1,0,8.6c1,3,2.5,5.6,5,7.8"/>
	</g>
	<polygon class="st18" points="882.7,886.3 883.1,855.1 841.6,855.6 842.2,886.7 882.7,886.3 	"/>
	<path class="st19" d="M875.4,847.1c1.7,0.3,3.4,1.1,4.9,1.8c1.3,0.7,3.5,0.7,3.7,2.2c1.2,8.4-5.7,20.5-6.5,12.1
		c-0.1-0.9-1.6-1.1-2.1-1.9c-0.8-1.2-1-2.7-1.2-4C873.6,854.2,872,848.9,875.4,847.1L875.4,847.1z"/>
	<path class="st19" d="M866.5,857.4c0.3,0.2,1.2,0.2,1.6,0.3c1.5,0.4,3.2,1.3,3.9,2.8c0.6,1.4,0.1,2.9-0.2,4.3
		c-0.1,0.5-0.3,1.5,0.3,1.8c0.6,0.4,1.4-0.3,1.7-0.8c1-1.3,0.7-3,1.2-4.5c0.7-2.1,4.1-1.9,3.7-4.4c-0.7-5-8.3-4-10.3-0.6"/>
	<path class="st19" d="M870.7,857.4c-0.1,0-0.2-0.1-0.4-0.2c-0.4-0.1-0.8-0.2-1.2-0.2c-1.1-0.1-2,0-2.8,0.1c-1,0.2-1.4,0.6-1.3,1.2
		c0,0.3,0.4,0.8-0.1,1.1c-1,0.4-3.9-0.2-5.2,0.2c-1.2,0.4,0,1.6-0.3,2.2c-0.2,0.4-0.9,0.7-2.1,0.4c-2.9-0.7-3.1-2.3-2.4-3
		c0.2-0.2-2.9-1-3.1-1.3c-0.4-0.5,1.7-0.2,1.8-0.8c0.1-0.8,2.3-1,3.8-1.1c3.9-0.3,8.9-0.1,13.6,0.7"/>
	<path class="st20" d="M862.4,848.7c11.8-0.7,21.6,0.5,21.7,2.6s-9.4,4.5-21.2,5.1c-11.8,0.7-21.6-0.5-21.7-2.6
		C841,851.7,850.5,849.4,862.4,848.7L862.4,848.7z"/>
	<path class="st19" d="M873.5,847.8c-2.8,0-9.9,0.2-11,0.7c-1.1,0.5,3.5,0.5,4.1,0.7c1.7,0.5,3.7,0.2,5.5,0.4
		c2.6,0.3,5.3,0.2,7.9,0.6c0.9,0.2,2.3,0.5,2.6,1.5c0.3,0.8-0.7,1.6-1.3,1.9c-0.1,0.1-1,0.5-0.8,0.6c0.2,0.2,0.9,0.1,1.2,0
		c1.1-0.3,2.2-1,2.5-2.2c0.7-2.5-2.5-3-4.1-3.6C877.9,847.7,875.9,847.8,873.5,847.8L873.5,847.8z"/>
	<path class="st19" d="M867.8,848.9c0.1,0.1-0.3,0-0.5,0c-0.4,0-0.9-0.1-1.3-0.1c-1.3-0.1-2.7-0.1-4,0c-2.5,0.1-4.4,1.5-6.7,2.1
		c-1.2,0.3-2.3,0-3.5,0c-2.4,0-5.6,0.5-7.9,1.4c-0.7,0.3-1.9,0.6-2.3,1.2c-0.4,0.7,0.5,1.4,0.9,1.8c0.2,0.1,0.6,0.5,0.4,0.7
		c-1,1-2.9-1.1-3-2c-0.4-2.9,4.6-3.6,6.5-4c2.6-0.5,5.2-0.6,7.8-0.9c4.9-0.6,9.7-1,14.7-0.5"/>
	<path class="st19" d="M841.5,854.1c-0.2,0.2,1.5,0.9,1.5,1c1.9,0.6,4,0.5,6,0.4c1.8-0.1,3.6-0.3,5.4,0c2.6,0.5,5.1,1.5,7.7,1.7
		c1.8,0.2,3.6-0.1,5.4-0.1c1.4,0,2.8-0.1,4.2,0.2c0.4,0.1,1.2,0.3,1.1,0.8c-0.1,0.8-2.6,0.5-3,0.5c-3.2-0.2-6.3-1.3-9.5-1.2
		c-3.3,0.1-6,1.8-9.1,2.4c-3.3,0.6-8.9-0.6-11-3.5"/>
	<path class="st21" d="M863.5,852.4c-0.3-0.3-0.1-1.6-0.1-2c0-1.9,0-3.8-0.1-5.7c-0.1-5.9-0.3-11.9-0.5-17.8c0-0.9-0.1-1.7-0.1-2.6
		c0-0.5,0-1.1-0.1-1.6c0-0.4,0.1-1.7-0.2-2c-0.1-0.1-1.2,2-1.2,2.2c-0.2,1.2,0.3,2.7,0.4,3.9c0.2,1.5,0.4,2.9,0.5,4.4
		c0.2,2.4,0.4,4.9,0.5,7.3c0.3,4,0.5,8.1-0.2,12"/>
	<polygon class="st22" points="916,859.9 809.2,859.9 809.2,900.1 916,900.1 916,859.9 	"/>
	<polygon class="st23" points="918.2,859.9 807,859.9 807,870.9 918.2,870.9 918.2,859.9 	"/>
	<polygon class="st23" points="787.2,644 770,644 770,607.6 952,607.6 952,644 938.1,644 972.2,900.1 966.9,900.1 932.7,644 
		792.5,644 758.4,900.1 753,900.1 787.2,644 	"/>
	<polygon class="st23" points="1236.5,800.7 1214,800.7 1214,786.5 1453,786.5 1453,800.7 1434.8,800.7 1479.6,900.1 1472.6,900.1 
		1427.8,800.7 1243.5,800.7 1198.7,900.1 1191.7,900.1 1236.5,800.7 	"/>
	<polygon class="st24" points="1011.5,374.2 998.4,374.2 998.4,366 1137.6,366 1137.6,374.2 1126.9,374.2 1153,432.1 1148.9,432.1 
		1122.8,374.2 1015.6,374.2 989.5,432.1 985.4,432.1 1011.5,374.2 	"/>
	<path class="st23" d="M599.7,376.7c0-4.2-3.4-7.5-7.5-7.5c-5.2,0-12,0-17.1,0c-4.2,0-7.5,3.4-7.5,7.5c0,64.6,0,523.4,0,523.4h32.2
		C599.7,900.1,599.7,441.3,599.7,376.7L599.7,376.7z"/>
	<path class="st23" d="M716.5,900.1c0-20.1-16.3-36.4-36.4-36.4c-50.4,0-140.8,0-191.2,0c-20.1,0-36.4,16.3-36.4,36.4c0,0,0,0,0,0
		L716.5,900.1C716.5,900.1,716.5,900.1,716.5,900.1L716.5,900.1z"/>
	<path class="st23" d="M716.5,474.4c0-1.7-0.7-3.4-1.9-4.7c-1.2-1.2-2.9-1.9-4.7-1.9c-32.3,0-172.4,0-172.4,0V481
		c0,0,140.1,0,172.4,0c1.8,0,3.4-0.7,4.7-1.9C715.8,477.8,716.5,476.1,716.5,474.4L716.5,474.4L716.5,474.4z"/>
	<path class="st23" d="M452.5,687.8c0-1.8,0.7-3.4,1.9-4.7c1.2-1.2,2.9-1.9,4.7-1.9c32.3,0,172.4,0,172.4,0v13.2
		c0,0-140.1,0-172.4,0c-1.7,0-3.4-0.7-4.7-1.9C453.2,691.3,452.5,689.6,452.5,687.8L452.5,687.8L452.5,687.8z"/>
	<path class="st25" d="M606.2,451c0-4.6-3.7-8.3-8.3-8.3c-8.1,0-20.4,0-28.5,0c-4.6,0-8.3,3.7-8.3,8.3c0,12.1,0,34.6,0,46.7
		c0,4.6,3.7,8.3,8.3,8.3c8.1,0,20.4,0,28.5,0c4.6,0,8.3-3.7,8.3-8.3C606.2,485.6,606.2,463.1,606.2,451L606.2,451z"/>
	<path class="st25" d="M561,664.5c0-4.6,3.7-8.3,8.3-8.3c8.1,0,20.4,0,28.5,0c4.6,0,8.3,3.7,8.3,8.3c0,12.1,0,34.6,0,46.7
		c0,4.6-3.7,8.3-8.3,8.3c-8.1,0-20.4,0-28.5,0c-4.6,0-8.3-3.7-8.3-8.3C561,699.1,561,676.6,561,664.5L561,664.5z"/>
	<path class="st26" d="M236.3,912h1363.9l0,0c0,13.2-10.7,23.8-23.8,23.8c-166.1,0-1150.1,0-1316.3,0
		C247,935.8,236.3,925.2,236.3,912L236.3,912L236.3,912z"/>
	<path class="st27" d="M195.5,900.1H1641l0,0c0,13.2-10.7,23.8-23.8,23.8c-172.2,0-1225.6,0-1397.8,0
		C206.2,923.9,195.5,913.3,195.5,900.1L195.5,900.1L195.5,900.1z"/>
</g>
</svg>
