<?xml version="1.0" encoding="utf-8"?>
<!-- Generator: Adobe Illustrator 25.4.1, SVG Export Plug-In . SVG Version: 6.00 Build 0)  -->
<svg version="1.1" id="Layer_1" xmlns="http://www.w3.org/2000/svg" xmlns:xlink="http://www.w3.org/1999/xlink" x="0px" y="0px"
	 viewBox="0 0 1926.9 1072.1" style="enable-background:new 0 0 1926.9 1072.1;" xml:space="preserve">
<style type="text/css">
	.st0{fill-rule:evenodd;clip-rule:evenodd;fill:#E9E8F4;}
	
		.st1{clip-path:url(#SVGID_00000125567344133178631040000017394375993848124807_);fill-rule:evenodd;clip-rule:evenodd;fill:#FAFAFC;}
	
		.st2{clip-path:url(#SVGID_00000125567344133178631040000017394375993848124807_);fill-rule:evenodd;clip-rule:evenodd;fill:#F5F5FA;}
	
		.st3{clip-path:url(#SVGID_00000125567344133178631040000017394375993848124807_);fill-rule:evenodd;clip-rule:evenodd;fill:#C1BEE0;}
	.st4{fill-rule:evenodd;clip-rule:evenodd;fill:#FEB591;}
	.st5{fill-rule:evenodd;clip-rule:evenodd;fill:#FEC6AD;}
	.st6{fill-rule:evenodd;clip-rule:evenodd;fill:#EFEFEF;}
	.st7{fill-rule:evenodd;clip-rule:evenodd;fill:#FABD2B;}
	
		.st8{clip-path:url(#SVGID_00000055680191327152437010000017634156373438561707_);fill-rule:evenodd;clip-rule:evenodd;fill:#F4AF06;}
	.st9{fill-rule:evenodd;clip-rule:evenodd;fill:#F6F6F6;}
	.st10{fill-rule:evenodd;clip-rule:evenodd;}
	.st11{fill-rule:evenodd;clip-rule:evenodd;fill:#E9E9E9;}
	.st12{fill-rule:evenodd;clip-rule:evenodd;fill:#86550D;}
	
		.st13{clip-path:url(#SVGID_00000119110087286366244040000017518584838830830233_);fill-rule:evenodd;clip-rule:evenodd;fill:#FDA177;}
	.st14{fill-rule:evenodd;clip-rule:evenodd;fill:#D44702;}
	.st15{fill-rule:evenodd;clip-rule:evenodd;fill:#D35218;}
	.st16{fill-rule:evenodd;clip-rule:evenodd;fill:#043B5F;}
	.st17{fill-rule:evenodd;clip-rule:evenodd;fill:#4B5563;}
	.st18{fill-rule:evenodd;clip-rule:evenodd;fill:#FFFFFF;}
	.st19{fill-rule:evenodd;clip-rule:evenodd;fill:#03304D;}
	.st20{fill-rule:evenodd;clip-rule:evenodd;fill:#FAFAFA;}
	.st21{fill-rule:evenodd;clip-rule:evenodd;fill:#054D7B;}
	.st22{fill-rule:evenodd;clip-rule:evenodd;fill:#020607;}
	.st23{fill-rule:evenodd;clip-rule:evenodd;fill:#482514;}
	.st24{fill-rule:evenodd;clip-rule:evenodd;fill:#17110E;}
	
		.st25{clip-path:url(#SVGID_00000060720666056178427520000008182193539760485517_);fill-rule:evenodd;clip-rule:evenodd;fill:#FD7430;}
	.st26{fill-rule:evenodd;clip-rule:evenodd;fill:#3B2413;}
</style>
<g>
	<path class="st0" d="M154.3,1072.1h1621l0.6,0c209.7-175.1,281.4-1082.3-327.4-1072c-177.9,3-323.5,227.2-538.8,240.6
		c-237.3,14.7-575.9-174.4-780.5,35.5C-67.7,478.1-23.6,902.5,154.3,1072.1L154.3,1072.1z"/>
	<g>
		<defs>
			<path id="SVGID_1_" d="M154.3,1072.1h1621l0.6,0c209.7-175.1,281.4-1082.3-327.4-1072c-177.9,3-323.5,227.2-538.8,240.6
				c-237.3,14.7-575.9-174.4-780.5,35.5C-67.7,478.1-23.6,902.5,154.3,1072.1L154.3,1072.1z"/>
		</defs>
		<clipPath id="SVGID_00000155860797681117055950000010569845223716473766_">
			<use xlink:href="#SVGID_1_"  style="overflow:visible;"/>
		</clipPath>
		
			<path style="clip-path:url(#SVGID_00000155860797681117055950000010569845223716473766_);fill-rule:evenodd;clip-rule:evenodd;fill:#FAFAFC;" d="
			M2641.2,935.9L794.5,893.3c0,0,37.5-52.1,122.8-55.5c85.3-3.3,137-63.7,191.9-33.7c54.8,30,68-21.5,97-14.3
			c28.9,7.1,37.1,6.9,60.9,29.1c0,0,195.3-136.6,167.1-5c0,0,75.4-65.4,132.2-14.3c0,0,32.2-144.5,230.7-111.1
			c0,0,103.6-99.8,192.8-10.2c89.2,89.6,30.5,139.9,30.5,139.9s63.8,7,107.8,54.9c0,0,108.4,12.4,176.3,31.5
			C2372.3,923.8,2641.2,935.9,2641.2,935.9L2641.2,935.9z"/>
		
			<path style="clip-path:url(#SVGID_00000155860797681117055950000010569845223716473766_);fill-rule:evenodd;clip-rule:evenodd;fill:#FAFAFC;" d="
			M1717.8,294.2l-547.3-12.6c0,0,11.1-15.4,36.4-16.4c25.3-1,40.6-18.9,56.9-10c16.3,8.9,20.2-6.4,28.7-4.2c8.6,2.1,11,2.1,18.1,8.6
			c0,0,57.9-40.5,49.5-1.5c0,0,22.4-19.4,39.2-4.2c0,0,9.5-42.8,68.4-32.9c0,0,30.7-29.6,57.1-3c26.4,26.5,9,41.5,9,41.5
			s18.9,2.1,31.9,16.3c0,0,32.1,3.7,52.3,9.3C1638.2,290.6,1717.8,294.2,1717.8,294.2L1717.8,294.2z"/>
		
			<path style="clip-path:url(#SVGID_00000155860797681117055950000010569845223716473766_);fill-rule:evenodd;clip-rule:evenodd;fill:#F5F5FA;" d="
			M2561.5,250.5l-689.8-15.9c0,0,14-19.5,45.9-20.7c31.9-1.2,51.2-23.8,71.7-12.6c20.5,11.2,25.4-8,36.2-5.4
			c10.8,2.7,13.9,2.6,22.8,10.9c0,0,72.9-51,62.4-1.9c0,0,28.2-24.4,49.4-5.3c0,0,12-54,86.2-41.5c0,0,38.7-37.3,72-3.8
			c33.3,33.5,11.4,52.3,11.4,52.3s23.8,2.6,40.2,20.5c0,0,40.5,4.6,65.9,11.8C2461,246,2561.5,250.5,2561.5,250.5L2561.5,250.5z"/>
		
			<path style="clip-path:url(#SVGID_00000155860797681117055950000010569845223716473766_);fill-rule:evenodd;clip-rule:evenodd;fill:#FAFAFC;" d="
			M-313,536l689.8-15.9c0,0-14-19.5-45.9-20.7c-31.9-1.2-51.2-23.8-71.7-12.6c-20.5,11.2-25.4-8-36.2-5.4
			c-10.8,2.7-13.9,2.6-22.8,10.9c0,0-72.9-51-62.4-1.9c0,0-28.2-24.4-49.4-5.3c0,0-12-54-86.2-41.5c0,0-38.7-37.3-72-3.8
			c-33.3,33.5-11.4,52.3-11.4,52.3s-23.8,2.6-40.2,20.5c0,0-40.5,4.6-65.9,11.8C-212.6,531.5-313,536-313,536L-313,536z"/>
		
			<path style="clip-path:url(#SVGID_00000155860797681117055950000010569845223716473766_);fill-rule:evenodd;clip-rule:evenodd;fill:#C1BEE0;" d="
			M1315.9,1189.5V998.7h-11v-40.4h-11.3v-62.1h-11.2v62.1h-12.3v40.4h-10.2v-1.3H1245v-11.7h-21.2v-10.3h-9.3v-87.8H1202v-24.5
			h-11.7v-21.9h-53v18.1h-15.4v28.2h-12.1v84.4h-35.4v50.8h-6v-97.3h-16.4v-60h-51.6v60h-6.5v-20.8h-14.2v-19.1h-7.2v-16.9h-21v16.9
			h-34.6v19.1h-24.4V916h10.5v28.8h-7.2v13.1h7.2v60.7h-20v-34.2h-9.5v-52.6h-9.4v52.6h-4.3v-8.4h-8.3v-14.2L823,925.7l-29,35.9
			v14.2h-6.4v-17.9l-16.9,9.8v-52.5L732,934.1v53.3l-12.5,7.1v-7.7h-11v-43.4h-13.3v-66.7h-12v66.7h-12.1v43.4h-25.4v-77h9.2v-16.6
			h-9.2v-36.6H659v-14.4h-31v-24.3h-43.9v-21.5h-26.6v21.5h-9.1v24.3h-18v26.4h-8.3v-76.1h-23.2V675.7h-21v116.9h-21.2v76.1h-20.8
			v123.5h-7.6v-64.4h-45V820.7h-15.4v-35.8h-19.6v-23h-67.3v27.8h-14.8v31.1h-16v111.5h-11.8v13.1h-26.8v14.8h-19v1.7h-13v-51.3H164
			v-78.8h-14.2v78.8h-14.3v51.3h-14v227.7H1315.9L1315.9,1189.5z M192.6,1176.7V968.9h8.1v22.3h-5.6v10.1h5.6v47.9h-5.6v111h5.6
			v16.5H192.6L192.6,1176.7z"/>
		
			<path style="clip-path:url(#SVGID_00000155860797681117055950000010569845223716473766_);fill-rule:evenodd;clip-rule:evenodd;fill:#C1BEE0;" d="
			M1594.6,1248.4V775.6h9.7v-35.4h9.9v-54.4h9.8v54.4h10.8v35.4h9v-1.1h13.1v-10.2h18.5v-9.1h8.2v-76.9h11v-21.4h10.2v-19.2h46.4
			v15.9h13.5v24.7h10.6v73.9h31.1v44.5h5.3v-85.3l1.7,253h57.8v52.6h5.7v-18.2h12.4V982h6.3v-14.8h18.4V982h30.3v16.8h21.4v9.9h-9.2
			v25.3h6.4v11.5h-6.4v53.2h17.5v-30h8.3v-46.1h8.3v46.1h3.8v-7.4h7.3v-12.5l24.8-31.5l25.4,31.5v12.5h5.6v-15.7l14.8,8.6v-46
			l33.9,16.5v46.7l11,6.2v-6.7h9.6v-38.1h11.6v-58.4h10.5v58.4h10.6v38.1h22.3v-67.5h-8.1v-14.5h8.1v-32h-11.6v-12.6h27.2v-21.3
			h38.5v-18.8h23.3v18.8h8v21.3h15.7v23.1h7.2v-66.7h20.4V798.1h18.4v102.4h18.6v66.7h18.2v108.2h6.7V1019h39.4v-93.8h13.5v-31.4
			h17.1v-20.2h59V898h13v27.2h14v97.7h10.4v11.5h23.5v13h16.6v1.5h11.4v-45h13.7v-69h12.4v69h12.5v45h12.3v199.6H1594.6
			L1594.6,1248.4z M2578.9,1237.2v-182.1h-7.1v19.6h4.9v8.9h-4.9v41.9h4.9v97.3h-4.9v14.4H2578.9L2578.9,1237.2z"/>
		
			<path style="clip-path:url(#SVGID_00000155860797681117055950000010569845223716473766_);fill-rule:evenodd;clip-rule:evenodd;fill:#C1BEE0;" d="
			M1099,1059.6l360.4-9l-25.3-311.8h-20.8v123.5h-7.6v-64.4h-45V690.7h-15.4v-35.8h-19.6v-23h-67.3v27.8h-14.8v31.1h-16v111.4h-11.8
			v13.1H1189v14.8h-19v1.7h-13v-51.3h-15.7v-78.8h-14.2v78.8H1113v51.3h-14V1059.6L1099,1059.6z M1170.1,1046.8V838.9h8.1v22.3h-5.6
			v10.1h5.6v47.9h-5.6v111h5.6v16.5H1170.1L1170.1,1046.8z"/>
		
			<path style="clip-path:url(#SVGID_00000155860797681117055950000010569845223716473766_);fill-rule:evenodd;clip-rule:evenodd;fill:#C1BEE0;" d="
			M1696.1,1280.2l-315.9-7.8l22.2-340v66.7h18.2v108.2h6.7v-56.5h39.4V957h13.5v-31.4h17.1v-20.2h59v24.3h13V957h14v97.7h10.4v11.5
			h23.5v13h16.6v1.5h11.4v-45h13.7v-69h12.4v69h12.5v45h12.3V1280.2L1696.1,1280.2z M1633.8,1269v-182.1h-7.1v19.6h4.9v8.9h-4.9
			v41.9h4.9v97.3h-4.9v14.4H1633.8L1633.8,1269z"/>
		
			<path style="clip-path:url(#SVGID_00000155860797681117055950000010569845223716473766_);fill-rule:evenodd;clip-rule:evenodd;fill:#C1BEE0;" d="
			M760.5,304.3c1.5-0.6,2.5-2,2.5-3.6c0-2.1-1.8-3.9-4-3.9c-2.2,0-4,1.7-4,3.9c0,1.6,1,3,2.5,3.6v67.5c-3.3,0.7-5.8,3.5-5.8,7
			c0,2.5,1.3,4.7,3.3,6v96.4c-4,1.5-6.8,5.3-6.8,9.8c0,3.1,1.3,5.8,3.5,7.7h-14.9v9.9h-5.8v22.6H729v14.1h16l-26.2,445.4h80.7
			l-26.2-445.4h16v-14.1h-2.1v-22.6h-5.8v-9.9h-14.9c2.1-1.9,3.5-4.7,3.5-7.7c0-4.4-2.8-8.2-6.8-9.8v-96.4c2-1.3,3.3-3.5,3.3-6
			c0-3.4-2.5-6.3-5.8-7V304.3L760.5,304.3z"/>
	</g>
	<path class="st4" d="M883.3,771c0,0,9.6,6.3,20,4.2c10.4-2.1,28.9-16.6,45.5-7.7c0,0-20.2,2.4-23.3,18.3
		c-3.1,15.8-4.4,12.9-4.4,12.9l-28.8,31.4c-6.3-2.2-6.2-6.4-11-12c-5.3-6.1-14.5-6.4-19.1-5.9C850.3,813.6,883.3,771,883.3,771
		L883.3,771z"/>
	<path class="st4" d="M890.7,828.5c0,0,4.4,5.8,8.1,7.9c3.7,2.1,5.9,8.7,10.9,9.2c5,0.5,8.5,7,13.7,9.2c5.2,2.2,12.5,8.9,17,6.8
		c2-0.9,3.2-1.4,3.8-3.3c0.8-2.4-0.7-6.2-1.4-7.7c0,0,3.3,5.4,6.7,5.3c1.3,0,2.7-0.7,4.3-2.5c1.1-1.3,1.5-2.5,1.5-3.7
		c0.1-2.8-2.8-5.8-2.8-5.8s6.3,7.9,11.2,1.9c1.3-1.6,2.4-2.9,2.4-4.5c0-4.4-4.4-9.4-4.4-9.4s2.7,2.8,5.6,4.3c2.2,1.2,3.6,2,6.5-1.1
		c6.7-7.3-4.7-23.5-11.6-34.8c-6.9-11.3-20.2-24.4-26.3-22.1l-15.2,21.2L890.6,821L890.7,828.5L890.7,828.5z"/>
	<path class="st5" d="M908.6,852.4c-0.7-0.7-2-2.6-1.6-4.5c1.3-7.1,12.4-23.2,16.8-19.7c5.2,4.2-2,19.1-4.8,22.6
		C916.2,854.4,913.7,857.1,908.6,852.4L908.6,852.4z"/>
	<path class="st5" d="M921.2,860.6c-0.7-0.7-2-2.6-1.6-4.5c1.3-7.1,10.4-19.5,14.8-15.9c5.2,4.2,0,15.3-2.8,18.9
		C928.9,862.6,926.3,865.3,921.2,860.6L921.2,860.6z"/>
	<path class="st5" d="M986.5,782.8c-2.7-0.6-32.7-27.2-42-22.1c-9.3,5.1-24.1,12.3-25.3,21c-1.2,8.7-2.9,25.1,6.3,20.1
		c9.2-5,6.6-15.6,6.6-15.6s6.5-2.1,9.2-5.9c0,0,10.7,7.5,15.6,13.5c4.9,6.1,16,36.4,19.3,35.2c3.3-1.2,12.2-15.5,20.9-16.5
		c8.7-1,20.5-3.4,20.5-3.4l-12.7-31.1C1004.9,778,989.2,783.4,986.5,782.8L986.5,782.8z"/>
	<path class="st5" d="M888.3,824.6c0,0,6.4-9.8,11.1-5.3c4.7,4.5,0.2,10.6-2.6,13.9c-2.8,3.3-5.3,5.8-10.1,1.1
		C883.4,831,888.3,824.6,888.3,824.6L888.3,824.6z"/>
	<path class="st5" d="M898,833.6c0,0,11-18.5,16-14c5,4.5-4.1,19.1-6.8,22.6c-2.8,3.5-5.3,6.2-10.4,1.6
		C893.2,840.5,898,833.6,898,833.6L898,833.6z"/>
	<path class="st6" d="M1269.5,656.4c0,0-211.6,105.4-270.7,121.3c-13.8,11.3-9.5,26.7,2.1,35.1c0,0,236.3-31,290.8-70.3
		C1291.7,742.6,1288.4,685.5,1269.5,656.4L1269.5,656.4z"/>
	<path class="st6" d="M1281,767.7c34.9-14.6,124.4-180.4,119.3-255.8c-2-28.8-15.4-39.6-33.4-43.3c-24.9-5-58.3,10.4-79.8,70.7
		c-37.1,103.9-35,121.9-55,167.3C1230.7,729.2,1256.1,760.5,1281,767.7L1281,767.7z"/>
	<path class="st7" d="M1426.4,942.4c0,0,89.5-361.8,39.8-433.2c-49.7-71.3-159.8-1.1-157.6,138.4c2.3,139.5,21.6,181.7,18.1,244.3
		C1335.1,919.5,1379.5,972.6,1426.4,942.4L1426.4,942.4z"/>
	<g>
		<defs>
			<path id="SVGID_00000093162402744707907740000011392559436416793772_" d="M1426.4,942.4c0,0,89.5-361.8,39.8-433.2
				c-49.7-71.3-159.8-1.1-157.6,138.4c2.3,139.5,21.6,181.7,18.1,244.3C1335.1,919.5,1379.5,972.6,1426.4,942.4L1426.4,942.4z"/>
		</defs>
		<clipPath id="SVGID_00000061469857047513865820000010477388179191800220_">
			<use xlink:href="#SVGID_00000093162402744707907740000011392559436416793772_"  style="overflow:visible;"/>
		</clipPath>
		
			<path style="clip-path:url(#SVGID_00000061469857047513865820000010477388179191800220_);fill-rule:evenodd;clip-rule:evenodd;fill:#F4AF06;" d="
			M1302,592.3c-2.9,0.5,1.7,5.7,2.2,8.7c1,5.3,1.7,10.7,2.4,16.1c2.4,17,4.4,34.1,6.1,51.2c5.4,53.5,12.8,105.9,26.8,157.9
			c6.5,24,12.2,49.1,24,71.1c10.5,19.5,27.4,35.7,47.5,44.9c8,3.6,16.4,6.2,24.9,8.2c0.6,0.1,11.2,2.6,10.8,3.2
			c-2.7,4-25.3,0.6-29.1,0.4c-30.1-1.6-62.3-6.3-87.2-24.7c-53.4-39.4-60-120.3-58.3-181c0.7-23.7-1-53,17.8-69.7"/>
	</g>
	<path class="st9" d="M1554.2,1072.1c-3.9-64.5-14.9-125.5-15-230.1c-0.1-206.8,39.9-261.7-5.1-336.8c0,0-83.5-98-169-53.2
		c-85.5,44.8-96.2,129.5-99,231.6c-7.2,267.3,8.2,306.6-4.9,383.8c-0.3,1.6-0.5,3.2-0.6,4.7H1554.2L1554.2,1072.1z"/>
	<path class="st10" d="M1376.8,463c-6.4,4.4-12.7,9-11.5,21.2l16.7-0.5L1376.8,463L1376.8,463z"/>
	<path class="st10" d="M1347.3,856.9c-3.4-18.2,12.8-262,27.5-352.6c1.4-8.4,5.9-15.1,7.1-20.5l-16.7,0.5c-1,3,1,8.6-0.8,17
		c-15.5,71.6-58.5,317.6-57,351.6c0,0,12,41.1,15.8,63C1323.2,915.8,1332.8,880.5,1347.3,856.9L1347.3,856.9z"/>
	<path class="st11" d="M1420,447.7c0.5,0.1-0.8,0.8-1.3,1.1c-0.9,0.7-1.9,1.4-2.9,2.1c-3.1,2.2-6.4,4.1-9.8,5.9
		c-6.8,3.5-14,6-21.5,7.5c-2.9,0.6-8.5-0.2-11.1,1.3c-0.6,0.4,2.5,3.9,2.7,4.3c1.8,2.6,2,6.1,2.3,9.3c0.7,8.1,0,17.9,0.6,17.7
		c2.7-1,11.4-1.6,14-3c11.4-6.2,21.7-15.4,27.2-28c1.9-4.4,5.1-15.4-1.1-18.2"/>
	<path class="st11" d="M1376.5,465.9c0.1-0.6-2.9,0.9-3.1,1c-2.1,1.9-3.8,4.2-5.1,6.6c-2.2,4.1-3.2,8.7-3.7,13.4
		c-0.1,0.6-0.4,7.3-0.9,7.1c-1.1-0.6-1.8-2.8-2.1-3.9c-1.4-4-1.8-8.4-1.5-12.6c0.3-4.6,1.4-9.2,2.9-13.5c1.5-4.1,3.1-8.2,5.3-12
		c0.9-1.5,1.7-3.1,2.8-4.5c0.3-0.4,1.3-1.1,1.3-0.6c0.1,4.4-1.4,7.9,1.3,12.1c1.2,1.9,2.5,3.9,4,5.4c0.2,0.2,1.5,1.1,1.3,1.5"/>
	<path class="st12" d="M1312,247.9c-2.2,3.2-3.7,6.8-4.5,10.7c-2.1,10.9-9.9,25.1-4.5,34.8c1.1,2,2.7,4.8,3.4,4.7l0.2,0l97.6,108
		c0,0,4.2-1.6,4.4-1.7c3.8-2.4,1.7-1.9,5.7-3.8c10.3-5,31.2-28.2,42.3-70.6c10.4-39.7-6.1-71-13.7-81.8c-7.2-10.4-38.2-20.4-59-25.3
		C1300.9,203.6,1306.4,239.2,1312,247.9L1312,247.9z"/>
	<path class="st5" d="M1370,416.6l0.8,40.9c0,0-2.5,7,7.1,9.1c11.4,2.5,37.9-5.6,41.1-16.2l-3.5-79.5L1370,416.6L1370,416.6z"/>
	<g>
		<defs>
			<path id="SVGID_00000067933412887247322080000015007286416097651896_" d="M1370,416.6l0.8,40.9c0,0-2.5,7,7.1,9.1
				c11.4,2.5,37.9-5.6,41.1-16.2l-3.5-79.5L1370,416.6L1370,416.6z"/>
		</defs>
		<clipPath id="SVGID_00000050660253233768157380000011029845368132020656_">
			<use xlink:href="#SVGID_00000067933412887247322080000015007286416097651896_"  style="overflow:visible;"/>
		</clipPath>
		
			<path style="clip-path:url(#SVGID_00000050660253233768157380000011029845368132020656_);fill-rule:evenodd;clip-rule:evenodd;fill:#FDA177;" d="
			M1420.5,395.1c-0.6-0.8,0.2,2,0,2.9c-0.4,2.1-1,4.1-1.8,6.1c-2.1,5.9-4.6,11.6-7.5,17.1c-8.4,16.1-21.1,32.6-37,42.9
			c-3.7,2.4-15.5,9.9-20.4,5.6c-3.2-2.8-1.2-9.6-0.7-12.7c2.4-14,6.1-27.9,9.8-41.7c5-18.7,10.6-37.3,17-55.5
			c2.1-5.9,4.8-16.6,12.7-18.1c10.6-2,26.7,7.7,37.2,10.3"/>
	</g>
	<path class="st5" d="M1317.5,263.6c0,0-39.2,161.6,9.4,171.1c51.7,10.1,93.9-50.1,93.9-50.1l-0.6-42.5
		c-10.3-19.3-10.6-39.5-0.8-60.7l-0.3-25.6L1317.5,263.6L1317.5,263.6z"/>
	<path d="M1327.1,315.8c0,0-6-8.5-18.7-0.4c-3.5,2.2,3.4,0,9.5,0.6C1324.4,316.8,1330.2,320.2,1327.1,315.8"/>
	<path d="M1346.9,314.7c0,0,7.2-7.5,18.6,2.3c3.2,2.7-3,0.2-9.1-0.1C1349.8,316.7,1343.2,318.5,1346.9,314.7"/>
	<path class="st10" d="M1317.2,333.8c2.4-0.3,4.5,1.4,4.7,3.8c0.3,2.4-1.4,4.5-3.8,4.7c-2.4,0.3-4.5-1.4-4.7-3.8
		C1313.2,336.2,1314.9,334.1,1317.2,333.8L1317.2,333.8z"/>
	<path class="st10" d="M1355.7,335c2.4-0.3,4.5,1.4,4.7,3.8c0.3,2.4-1.4,4.5-3.8,4.7c-2.4,0.3-4.5-1.4-4.7-3.8
		C1351.6,337.4,1353.3,335.3,1355.7,335L1355.7,335z"/>
	<path class="st10" d="M1324.6,335.9c0,0-5.6-8.5-13.7-3.2c0,0,3.7-7.2,10.8-2.2C1325.1,332.8,1324.6,335.9,1324.6,335.9
		L1324.6,335.9z"/>
	<path class="st10" d="M1349.3,335.8c0,0,7.2-7.3,14-0.5c0,0-2.2-7.8-10.1-4.3C1349.6,332.7,1349.3,335.8,1349.3,335.8L1349.3,335.8
		z"/>
	<path class="st14" d="M1328.9,344.5c0,0-3.4,11.9-5,20.8c-0.7,4-1.1,7.4-0.8,9c0.3,1.6,1.8,2.6,4,2.8c3.7,0.4,9.5-1.2,9.5-1.2
		c0.6-0.2,1-0.8,0.8-1.4c-0.2-0.6-0.8-1-1.4-0.8c0,0-5.2,1.5-8.6,1.1c-0.5-0.1-0.9-0.2-1.3-0.3c-0.3-0.1-0.6-0.3-0.6-0.7
		c-0.3-1.4,0.1-4.5,0.8-8c1.6-8.8,5-20.6,5-20.6c0.2-0.6-0.2-1.3-0.8-1.4C1329.7,343.5,1329,343.8,1328.9,344.5L1328.9,344.5z"/>
	<path class="st15" d="M1321.9,395.6c7.7,23.9,27.5-0.7,27.5-0.7C1350,388.4,1332.8,398.6,1321.9,395.6L1321.9,395.6z"/>
	<path class="st12" d="M1365,409.8c6.8-2.7,13.4-6.4,19.7-10.8c11-7.7,12.5-21.8,23.7-28.2c2-1.1,3.5-41.9,4-60.8
		c5.8-0.6,5.5,23.5,8.7,26l1,33c0.1,5.1,7.5,4.7,3.6,16c-3,8.6-14,21.9-21.3,29.2c-16.3,16.3-15.7,19.2-39.9,26.3
		c-12.7,3.7-41.7-0.1-51.4-10.8c-8.1-9-11.2-20.9-11.1-31c0-2.4-1.6-5.3-0.3-11.3c2.7,5.5,2.5,10.5,8.2,18.9
		c1.4-5,5.2-10.7,7.5-15.3c2.3-4.6,9.5-3.8,13.9-4.9c6.6-1.7,16.5-3.4,22.8,0.3C1356.3,387.6,1361.2,399.7,1365,409.8L1365,409.8z
		 M1362.6,410.8c-2.5-5.1-5-12.8-8.3-16.5c-4.1-4.5-9-3-12.5-2.8c-5.1,0.4-17.9-0.6-22.1,2.7c-3.8,2.9-6.8,9-7.6,13.9
		c1.5,1,5.8,3.4,7.9,4.1c1.3,0.4,2.7,0.8,4,1.1c1.7-2,3.9-4.3,6.1-4.2c1.5,0.1,3,1.1,4.3,1.8c2.5,1.4,4.9,2.9,7.5,4.1
		C1349,414.7,1355.9,413.2,1362.6,410.8L1362.6,410.8z"/>
	<path class="st5" d="M1426.1,331c3.2-5.7,22.7-11.5,13.2,11.7c-8.3,20.5-20.5,21.3-20.5,21.3c-2.4-4.2-2.6-10.1,0.4-18.7
		C1420.7,341.1,1423,336.4,1426.1,331L1426.1,331z"/>
	<path class="st12" d="M1352.2,256.2l-1.3-4.7c23.8-3.6,60.8-21.2,82-7.8c7.1,4.5,5.3,32.1,6.6,41.5c0.5,3.3,0,9.6-3.8,10.6
		c-5.8,1.5-10.4-7.9-13.9-11.3c-6.1-6-18-10.3-26-11.6c-28.9-4.5-44.3,5.5-46.3,3.4c-3.3-3.4-13.8-0.6-17.7-2.8
		c-8.3-4.7-23.5,1.2-30.8,11.1l4.9-21.8l16.5-9.8C1325.3,253.1,1349.4,256.1,1352.2,256.2L1352.2,256.2z"/>
	<path class="st5" d="M1291.5,921.9c0,0-74.1-7-94.5,8.1c0,0-15,12.1-4.6,16.8c0,0-4.8,12.6,3.3,15.7c0,0-0.2,13.1,9.9,15.2
		c10.1,2.2,1,14.3,14.2,12.6c0,0,79.7-37.8,85.5-51.8L1291.5,921.9L1291.5,921.9z"/>
	<path class="st6" d="M1582.2,726.3c0,0-240.9,163.2-294.4,192.9c-10.7,14.3-2.7,28.3,10.6,33.6c0,0,282.9-96.9,326.3-148.2
		C1624.6,804.5,1607.5,750,1582.2,726.3L1582.2,726.3z"/>
	<path class="st6" d="M1624.3,804.8c17.5-40.8-42.8-253.7-108.8-313c-25.2-22.6-45.4-20.8-63.5-9.1c-25.1,16.2-40.6,56.4-9.4,124.8
		c53.8,117.8,70.2,131.3,90.5,185.8C1550.5,813.6,1597.5,819.2,1624.3,804.8L1624.3,804.8z"/>
	<path class="st16" d="M481.5,822.8c0,0-22.5-278,22.8-324.7c45.3-46.7,118.2,18.5,99.7,121.2c-18.5,102.8-37.9,131.6-42.8,178.3
		C551.7,816.9,512.5,850.8,481.5,822.8L481.5,822.8z"/>
	<path class="st16" d="M776.4,924.1l-0.4,0.7c0,0-283.5-67.5-327.8-117.3c0,0-61.3-86.3,41.4-101.3c0,0,237.5,185.2,302.9,192.3
		l-0.4,0.6c4.3,0.2-11.8,28.4-13.7,27c-0.7-0.5-1.3-1.1-1.9-1.8C776.5,924.2,776.5,924.1,776.4,924.1L776.4,924.1z"/>
	<path class="st4" d="M765.8,931.7c0,0,27.3,14.4,45.9,10.4c0,0,14-3.7,8.1-11.3c0,0,7.1-8,2.2-13.4c0,0,9.3-5.2,2.9-10.7
		c-6.5-5.5,1.9-8-7.9-11.6c0,0-40.9-11.8-49.1-3.1C762.9,898.5,762.6,922.1,765.8,931.7L765.8,931.7z"/>
	<path class="st17" d="M687.7,723.9c0.3-0.8,1-1.5,1.8-1.9c0.8-0.4,1.8-0.4,2.6,0c21.5,8.6,144.7,58.2,166.2,66.8
		c0.8,0.3,1.5,1,1.9,1.8c0.4,0.8,0.4,1.8,0,2.6c-10.9,27.2-88.5,220-99.4,247.3c-0.3,0.8-1,1.5-1.8,1.9c-0.8,0.4-1.8,0.4-2.6,0
		c-21.5-8.6-144.7-58.2-166.2-66.8c-0.8-0.3-1.5-1-1.9-1.8c-0.4-0.8-0.4-1.8,0-2.6C599.2,943.9,676.7,751.1,687.7,723.9L687.7,723.9
		z"/>
	<path class="st18" d="M692.6,733.8c0.7-1.8,2.7-2.6,4.5-1.9c20.3,8.1,130.6,52.5,150.9,60.7c1.8,0.7,2.6,2.7,1.9,4.5
		c-10.6,26.3-83.3,207.2-93.9,233.6c-0.7,1.8-2.7,2.6-4.5,1.9c-20.3-8.1-130.6-52.5-150.9-60.7c-1.8-0.7-2.6-2.7-1.9-4.5
		C609.2,941,682,760.1,692.6,733.8L692.6,733.8z"/>
	<path class="st4" d="M819.9,894.7c-0.4-0.4-0.9,0.6-1.3,0.8c-0.9,0.5-1.9,1-2.9,1.4c-4.9,1.9-10,1.8-12.3,7.4
		c-1.1,2.7-1.6,5.6-2.6,8.4c-1.7,4.4-3.8,8.5-5.2,12.9c-0.8,2.4-2.2,7-1.3,9.5c0.6,1.7,4.6,4.7,6.1,4.9c3.4,0.6,7.6,0.1,10.6-2.5
		c2.7-2.4,3-8.3,3.7-11.6C815.7,920.8,819.2,899.9,819.9,894.7L819.9,894.7z"/>
	<path class="st19" d="M349.3,1071.2c-1.8-59.9,19-164.2,7.6-236.6c-30.5-193.6-32.3-252,9.6-323.5c0,0,78.2-93.6,159.6-51.9
		c81.5,41.7,92.4,121.8,95.9,218.6c9.1,248.5,1.4,252.7,16.7,393.5H349.3L349.3,1071.2z"/>
	<path class="st20" d="M457.4,467.5c0,0,38.9-2.4,47.4-7.9l21.7,180l-31.4,5.6L457.4,467.5L457.4,467.5z"/>
	<path class="st11" d="M457.6,451.2c-0.4,0.1,0.4,0.9,0.6,1.4c0.5,0.9,1,1.7,1.5,2.6c1.7,2.7,3.5,5.2,5.3,7.4
		c3.8,4.5,8,7.8,12.6,10.1c1.8,0.9,5.5,0.4,6.9,2.3c0.3,0.4-2.3,4.3-2.5,4.7c-1.6,2.8-2.3,6.8-3.1,10.4c-1.8,9.3-3,20.5-3.4,20.2
		c-1.6-1.3-7.1-2.7-8.5-4.5c-6.3-7.9-11.4-19.1-12.9-33.9c-0.5-5.1-0.7-17.9,3.8-20.7"/>
	<path class="st11" d="M485.9,474.7c-0.1-0.6,8,2.1,8.3,2.3c2.9,2.4,5.2,5.2,6.9,8.1c2.8,4.8,3.8,9.8,3.9,14.8
		c0,0.6-0.3,7.8,0.4,7.6c1.8-0.3,3-2.6,3.7-3.6c2.7-3.9,3.7-8.4,3.9-12.9c0.1-4.9-0.9-9.9-2.7-14.7c-1.7-4.6-3.7-9.3-6.5-13.7
		c-1.1-1.8-2.1-3.6-3.6-5.3c-0.4-0.5-1.8-1.5-1.9-1c-0.8,4.6,1.1,8.5-3.4,12.4c-2,1.7-4.3,3.5-6.8,4.8
		C487.8,473.6,485.7,474.2,485.9,474.7"/>
	<path class="st21" d="M534.9,776.2l34.6-144.1l-20-23.5l8.4-33.7c0,0-10.4-129.9-58.4-125.2L534.9,776.2L534.9,776.2z"/>
	<polygon class="st22" points="478.5,489.2 480.6,475.8 489.9,474 497,480.2 494.3,495.4 536,675.5 538.9,760.3 534.9,777.1 
		526.7,763.9 502,679.3 482.6,497.3 478.5,489.2 	"/>
	<path class="st21" d="M534.9,776.2l-83.4-125.8l11.3-29.3l-18.6-28.8c0,0-33.6-128.2,13-141L534.9,776.2L534.9,776.2z"/>
	<path class="st23" d="M450.8,401.5c0,0-0.2,0-0.2,0c-1.7-0.6-3.5-2.2-4.8-3.4c-2.9-2.6-5.5-5.3-7.6-8.5
		c-6.4-9.6-9.9-21.3-13.5-32.2c-11.1-33.1-17.8-65.5,0.5-96.3c7.7-13.1,26.4-23.6,40.8-25.9c30.2-4.9,56.6-1.7,72.2,25.6
		c3.7,6.6,8,25.5,10,35.9"/>
	<path class="st24" d="M547,297.8c1-0.6,0.9-2.1,0.9-3.3c0-3.1-0.4-6.1-1.1-9.1c-2.6-12.2-5.7-29.5-14.7-38.7
		c-16.4-16.8-47.2-14.3-54.6-14.4c-21.1-0.1-46.8,12.3-58.3,30.4c-3.4,5.4-5.5,11.5-7.4,17.5c-10.8,33.6-1.3,68.7,13.2,99.7
		c4.3,9.1,10,16.5,15.2,24.9c2.3,3.8,3.9,8.9,7.5,11.7c6.5,5.2,14.1-1.2,17.2-7c5.6-10.2,4.3-25,3.6-36.1
		C467.2,353.2,528.6,307.7,547,297.8L547,297.8z"/>
	<path class="st4" d="M496.8,417.7l4.7,41.9c0,0-1.1,12.5-12.3,14.4c-8.5,1.5-27.8-3.7-31.9-18l-8.1-79.3L496.8,417.7L496.8,417.7z"
		/>
	<g>
		<defs>
			<path id="SVGID_00000119824213043773695490000012064414918167884979_" d="M496.8,417.7l4.7,41.9c0,0-1.1,12.5-12.3,14.4
				c-8.5,1.5-27.8-3.7-31.9-18l-8.1-79.3L496.8,417.7L496.8,417.7z"/>
		</defs>
		<clipPath id="SVGID_00000036945172947921258510000000968727527066973627_">
			<use xlink:href="#SVGID_00000119824213043773695490000012064414918167884979_"  style="overflow:visible;"/>
		</clipPath>
		
			<path style="clip-path:url(#SVGID_00000036945172947921258510000000968727527066973627_);fill-rule:evenodd;clip-rule:evenodd;fill:#FD7430;" d="
			M450.2,400.4c0.4-0.8,0.2,1.8,0.6,2.7c0.7,1.8,1.7,3.6,2.7,5.3c2.9,5,6.2,9.9,9.8,14.4c10.4,13.3,24.5,26.3,40.1,33.3
			c3.7,1.6,15.1,6.6,18.5,1.9c2.2-3-0.9-8.9-2-11.7c-4.9-12.4-10.8-24.4-16.7-36.4c-8-16.2-16.5-32.2-25.6-47.8
			c-2.9-5-7.4-14.4-14.4-14.5c-9.4-0.2-21.2,11.2-29.5,15.2"/>
	</g>
	<path class="st4" d="M538.1,260.6c0,0,52.9,158.9-4.6,176.2C476.1,454.2,441,382,441,382l-2.4-125.5
		C471.9,256.7,505.4,253.6,538.1,260.6L538.1,260.6z"/>
	<path d="M533.1,305.6c0,0,5.4-8.4,17.9-1.3c3.5,2-3.2,0.2-9,1.1C535.7,306.4,530.3,309.9,533.1,305.6"/>
	<path d="M505.9,308.3c0,0-7.2-6.9-17.7,3.2c-2.9,2.8,2.9,0,8.7-0.5C503.2,310.4,509.6,311.8,505.9,308.3"/>
	<path class="st10" d="M542.1,332.9c-2.5-0.1-4.6,1.7-4.7,4.2c-0.1,2.5,1.7,4.6,4.2,4.7c2.5,0.1,4.6-1.7,4.7-4.2
		C546.4,335.2,544.5,333,542.1,332.9L542.1,332.9z"/>
	<path class="st10" d="M502.2,336.2c-2.5-0.1-4.6,1.7-4.7,4.2c-0.1,2.5,1.7,4.6,4.2,4.7c2.5,0.1,4.6-1.7,4.7-4.2
		C506.6,338.4,504.7,336.3,502.2,336.2L502.2,336.2z"/>
	<path class="st10" d="M534.5,335.4c0,0,5.3-9.2,14-4.1c0,0-4.3-7.3-11.3-1.7C533.9,332.2,534.5,335.4,534.5,335.4L534.5,335.4z"/>
	<path class="st10" d="M508.8,336.7c0,0-7.8-7.2-14.6,0.3c0,0,1.9-8.3,10.3-5C508.4,333.4,508.8,336.7,508.8,336.7L508.8,336.7z"/>
	<path class="st14" d="M530.4,341.2c0,0,4.1,12.2,6.3,21.3c1,4.1,1.6,7.6,1.3,9.3c-0.3,1.7-1.8,2.8-4,3.1c-3.9,0.7-9.9-0.7-9.9-0.7
		c-0.7-0.1-1.1-0.8-0.9-1.5c0.1-0.7,0.8-1.1,1.5-0.9c0,0,5.5,1.3,9,0.7c0.5-0.1,1-0.2,1.3-0.4c0.3-0.2,0.6-0.4,0.6-0.7
		c0.2-1.5-0.4-4.6-1.3-8.3c-2.2-9-6.3-21.1-6.3-21.1c-0.2-0.6,0.1-1.3,0.8-1.5C529.5,340.2,530.2,340.5,530.4,341.2L530.4,341.2z"/>
	<path class="st14" d="M539.9,403.2c0,0-3.3,4.2-9.7,4.6c-4.1,0.3-9.6-1-16.4-6c-0.6-0.4-0.7-1.3-0.3-1.9c0.4-0.6,1.3-0.7,1.9-0.3
		c6.1,4.5,10.9,5.8,14.6,5.5c5.2-0.4,7.8-3.6,7.8-3.6c0.5-0.6,1.3-0.7,1.9-0.2C540.3,401.8,540.3,402.6,539.9,403.2L539.9,403.2z"/>
	<polygon class="st26" points="437,339.3 486.8,330.7 487.2,337.1 439.6,342.2 437,339.3 	"/>
	<path class="st26" d="M503.4,314.5c-11.3,1.3-19.3,12.6-17.9,25.4c1.4,12.7,11.8,22,23.1,20.7c11.3-1.3,19.3-12.6,17.9-25.4
		C525.1,322.5,514.7,313.2,503.4,314.5L503.4,314.5z M503.7,316.8c-10.2,1.2-17.4,11.4-16.1,22.8c1.3,11.5,10.6,19.8,20.8,18.7
		c10.2-1.2,17.4-11.4,16.1-22.8C523.2,324,513.9,315.7,503.7,316.8L503.7,316.8z"/>
	<path class="st26" d="M547.4,309.5c-10.7,1.2-18.4,12-17,24.1c1.4,12.1,11.2,20.9,21.9,19.7c10.7-1.2,18.4-12,17-24.1
		C568,317.1,558.1,308.3,547.4,309.5L547.4,309.5z M547.6,311.7c-9.7,1.1-16.5,10.8-15.3,21.7c1.2,10.9,10.1,18.8,19.8,17.7
		c9.7-1.1,16.5-10.8,15.3-21.7C566.2,318.6,557.3,310.6,547.6,311.7L547.6,311.7z"/>
	<path class="st26" d="M521.7,324.2c1.2-1.3,2.6-2.3,4.3-2.8c2-0.6,5-0.9,6.8,0.6c0.8,0.7,0.1,1-0.3,1.8c-0.1,0.3-0.4,0.8-0.4,0.8
		s-0.4-0.2-0.6-0.3c-0.4-0.2-0.9-0.3-1.3-0.4c-1.4-0.3-2.9-0.1-4.3,0.4c-0.9,0.3-1.9,0.8-2.6,1.4c-0.3,0.2-0.5,0.5-0.6,0.7
		c-0.1,0.1-0.1,0.6-0.1,0.3"/>
	<path class="st4" d="M441,344.1c-0.4,0.1-2.5-3.6-2.8-3.8c-2.2-3-10.7-12.9-15.3-6.7c-1.7,2.3-1.3,5.6-0.9,8.1
		c1.1,6.8,3.7,13.1,7.5,18.9c1.1,1.7,4.9,7.2,8,6.2c2.3-0.8,3.2-3.4,4.1-5.3"/>
	<path class="st24" d="M538.5,262c-0.2,0.1-3.8-1.5-4.2-1.6c-3.6-0.9-7.9-1.1-11.6-0.7c-7.8,0.9-14.1,7-21.6,7.7
		c-4.7,0.5-9.6-1.5-14.2-2c-7.9-0.9-16.3-0.7-24,1.3c-8.3,2.2-16.9,5.8-21.8,13.3c-2.1,3.2-3.1,6.8-4.2,10.4
		c-0.2,0.7-0.7,3.4-1.9,2.9c-2.9-1.1-4-7.8-4.6-10.2c-2.3-10.7,0.5-23.8,9.6-30.7c9.4-7.2,86.7-3.7,98.5,7
		C539.4,260.3,539.9,262.4,538.5,262"/>
	<path class="st16" d="M579.2,662.2c0,0,237.5,96.3,308.1,108.9c7.4,1.3-0.1,34.7-14.3,44.9c0,0-185.1-21.1-293.5-48.2
		C555.4,761.9,510.8,707.5,579.2,662.2L579.2,662.2z"/>
	<path class="st16" d="M567.9,759.8c0,0-248-138.1-223.4-188.2c12.4-25.2,65.7-119.4,174.7,11.1c45.6,54.6,64.1,77.6,80.3,93.4
		C603.9,701.1,618.9,770.3,567.9,759.8L567.9,759.8z"/>
</g>
</svg>
