<?xml version="1.0" encoding="utf-8"?>
<!-- Generator: Adobe Illustrator 25.4.1, SVG Export Plug-In . SVG Version: 6.00 Build 0)  -->
<svg version="1.1" id="Layer_1" xmlns="http://www.w3.org/2000/svg" xmlns:xlink="http://www.w3.org/1999/xlink" x="0px" y="0px"
	 viewBox="0 0 1938.9 1183.2" style="enable-background:new 0 0 1938.9 1183.2;" xml:space="preserve">
<style type="text/css">
	.st0{fill-rule:evenodd;clip-rule:evenodd;fill:#E9E8F4;}
	.st1{fill-rule:evenodd;clip-rule:evenodd;fill:#F1F0F8;}
	.st2{fill-rule:evenodd;clip-rule:evenodd;fill:#EA9264;}
	.st3{fill-rule:evenodd;clip-rule:evenodd;fill:#6F6B96;}
	.st4{fill-rule:evenodd;clip-rule:evenodd;fill:#81B3E4;}
	.st5{fill-rule:evenodd;clip-rule:evenodd;fill:#252F48;}
	.st6{fill-rule:evenodd;clip-rule:evenodd;fill:#303D5C;}
	.st7{fill-rule:evenodd;clip-rule:evenodd;}
	.st8{fill-rule:evenodd;clip-rule:evenodd;fill:#8885A8;}
	
		.st9{clip-path:url(#SVGID_00000105417598492713588190000004833882939793611411_);fill-rule:evenodd;clip-rule:evenodd;fill:#E47136;}
	
		.st10{clip-path:url(#SVGID_00000132771158467840182630000007511325896959655045_);fill:none;stroke:#E54C02;stroke-width:0.6144;stroke-linecap:round;stroke-linejoin:round;stroke-miterlimit:10;}
	.st11{fill-rule:evenodd;clip-rule:evenodd;fill:#3B2413;}
	.st12{fill-rule:evenodd;clip-rule:evenodd;fill:#7B789F;}
	.st13{fill-rule:evenodd;clip-rule:evenodd;fill:#FEAB83;}
	.st14{fill-rule:evenodd;clip-rule:evenodd;fill:#887EC3;}
	.st15{fill-rule:evenodd;clip-rule:evenodd;fill:#E28F8B;}
	
		.st16{clip-path:url(#SVGID_00000152986784563729036610000008953776018036934043_);fill-rule:evenodd;clip-rule:evenodd;fill:#FE9460;}
	
		.st17{clip-path:url(#SVGID_00000103960155497536830400000011054381546953497479_);fill-rule:evenodd;clip-rule:evenodd;fill:#FE9460;}
	.st18{fill-rule:evenodd;clip-rule:evenodd;fill:#111827;}
	.st19{fill-rule:evenodd;clip-rule:evenodd;fill:#6E62B5;}
	
		.st20{clip-path:url(#SVGID_00000011010335260940686910000005051853543613030295_);fill-rule:evenodd;clip-rule:evenodd;fill:#FE8F59;}
	
		.st21{clip-path:url(#SVGID_00000174565205107935708530000006392543118545190033_);fill:none;stroke:#E54C02;stroke-width:0.5692;stroke-linecap:round;stroke-linejoin:round;stroke-miterlimit:10;}
	.st22{fill-rule:evenodd;clip-rule:evenodd;fill:#FD696C;}
	.st23{fill-rule:evenodd;clip-rule:evenodd;fill:#215252;}
	.st24{fill-rule:evenodd;clip-rule:evenodd;fill:#3D9595;}
	
		.st25{clip-path:url(#SVGID_00000066508851964936323740000013270484677744248966_);fill-rule:evenodd;clip-rule:evenodd;fill:#2A6868;}
	.st26{fill-rule:evenodd;clip-rule:evenodd;fill:#537979;}
	.st27{fill-rule:evenodd;clip-rule:evenodd;fill:#69AEAE;}
	
		.st28{clip-path:url(#SVGID_00000137106206827328519800000012072799943374549896_);fill-rule:evenodd;clip-rule:evenodd;fill:#3F9A9A;}
	
		.st29{clip-path:url(#SVGID_00000124860214188280568110000011431400730374821277_);fill-rule:evenodd;clip-rule:evenodd;fill:#5A8A8A;}
	.st30{fill-rule:evenodd;clip-rule:evenodd;fill:#3F3D56;}
	.st31{fill-rule:evenodd;clip-rule:evenodd;fill:#83E6A1;}
</style>
<g>
	<path class="st0" d="M977.2,1102.5c521.9,0,945.6,11.3,945.6,25.2c0,13.9-423.7,25.2-945.6,25.2s-945.6-11.3-945.6-25.2
		C31.6,1113.8,455.3,1102.5,977.2,1102.5L977.2,1102.5z"/>
	<path class="st1" d="M1771.4,396.9c0,0,209.6,571.9-502.9,544.3c-378.1-14.6-474.9,7.3-592.2,29.8
		c-117.4,22.5-504.7-24.6-521.3-300.4c-12.5-207.6,134.8-366.4,517.3-430.3C757,226.2,867.1,126.9,996.7,74.9
		C1126.3,22.9,1602.1-71,1771.4,396.9L1771.4,396.9z"/>
	<path class="st2" d="M1435,528.8c0,0-103-6-125-19.4l-2.5,11.1c0,0,99.7,43.9,125.1,40.3C1432.6,560.8,1452.6,550.4,1435,528.8
		L1435,528.8z"/>
	<path class="st3" d="M1413.9,563.8c14.2,7.6,112-30.9,119.3-60.7c6.5-26.8-18.5-40.4-55.5-15.3c-38.3,25.9-31.9,20.3-50.1,30.4
		C1421.4,525.4,1407.4,555.1,1413.9,563.8L1413.9,563.8z"/>
	<path class="st2" d="M1312.2,511.4c0,0-12-17.7-20.7-19.4c0,0-6.6-1-5.4,2.6c0,0-4.3,1.6-3.2,4.3c0,0-3.4,2.9-1.5,5.9
		c1.8,3-3.4,3.5,0.2,6.3c0,0,24.4,11,29.3,9.3L1312.2,511.4L1312.2,511.4z"/>
	<path class="st4" d="M1240.7,285.9c0,0-4.8-71.7-62.9-53.8c-54.5,16.8-19,79.2-19,79.2L1240.7,285.9L1240.7,285.9z"/>
	<path class="st4" d="M1088,454.3c0,0-74.6,5.7-56.7,63.8c16.8,54.5,79.2,19,79.2,19L1088,454.3L1088,454.3z"/>
	<path class="st4" d="M1383.3,362.6c0,0,61.8-36.6,79.9,21.4c17,54.5-54.5,60.5-54.5,60.5L1383.3,362.6L1383.3,362.6z"/>
	<path class="st4" d="M1069.8,338.9c-10.5,3.3-16.4,14.4-13.1,25c16.9,54.4,65.2,210,82.1,264.4c3.3,10.5,14.4,16.4,25,13.1
		c53.8-16.7,206.4-64.1,260.2-80.8c10.5-3.3,16.4-14.4,13.1-25c-16.9-54.4-65.2-210-82.1-264.4c-3.3-10.5-14.4-16.4-25-13.1
		C1276.2,274.9,1123.6,322.2,1069.8,338.9L1069.8,338.9z"/>
	<path class="st5" d="M1556,691.9c0,0,16.3,50.4-0.5,91c-16.8,40.6-63.9,139.5-63.9,139.5s7.7,42.5-7.4,84.8
		c-15,42.4-24.9,89.1-24.9,89.1c-5.7,2.9-11.4,3-17.1,0.5l10.7-394.9L1556,691.9L1556,691.9z"/>
	<path class="st6" d="M1555.5,695.3l-102.2,6.7c0,0,31.2,164.8,58.1,229.4c0,0,25.2,16.4,37.4-14
		C1552.4,908.3,1578.5,734.6,1555.5,695.3L1555.5,695.3z"/>
	<path class="st6" d="M1510.2,923.8l14.8,172.4c6.6,8.4,11.8,9.1,18.3-2.1c0,0,12-75.1,12.1-127.8c0.1-24.4-2.4-44-9.8-49.1
		L1510.2,923.8L1510.2,923.8z"/>
	<path class="st7" d="M1459.7,1093.1c0,0,3.8,20.9,0.2,33.1l-61.8,0.1c0,0,7.5-7.9,26.2-12.5c18.7-4.6,18.1-18.9,18.1-18.9
		C1447.2,1098.6,1455.2,1097.6,1459.7,1093.1L1459.7,1093.1z"/>
	<path class="st7" d="M1543.2,1093.3c0,0,3.5,20.5-0.5,32.8l-64.5-0.2c0,0,8.1-8,27.7-12.2c19.6-4.3,19.3-18.9,19.3-18.9
		C1530,1098.7,1538.4,1097.8,1543.2,1093.3L1543.2,1093.3z"/>
	<path class="st8" d="M1563.3,487.2c0,0-29.3-35.1-59.8-19.4c-30.5,15.6-42.3,44.7-43.7,80.9c-3.5,94.8-17.8,122.2-7.4,171.9
		c0,0,112.7,21.7,111-2.1c0,0-9.5-77.2-3.6-113.8C1573.6,559.5,1579,513.9,1563.3,487.2L1563.3,487.2z"/>
	<path class="st2" d="M1514,449.4l-0.4,24.3c0,0,15,6.9,17.6-0.7l1.2-41L1514,449.4L1514,449.4z"/>
	<g>
		<defs>
			<path id="SVGID_1_" d="M1514,449.4l-0.4,24.3c0,0,15,6.9,17.6-0.7l1.2-41L1514,449.4L1514,449.4z"/>
		</defs>
		<clipPath id="SVGID_00000135653320297352014390000009191318544655163297_">
			<use xlink:href="#SVGID_1_"  style="overflow:visible;"/>
		</clipPath>
		
			<path style="clip-path:url(#SVGID_00000135653320297352014390000009191318544655163297_);fill-rule:evenodd;clip-rule:evenodd;fill:#E47136;" d="
			M1532.4,441.5c-0.2-0.3-0.1,0.7-0.2,1.1c-0.3,0.7-0.6,1.5-1,2.2c-1.1,2.1-2.3,4.1-3.7,6c-3.9,5.6-9.3,11.1-15.5,14.2
			c-1.4,0.7-5.9,2.9-7.4,1.1c-0.9-1.2,0.2-3.6,0.6-4.7c1.7-5.1,3.9-10,6-14.9c2.9-6.7,6-13.3,9.4-19.7c1.1-2.1,2.7-5.9,5.5-6.1
			c3.8-0.2,8.7,4.1,12.1,5.5"/>
	</g>
	<path class="st2" d="M1505.2,383.7c0,0-30.1,60.3-8.3,70.4c21.8,10.1,39.9-16.6,39.9-16.6c9.9-21.5,9.4-35.9,8.2-49.8L1505.2,383.7
		L1505.2,383.7z"/>
	<g>
		<defs>
			<path id="SVGID_00000099623501793479048050000006636318159438133179_" d="M1505.2,383.7c0,0-30.1,60.3-8.3,70.4
				c21.8,10.1,39.9-16.6,39.9-16.6c9.9-21.5,9.4-35.9,8.2-49.8L1505.2,383.7L1505.2,383.7z"/>
		</defs>
		<clipPath id="SVGID_00000176016531314925315580000009144203899116203422_">
			<use xlink:href="#SVGID_00000099623501793479048050000006636318159438133179_"  style="overflow:visible;"/>
		</clipPath>
		
			<path style="clip-path:url(#SVGID_00000176016531314925315580000009144203899116203422_);fill:none;stroke:#E54C02;stroke-width:0.6144;stroke-linecap:round;stroke-linejoin:round;stroke-miterlimit:10;" d="
			M1500,420.4l-5.2,10.1l5.3,1.9 M1495.9,440.7c-0.6-0.5,4.6,2.7,8.4-1.1"/>
	</g>
	<path class="st11" d="M1533.1,434.7c-0.4,8.3-1.9,7.9-2.5,18.2c0.8,0.8,1.2-1.6,3.5-4.3c4.7-5.3,15.3-19.9,17.9-37.8
		c0.4-3.1,1.1-10.9-0.4-16.2c-0.8-2.8-4.1-2.6-4.3-3c0.8-3.1-1.3-6.6-3.9-7.8c-35.3-15.9-43,6.5-41.5,7.1
		c9.7-0.1,14.1-0.8,28.5,10.5c2.5,2,7.2-1.3,8.7-2.3c0.2,0-7.8,7.4-7.7,7.6c0.4,0.6-2.5,6.8-2.8,7.6c-1.3,5.5,0.3,12.4,2.5,9.5
		c0.3-0.4,3-4.9,5.9-6.7C1538.5,416.5,1548.7,415.8,1533.1,434.7L1533.1,434.7z"/>
	<path class="st2" d="M1453.3,523c0,0-95.1-52.8-107.8-75.1l-8.5,7.4c0,0,69.5,83.9,93.5,93C1430.5,548.2,1448,535.1,1453.3,523
		L1453.3,523z"/>
	<path class="st12" d="M1428.9,549.6c12.7,11.7,124.3-1.7,139.9-30.6c14-26-8.2-46.8-53.3-30.9c-46.7,16.5-52.7,21.5-74.2,27.1
		C1432.8,521,1424.5,538.8,1428.9,549.6L1428.9,549.6z"/>
	<path class="st2" d="M1346.5,451.5c0,0-6.9-27.6-14.9-33c0,0-6.2-3.9-6.7,0.5c0,0-5.2-0.1-5.2,3.2c0,0-4.7,1.6-4.2,5.5
		c0.5,3.9-5,2.2-2.7,6.7c0,0,23.8,23.9,29.5,24.2L1346.5,451.5L1346.5,451.5z"/>
	<path class="st13" d="M667.7,577.5c0,0,11.5-11.4,18.1-11.2c0,0,5.3-0.8,3.6,2.9c0,0,3,2,1.7,3.8c0,0,2.1,2.8,0.3,4.7
		c-1.8,2,2,3.2-1,4.8c0,0-22.6,3.7-26,1.6L667.7,577.5L667.7,577.5z"/>
	<path class="st13" d="M556.6,608.2c-38.1-2.2-10.3,25.7-9.4,25.5c25.4-4.8,81.7-22.2,113.4-36.6c-0.4-2.6-1.3-5.2-5.7-7.1
		C654.9,590,560.7,608.4,556.6,608.2L556.6,608.2z"/>
	<path class="st14" d="M555.2,648.4c3.7-3.4,8.4-12.8,7.9-15c-5-20.7-27.8-119.8-58.2-105.5c-6.2,2.9-21.4,14.6,3.3,63.9
		c0,0,18.3,45.7,37.6,62.4C547.4,655.5,550.2,652.9,555.2,648.4L555.2,648.4z"/>
	<path class="st15" d="M546.4,677.5c5.4-1.2,15.5-9.1,15.3-11.6c-2.4-23.2-25.4-139.7-58.7-144.8c-7.5-1.2-18.2,25.4,1.5,82.7
		c0,0,9.5,51,28.1,71.9C534,677.5,540.7,678.8,546.4,677.5L546.4,677.5z"/>
	<path class="st13" d="M567.6,864.4c0,0-5.8,84.6-8.2,109.7c-2.4,25.2-17.9,117.7-16.1,125.7c1.8,8-12.6,1.4-15.9-7
		c0,0,2.2-21.2,3.1-33.4c0.8-12.7-4-102.9-4-102.9L567.6,864.4L567.6,864.4z"/>
	<g>
		<defs>
			<path id="SVGID_00000104692803737266515690000003811669612488976272_" d="M567.6,864.4c0,0-5.8,84.6-8.2,109.7
				c-2.4,25.2-17.9,117.7-16.1,125.7c1.8,8-12.6,1.4-15.9-7c0,0,2.2-21.2,3.1-33.4c0.8-12.7-4-102.9-4-102.9L567.6,864.4
				L567.6,864.4z"/>
		</defs>
		<clipPath id="SVGID_00000059287256101842340660000001367117216905613451_">
			<use xlink:href="#SVGID_00000104692803737266515690000003811669612488976272_"  style="overflow:visible;"/>
		</clipPath>
		
			<path style="clip-path:url(#SVGID_00000059287256101842340660000001367117216905613451_);fill-rule:evenodd;clip-rule:evenodd;fill:#FE9460;" d="
			M590,941.4c-0.1-1.2-20.5,18.8-21.4,19.6c-1.7,1.5-3.4,3-5.1,4.6c-4.9,4.7-9.7,9.7-13.9,15.1c-9.4,12.2-13.3,26.3-16.6,41.1
			c-1.3,5.6-2.6,11.3-4.4,16.8c-0.1,0.4-1.6,5.3-2.6,4.9c-0.9-0.3,0-7.7,0-8.3c0.4-9.1,0.8-18.1,1.2-27.2c1.1-19.7,0.8-56.9,23-65.5
			c6.9-2.7,14.6-2.3,21.8-1.9c3.5,0.2,7.6,1.7,11,1.3C585.6,941.7,587.8,939.6,590,941.4L590,941.4z"/>
	</g>
	<path class="st13" d="M566.3,879.7c0,0,4.7,51.2-4,65.5c-8.7,14.3-52.9,99.8-64.5,136.5c-0.8,2.6-1.7,4.6-2.3,6.5
		c-5.7,18.5-14.2,21.3-18.3,16.5c-2.5-2.9-3.1-8.7,0-15.6c8.8-19.3,11.9-35,13.9-41.3c2.1-6.3,26.3-103.4,37.2-117.7
		c0,0-11.2-24.6-11-50.1L566.3,879.7L566.3,879.7z"/>
	<g>
		<defs>
			<path id="SVGID_00000007430556220326035990000013550329763810675124_" d="M566.3,879.7c0,0,4.7,51.2-4,65.5
				c-8.7,14.3-52.9,99.8-64.5,136.5c-0.8,2.6-1.7,4.6-2.3,6.5c-5.7,18.5-14.2,21.3-18.3,16.5c-2.5-2.9-3.1-8.7,0-15.6
				c8.8-19.3,11.9-35,13.9-41.3c2.1-6.3,26.3-103.4,37.2-117.7c0,0-11.2-24.6-11-50.1L566.3,879.7L566.3,879.7z"/>
		</defs>
		<clipPath id="SVGID_00000155148881236457514130000004669953802341808049_">
			<use xlink:href="#SVGID_00000007430556220326035990000013550329763810675124_"  style="overflow:visible;"/>
		</clipPath>
		
			<path style="clip-path:url(#SVGID_00000155148881236457514130000004669953802341808049_);fill-rule:evenodd;clip-rule:evenodd;fill:#FE9460;" d="
			M515.5,902.7c0.5,1.2,7.9,1.4,8.9,1.4c9.7,0.2,19.5-2.9,29.2-1c10.6,2.1,11.2,10.7,11.2,20c0,2.7,0,5.6,0.7,8.3
			c0.1,0.6,0.5,2.3,1.4,2.3c1.2-0.1,1.5-2.5,1.7-3.3c0.8-3.7,1-7.6,1-11.4c0.2-14.5-0.5-34-10.5-45.6c-10.8-12.5-32.4-2.6-44.2,3.5"
			/>
	</g>
	<path class="st18" d="M480.3,1081.7c0,0-8.4,20.1-8.2,33.5l36.7,10.9l15.2-0.4c0,0-3.7-10.2-16.9-13.8
		c-15.7-8.7-10.9-24.3-10.9-24.3C490.8,1090.5,483.2,1087.3,480.3,1081.7L480.3,1081.7z"/>
	<path class="st18" d="M527.7,1091.6c0,0-3,21.6,0.5,34.5l57.2-0.5c0,0-7.1-8.3-24.5-12.8c-17.4-4.5-17.2-19.8-17.2-19.8
		C539.3,1097.2,531.9,1096.3,527.7,1091.6L527.7,1091.6z"/>
	<path class="st6" d="M502.8,697.8c0,0-23.8,56.7-15.8,99.9c8,43.3,21.9,93.3,20.3,100.3c0,0,14.9,13.5,27.3,8.6
		c12.3-4.9,43.3-16.6,43.3-16.6s17.1-157.9-0.6-188.5C577.3,701.6,574.7,706.1,502.8,697.8L502.8,697.8z"/>
	<path class="st7" d="M526.8,478.7c-0.6,1.3,2.6-1.6,3.5-2.8c2.1-2.6,2.8-5.6,2.8-8.9c-0.1-9.3-4.8-17.7-11.3-24
		c-15.6-15-39.9-10.1-53.1,6.2c-6.9,8.5-9.7,18.6-9.7,29.3c0,5.2,16,169.8,49.6,73c6-17.2-3.1-47.7-11.8-62.7L526.8,478.7
		L526.8,478.7z"/>
	<path class="st19" d="M512.9,524.3c15.9,14,77.1,65.9,55.2,93.5c0,0,14.4,64.6,11.4,88.4c0,0-76,30.4-78.8-10.2
		c-2.8-41.3-21.5-94-21.5-94s-31.8-54.4,4.2-78.2C483.4,523.9,505,517.4,512.9,524.3L512.9,524.3z"/>
	<path class="st13" d="M502,503.5l-0.9,19.3c68.6,64.5,14.5,37.2-17.4,1.1l9.8-37L502,503.5L502,503.5z"/>
	<g>
		<defs>
			<path id="SVGID_00000067946279848526673870000016226502700653531525_" d="M502,503.5l-0.9,19.3c68.6,64.5,14.5,37.2-17.4,1.1
				l9.8-37L502,503.5L502,503.5z"/>
		</defs>
		<clipPath id="SVGID_00000038389235675620387880000017634799963776829366_">
			<use xlink:href="#SVGID_00000067946279848526673870000016226502700653531525_"  style="overflow:visible;"/>
		</clipPath>
		
			<path style="clip-path:url(#SVGID_00000038389235675620387880000017634799963776829366_);fill-rule:evenodd;clip-rule:evenodd;fill:#FE8F59;" d="
			M490.9,497.1c-2.5-0.6-2.5,6.4-2.3,6.8c0.4,1.2,1,2.4,1.6,3.6c2.3,4.5,5.7,8.6,9.4,12.3c1,1,2.8,3.3,4.5,3.5
			c1,0.1,1.2-1.3,1.3-1.9c0.5-2.3,0.5-4.6,0.4-6.9c0-3.2-0.1-6.6-0.8-9.8c-0.3-1.4-0.7-3-2-4C502,499.8,495.7,498.2,490.9,497.1
			L490.9,497.1z"/>
	</g>
	<path class="st13" d="M528.3,466.7c0,0,10.1,48.7-14.4,50.7c-6.3,0.5-16.9-3.7-27.3-19.5l1.9-46.1
		C488.5,451.8,509.7,433.6,528.3,466.7L528.3,466.7z"/>
	<g>
		<defs>
			<path id="SVGID_00000183206927707777648900000004294411874581989555_" d="M528.3,466.7c0,0,10.1,48.7-14.4,50.7
				c-6.3,0.5-16.9-3.7-27.3-19.5l1.9-46.1C488.5,451.8,509.7,433.6,528.3,466.7L528.3,466.7z"/>
		</defs>
		<clipPath id="SVGID_00000076579474351563298750000013062327361907690147_">
			<use xlink:href="#SVGID_00000183206927707777648900000004294411874581989555_"  style="overflow:visible;"/>
		</clipPath>
		
			<path style="clip-path:url(#SVGID_00000076579474351563298750000013062327361907690147_);fill:none;stroke:#E54C02;stroke-width:0.5692;stroke-linecap:round;stroke-linejoin:round;stroke-miterlimit:10;" d="
			M517.6,486.9l4.9,9.3l-4.9,1.8 M520,507c0.7-0.3-4.9,1-7-3.5"/>
	</g>
	<path class="st7" d="M492.9,454.1c-0.2,0.1,0.4,0.2,0.5,0.4c0.3,0.4,1.9,3.7,2.3,5c1.5,4.4,2.4,9.3,2.1,14.1
		c-0.3,5.4-2.5,10.1-5.7,14.2c-2.2,3-5.2,5.6-6.6,9.2c-2.1,5.4-1.4,11.1-5.8,14.4c-9.6,7.3-17.3-29.1-6.3-40.4c4.9-5,2-14.6,5.4-21
		c1.6-2.9,15.3-8.7,16.9-8.6c12,0.6,28,3.8,31.9,18.1c0.5,2,2.1,6.6,1.4,8.8c-0.2,0.5-5,1.1-6.7,1.4c-8.8,1.5-15.7-2.5-21.9-8.7
		C498.6,459.1,492.9,454.1,492.9,454.1L492.9,454.1z"/>
	<path class="st22" d="M895.3,367.3c0,0,34.9-64.6-25.1-80.8c-56.3-15.2-59.6,58.1-59.6,58.1L895.3,367.3L895.3,367.3z"/>
	<path class="st22" d="M668.3,428.8c0,0-64.6-34.9-80.8,25.1c-15.2,56.3,58.1,59.6,58.1,59.6L668.3,428.8L668.3,428.8z"/>
	<path class="st22" d="M976.7,511.5c0,0,16.6-61.8,25.3-94.5c2.9-10.9-3.5-22-14.4-25l-269-72.1c-10.9-2.9-22,3.5-25,14.4
		c-15.1,56.2-58.2,217.2-73.3,273.4c-2.9,10.9,3.5,22.1,14.4,25c55.6,14.9,213.4,57.2,269,72.1c10.9,2.9,22-3.5,25-14.4
		c8.7-32.6,25.3-94.3,25.3-94.3s-73.3-3.3-58.1-59.6C912,476.5,976.7,511.5,976.7,511.5L976.7,511.5z"/>
	<path class="st22" d="M727,657.4c0,0-34.9,64.6,25.1,80.8c56.3,15.2,59.6-58.1,59.6-58.1L727,657.4L727,657.4z"/>
	<path class="st13" d="M484,474.9c0,0-6.7-4.6-5.5,2.9s5.2,8.7,5.2,8.7C485.4,484.7,485.9,481.2,484,474.9L484,474.9z"/>
	<path class="st13" d="M651.7,541.2c0,0,2.7-0.4,5.1-1.6c5.9-2.7,15.1-7.4,20.2-6.1c0,0,5.4,0.6,3.3,3.6c0,0,2.8,2.6,1.1,4.1
		c0,0,1.7,3.1-0.6,4.6c-2.3,1.5-0.5,4.1-7,4c0,0-20.3-1.1-23.5-3.9L651.7,541.2L651.7,541.2z"/>
	<path class="st13" d="M564.9,559.6c-19.6,4.9-1.4,28.7-0.5,28.4c26.8-9.8,64.5-18.9,96.4-40.4c-0.9-2.8-2.3-5.4-7.5-6.7
		C653.4,541,569.3,558.6,564.9,559.6L564.9,559.6z"/>
	<path class="st14" d="M561.6,564.5c-1.2-8.1-22.7-14.6-47.9-22.6c-29-9.2-40-7.6-45.6,6c-2.9,7-6,18.6,18.4,27.7
		c0,0,48.7,17.5,76.6,14.3C569.9,589.2,562.9,572.6,561.6,564.5L561.6,564.5z"/>
	<path class="st23" d="M381.6,1025.6c6.9,4.8-12-184.1-32-209.2l-5.3,3.2c7-9.3,42.7,169.5,31.1,206L381.6,1025.6L381.6,1025.6z"/>
	<path class="st24" d="M298.7,744c1.5-1.7,14.6-15,45.7-1.3c33.2,14.5,24.5,43.3,24.5,43.3c45.6-6.9,42.8,21.7,42.8,21.7
		c-1.9,7-5,13.3-8.9,19c-13.8-34.9-22.4-22.6-22.4-22.6c13.2,9.7,16.1,22.2,16.4,30.2c-5.6,6.2-12.2,11.5-19.5,16.1
		c3.1-12.2,6.5-32.8-2.4-42c-11.7-12-2.7,27.4-4.5,46.1c-6.8,3.7-14,6.9-21.2,9.5c0.9-4.2,1.5-8.4,1.7-12.6
		c0.2-7.2-0.3-14.5-0.3-21.7c0-2.7,0.3-6.5-1.2-9c-1-1.6-2.7-2.7-4.5-1.5c-4.3,2.7-3.6,9.5-2.9,13.6c1.1,7.3,2,14.7,1.7,22.1
		c-0.2,3.9-0.9,7.7-1.5,11.6c-6.9,2.3-13.8,4.1-20.4,5.7c0.9-3.1,1.6-6.2,1.9-9.2c0.6-5.5,0.6-11.1,1-16.6c0.2-2.1,0.6-5-0.4-6.8
		c-0.6-1.2-1.9-1.9-3.4-1c-3.5,2.3-3.3,7.4-3,10.5c0.5,5.5,0.7,11.1,0,16.8c-0.3,2.5-0.9,5-1.5,7.4c-5.9,1.2-11.5,2.2-16.5,3
		c0.2-0.5,0.5-1,0.7-1.4c2.4-5.1,4.1-10.4,6.4-15.5c0.8-1.9,2.2-4.6,1.9-6.6c-0.2-1.3-1.2-2.4-2.9-1.9c-4.1,1.2-5.6,6.1-6.3,9.1
		c-1.4,5.4-3,10.8-5.4,16c-0.2,0.4-0.4,0.8-0.6,1.1c-11.1,1.4-18.3,1.7-18.3,1.7c-3.1-9.7-5.2-19-6.5-27.8
		c12.8-1.6,28.3-4.3,28.2-7.8c0-4.3-15.1,0.5-29,2c-0.4-4-0.7-7.9-0.8-11.7c12.4-1.2,38.9-4.4,38.9-9c0-5.3-23.6,3.4-38.9,2.4
		c0.1-5.7,0.5-11.2,1.3-16.4c14-0.5,49.5-2.1,49.7-6.7c0.3-5.5-8.5-8.1-48-3.2c1.3-6,2.9-11.5,4.7-16.6c15,1.5,53.4,4.8,54.1-0.8
		c0.8-6.6-24.3-9.9-50.8-7.6c4.8-10.8,10.2-19,14.2-24.4c12.6,5.2,40.4,16,41.6,10.8C335.4,756.5,313.2,747.1,298.7,744L298.7,744z"
		/>
	<g>
		<defs>
			<path id="SVGID_00000155852344491710710870000006449785147440805790_" d="M298.7,744c1.5-1.7,14.6-15,45.7-1.3
				c33.2,14.5,24.5,43.3,24.5,43.3c45.6-6.9,42.8,21.7,42.8,21.7c-1.9,7-5,13.3-8.9,19c-13.8-34.9-22.4-22.6-22.4-22.6
				c13.2,9.7,16.1,22.2,16.4,30.2c-5.6,6.2-12.2,11.5-19.5,16.1c3.1-12.2,6.5-32.8-2.4-42c-11.7-12-2.7,27.4-4.5,46.1
				c-6.8,3.7-14,6.9-21.2,9.5c0.9-4.2,1.5-8.4,1.7-12.6c0.2-7.2-0.3-14.5-0.3-21.7c0-2.7,0.3-6.5-1.2-9c-1-1.6-2.7-2.7-4.5-1.5
				c-4.3,2.7-3.6,9.5-2.9,13.6c1.1,7.3,2,14.7,1.7,22.1c-0.2,3.9-0.9,7.7-1.5,11.6c-6.9,2.3-13.8,4.1-20.4,5.7
				c0.9-3.1,1.6-6.2,1.9-9.2c0.6-5.5,0.6-11.1,1-16.6c0.2-2.1,0.6-5-0.4-6.8c-0.6-1.2-1.9-1.9-3.4-1c-3.5,2.3-3.3,7.4-3,10.5
				c0.5,5.5,0.7,11.1,0,16.8c-0.3,2.5-0.9,5-1.5,7.4c-5.9,1.2-11.5,2.2-16.5,3c0.2-0.5,0.5-1,0.7-1.4c2.4-5.1,4.1-10.4,6.4-15.5
				c0.8-1.9,2.2-4.6,1.9-6.6c-0.2-1.3-1.2-2.4-2.9-1.9c-4.1,1.2-5.6,6.1-6.3,9.1c-1.4,5.4-3,10.8-5.4,16c-0.2,0.4-0.4,0.8-0.6,1.1
				c-11.1,1.4-18.3,1.7-18.3,1.7c-3.1-9.7-5.2-19-6.5-27.8c12.8-1.6,28.3-4.3,28.2-7.8c0-4.3-15.1,0.5-29,2c-0.4-4-0.7-7.9-0.8-11.7
				c12.4-1.2,38.9-4.4,38.9-9c0-5.3-23.6,3.4-38.9,2.4c0.1-5.7,0.5-11.2,1.3-16.4c14-0.5,49.5-2.1,49.7-6.7c0.3-5.5-8.5-8.1-48-3.2
				c1.3-6,2.9-11.5,4.7-16.6c15,1.5,53.4,4.8,54.1-0.8c0.8-6.6-24.3-9.9-50.8-7.6c4.8-10.8,10.2-19,14.2-24.4
				c12.6,5.2,40.4,16,41.6,10.8C335.4,756.5,313.2,747.1,298.7,744L298.7,744z"/>
		</defs>
		<clipPath id="SVGID_00000036951822599593128500000015672582781525870483_">
			<use xlink:href="#SVGID_00000155852344491710710870000006449785147440805790_"  style="overflow:visible;"/>
		</clipPath>
		
			<polygon style="clip-path:url(#SVGID_00000036951822599593128500000015672582781525870483_);fill-rule:evenodd;clip-rule:evenodd;fill:#2A6868;" points="
			428.2,810.4 383.5,771 273.6,882.2 318.3,921.6 428.2,810.4 		"/>
	</g>
	<path class="st26" d="M382.7,1025.2c4.9,1.6-18.8-80.4-33.5-89.9l-3.3,1.8c4.1-4.6,38.3,71.5,32.7,88.5L382.7,1025.2L382.7,1025.2z
		"/>
	<path class="st27" d="M321.8,887.9c1.1-1,11.1-8.6,30.4,3.1c20.5,12.5,12,30.8,12,30.8c30.9-0.6,26.3,18.1,26.3,18.1
		c-2,4.5-4.6,8.4-7.8,11.8c-5.7-24.3-12.6-17-12.6-17c7.8,7.6,8.5,16.1,7.9,21.5c-4.3,3.6-9.2,6.6-14.5,9c3.2-7.8,7.6-21.2,2.5-28.1
		c-6.6-9-4.5,17.9-7.5,30.2c-4.9,1.9-9.9,3.3-15,4.5c1-2.7,1.8-5.5,2.3-8.2c0.9-4.8,1.2-9.6,1.9-14.4c0.3-1.8,0.8-4.3,0.1-6.1
		c-0.5-1.2-1.5-2-2.8-1.4c-3.1,1.4-3.3,6-3.3,8.8c0,5-0.1,9.9-1.1,14.8c-0.5,2.6-1.3,5-2.1,7.5c-4.8,0.9-9.6,1.5-14.1,2
		c0.9-2,1.6-4,2.2-6c0.9-3.6,1.5-7.3,2.3-10.9c0.3-1.4,0.9-3.3,0.4-4.5c-0.3-0.9-1.1-1.4-2.2-0.9c-2.6,1.2-2.9,4.6-3.1,6.7
		c-0.2,3.7-0.6,7.4-1.6,11.1c-0.4,1.6-1.1,3.2-1.7,4.8c-4,0.3-7.8,0.5-11.2,0.5c0.2-0.3,0.4-0.6,0.6-0.9c2.1-3.2,3.8-6.5,5.7-9.7
		c0.7-1.2,1.9-2.8,1.9-4.2c0-0.9-0.6-1.7-1.8-1.5c-2.8,0.4-4.3,3.5-5.1,5.5c-1.4,3.5-3,6.9-5.2,10.1c-0.2,0.2-0.3,0.5-0.5,0.7
		c-7.5,0-12.3-0.5-12.3-0.5c-1.1-6.7-1.6-13-1.6-19c8.7,0,19.2-0.4,19.5-2.7c0.4-2.8-10.1-1-19.4-1.2c0.1-2.7,0.3-5.3,0.6-7.8
		c8.4,0.3,26.2,0.5,26.6-2.5c0.5-3.5-16,0.2-26-1.8c0.6-3.8,1.5-7.4,2.4-10.7c9.3,0.9,33,2.9,33.6-0.1c0.8-3.6-4.8-6.1-31.5-6.3
		c1.4-3.9,3.1-7.4,4.8-10.6c9.8,2.3,34.9,7.9,35.9,4.2c1.2-4.3-15.1-8.7-32.9-9.5c4.2-6.8,8.6-11.7,11.8-14.9
		c7.9,4.6,25.2,14.1,26.5,10.8C344.9,899.3,331.1,891.2,321.8,887.9L321.8,887.9z"/>
	<g>
		<defs>
			<path id="SVGID_00000116213040699884222030000003579527568319744947_" d="M321.8,887.9c1.1-1,11.1-8.6,30.4,3.1
				c20.5,12.5,12,30.8,12,30.8c30.9-0.6,26.3,18.1,26.3,18.1c-2,4.5-4.6,8.4-7.8,11.8c-5.7-24.3-12.6-17-12.6-17
				c7.8,7.6,8.5,16.1,7.9,21.5c-4.3,3.6-9.2,6.6-14.5,9c3.2-7.8,7.6-21.2,2.5-28.1c-6.6-9-4.5,17.9-7.5,30.2
				c-4.9,1.9-9.9,3.3-15,4.5c1-2.7,1.8-5.5,2.3-8.2c0.9-4.8,1.2-9.6,1.9-14.4c0.3-1.8,0.8-4.3,0.1-6.1c-0.5-1.2-1.5-2-2.8-1.4
				c-3.1,1.4-3.3,6-3.3,8.8c0,5-0.1,9.9-1.1,14.8c-0.5,2.6-1.3,5-2.1,7.5c-4.8,0.9-9.6,1.5-14.1,2c0.9-2,1.6-4,2.2-6
				c0.9-3.6,1.5-7.3,2.3-10.9c0.3-1.4,0.9-3.3,0.4-4.5c-0.3-0.9-1.1-1.4-2.2-0.9c-2.6,1.2-2.9,4.6-3.1,6.7
				c-0.2,3.7-0.6,7.4-1.6,11.1c-0.4,1.6-1.1,3.2-1.7,4.8c-4,0.3-7.8,0.5-11.2,0.5c0.2-0.3,0.4-0.6,0.6-0.9c2.1-3.2,3.8-6.5,5.7-9.7
				c0.7-1.2,1.9-2.8,1.9-4.2c0-0.9-0.6-1.7-1.8-1.5c-2.8,0.4-4.3,3.5-5.1,5.5c-1.4,3.5-3,6.9-5.2,10.1c-0.2,0.2-0.3,0.5-0.5,0.7
				c-7.5,0-12.3-0.5-12.3-0.5c-1.1-6.7-1.6-13-1.6-19c8.7,0,19.2-0.4,19.5-2.7c0.4-2.8-10.1-1-19.4-1.2c0.1-2.7,0.3-5.3,0.6-7.8
				c8.4,0.3,26.2,0.5,26.6-2.5c0.5-3.5-16,0.2-26-1.8c0.6-3.8,1.5-7.4,2.4-10.7c9.3,0.9,33,2.9,33.6-0.1c0.8-3.6-4.8-6.1-31.5-6.3
				c1.4-3.9,3.1-7.4,4.8-10.6c9.8,2.3,34.9,7.9,35.9,4.2c1.2-4.3-15.1-8.7-32.9-9.5c4.2-6.8,8.6-11.7,11.8-14.9
				c7.9,4.6,25.2,14.1,26.5,10.8C344.9,899.3,331.1,891.2,321.8,887.9L321.8,887.9z"/>
		</defs>
		<clipPath id="SVGID_00000088850629274823867330000011384421514683752870_">
			<use xlink:href="#SVGID_00000116213040699884222030000003579527568319744947_"  style="overflow:visible;"/>
		</clipPath>
		
			<polygon style="clip-path:url(#SVGID_00000088850629274823867330000011384421514683752870_);fill-rule:evenodd;clip-rule:evenodd;fill:#3F9A9A;" points="
			401.1,943.2 375.3,913.2 291.6,977.3 317.4,1007.3 401.1,943.2 		"/>
	</g>
	<path class="st26" d="M379.2,1033.3c-6.5,3,11.3-114.7,30-130.3l4.9,2c-6.5-5.8-40,105.6-29.2,128.3L379.2,1033.3L379.2,1033.3z"/>
	<path class="st27" d="M402,897.2c0,0-19.3-18.7-16-29.2c3.3-10.6,14-13.1,33.4-9.4c19.4,3.7,60,27.2,62,77.1c0,0-43.2,21.4-78.2,10
		C368.3,934.3,348.8,884.5,402,897.2L402,897.2z"/>
	<g>
		<defs>
			<path id="SVGID_00000013159459888475286450000005501037273743221418_" d="M402,897.2c0,0-19.3-18.7-16-29.2
				c3.3-10.6,14-13.1,33.4-9.4c19.4,3.7,60,27.2,62,77.1c0,0-43.2,21.4-78.2,10C368.3,934.3,348.8,884.5,402,897.2L402,897.2z"/>
		</defs>
		<clipPath id="SVGID_00000155860973914534728660000009006534065931985055_">
			<use xlink:href="#SVGID_00000013159459888475286450000005501037273743221418_"  style="overflow:visible;"/>
		</clipPath>
		
			<path style="clip-path:url(#SVGID_00000155860973914534728660000009006534065931985055_);fill-rule:evenodd;clip-rule:evenodd;fill:#5A8A8A;" d="
			M492.8,942.3c-15.9-9.6-32.5-16.7-49.2-24.8c-10.1-4.9-20-10.4-30-15.4c-7.2-3.5-14.3-7.3-21.5-10.9c-2.9-1.5-7.3-2.7-9.5-5.1
			c-3-3.2-4.2-8.8-5.7-12.6c-2.1-5.6-4.6-11.7-4.3-17.7c0.6-11.7,10-21.1,20.4-25.8c6-2.7,12.4-1.7,18.7,0.1
			c11.1,3.2,20.5,8.2,29.7,15.1c6.6,4.9,14.9,9.5,20.3,15.7c2.6,3,4.4,6.6,6.4,9.9c4.5,7.3,8.5,14.3,11.9,22.1
			c5.3,12.1,11.7,24.2,13.5,37.3c0.8,5.9-0.5,11.7-0.8,17.6"/>
	</g>
	<path class="st30" d="M341,1025.7v59.7c0,16.8,5,32,12.9,42.3h50.4c7.9-10.3,12.9-25.4,12.9-42.3v-59.7H341L341,1025.7z"/>
	<path class="st31" d="M863.3,902.4c0,0-78.9-19-79.1,49.7c-0.2,64.4,78.9,47.1,78.9,47.1L863.3,902.4L863.3,902.4z"/>
	<path class="st31" d="M1198.4,775.1c6.1,0,11.9,2.4,16.1,6.7c4.3,4.3,6.7,10.1,6.7,16.2c-0.1,36.8-0.2,105.2-0.2,105.2
		s-78.9-19-79.1,49.7c-0.2,64.4,78.9,47.1,78.9,47.1s-0.1,68.2-0.2,105c0,6.1-2.4,11.9-6.7,16.1c-4.3,4.3-10.1,6.7-16.2,6.7
		c-64.5-0.1-247.5-0.5-312-0.7c-6.1,0-11.9-2.4-16.1-6.7c-4.3-4.3-6.7-10.1-6.7-16.2c0.1-63.8,0.5-243.2,0.7-307
		c0-12.6,10.3-22.8,22.9-22.8c37.4,0.1,107.5,0.2,107.5,0.2s-17.6,79.1,46.8,79.1c68.6,0,50-78.9,50-78.9S1161,775,1198.4,775.1
		L1198.4,775.1z"/>
</g>
</svg>
